LibertinusSerif-SemiBold.ufo
<glyph name="exclam" format="2">
	<unicode hex="0021"/>
	<advance width="273"/>
	<outline>
		<contour>
			<point x="136.667" y="658" type="curve" smooth="yes"/>
			<point x="108" y="658"/>
			<point x="71" y="639"/>
			<point x="71" y="583.667" type="curve" smooth="yes"/>
			<point x="71" y="534.333"/>
			<point x="80.3333" y="503.333"/>
			<point x="88" y="450.667" type="curve" smooth="yes"/>
			<point x="99.3333" y="378"/>
			<point x="110.667" y="268"/>
			<point x="112" y="229" type="curve" smooth="yes"/>
			<point x="113" y="204.333"/>
			<point x="116" y="188.667"/>
			<point x="136.667" y="188.667" type="curve" smooth="yes"/>
			<point x="155.333" y="188.667"/>
			<point x="159.667" y="207"/>
			<point x="160" y="223.333" type="curve" smooth="yes"/>
			<point x="161.333" y="260.667"/>
			<point x="170" y="347.333"/>
			<point x="185" y="448.667" type="curve" smooth="yes"/>
			<point x="192.333" y="499.333"/>
			<point x="202.333" y="538.667"/>
			<point x="202.333" y="583.667" type="curve" smooth="yes"/>
			<point x="202.333" y="635.667"/>
			<point x="169.333" y="658"/>
		</contour>
		<contour>
			<point x="70.3333" y="53" type="curve" smooth="yes"/>
			<point x="70.3333" y="18"/>
			<point x="99.6667" y="-10"/>
			<point x="136" y="-10" type="curve" smooth="yes"/>
			<point x="172.333" y="-10"/>
			<point x="203" y="19.3333"/>
			<point x="203" y="54.3333" type="curve" smooth="yes"/>
			<point x="203" y="90"/>
			<point x="173.667" y="118"/>
			<point x="137.333" y="118" type="curve" smooth="yes"/>
			<point x="101" y="118"/>
			<point x="70.3333" y="88.6667"/>
		</contour>
	</outline>
</glyph>
<glyph name="numbersign" format="2">
	<unicode hex="0023"/>
	<advance width="498"/>
	<outline>
		<contour>
			<point x="351" y="360" type="line"/>
			<point x="461.333" y="360" type="line"/>
			<point x="470" y="421.667" type="line"/>
			<point x="360" y="421.667" type="line"/>
			<point x="387.667" y="596.667" type="line"/>
			<point x="340.333" y="596.667" type="line"/>
			<point x="332.1" y="547.981"/>
			<point x="320.567" y="470.352"/>
			<point x="312.333" y="421.667" type="curve"/>
			<point x="209.667" y="421.667" type="line"/>
			<point x="239.667" y="596.667" type="line"/>
			<point x="189.667" y="596.667" type="line"/>
			<point x="181.378" y="547.99"/>
			<point x="168.955" y="470.343"/>
			<point x="160.667" y="421.667" type="curve"/>
			<point x="63" y="421.667" type="line"/>
			<point x="54.3333" y="360" type="line"/>
			<point x="152" y="360" type="line"/>
			<point x="147.633" y="328.729"/>
			<point x="139.704" y="281.631"/>
			<point x="134.667" y="250.333" type="curve"/>
			<point x="36.6667" y="250.333" type="line"/>
			<point x="28" y="188.667" type="line"/>
			<point x="125" y="188.667" type="line"/>
			<point x="97" y="14" type="line"/>
			<point x="146" y="14" type="line"/>
			<point x="154.958" y="62.6403"/>
			<point x="166.654" y="138.361"/>
			<point x="175.667" y="188.667" type="curve"/>
			<point x="277" y="188.667" type="line"/>
			<point x="248.667" y="14" type="line"/>
			<point x="296.667" y="14" type="line"/>
			<point x="305.012" y="62.6295"/>
			<point x="316.931" y="138.37"/>
			<point x="325.333" y="188.667" type="curve"/>
			<point x="436" y="188.667" type="line"/>
			<point x="443.667" y="250.333" type="line"/>
			<point x="333.333" y="250.333" type="line"/>
		</contour>
		<contour>
			<point x="285.667" y="250.333" type="line"/>
			<point x="183.667" y="250.333" type="line"/>
			<point x="188.759" y="281.61"/>
			<point x="197.575" y="328.723"/>
			<point x="202.667" y="360" type="curve"/>
			<point x="303" y="360" type="line"/>
		</contour>
	</outline>
</glyph>
<glyph name="dollar" format="2">
	<unicode hex="0024"/>
	<advance width="498"/>
	<outline>
		<contour>
			<point x="66.6667" y="10" type="curve"/>
			<point x="121.333" y="10"/>
			<point x="177" y="-9.66667"/>
			<point x="233.333" y="-9.66667" type="curve" smooth="yes"/>
			<point x="354" y="-9.66667"/>
			<point x="450.333" y="63"/>
			<point x="450.333" y="171" type="curve" smooth="yes"/>
			<point x="450.333" y="241"/>
			<point x="392.333" y="305.333"/>
			<point x="282.667" y="356.333" type="curve"/>
			<point x="251" y="370" type="line"/>
			<point x="189" y="399"/>
			<point x="160.667" y="427"/>
			<point x="160.667" y="484.667" type="curve" smooth="yes"/>
			<point x="160.667" y="538"/>
			<point x="202" y="574.667"/>
			<point x="254" y="574.667" type="curve" smooth="yes"/>
			<point x="329.667" y="574.667"/>
			<point x="358.333" y="508.333"/>
			<point x="377" y="445.667" type="curve"/>
			<point x="388.667" y="443"/>
			<point x="408.667" y="444"/>
			<point x="418" y="451" type="curve"/>
			<point x="417" y="498.667"/>
			<point x="413" y="532.667"/>
			<point x="405.667" y="585" type="curve"/>
			<point x="354" y="591.667"/>
			<point x="314.333" y="610"/>
			<point x="258.333" y="610" type="curve" smooth="yes"/>
			<point x="146.667" y="610"/>
			<point x="61" y="546.667"/>
			<point x="61" y="450.333" type="curve" smooth="yes"/>
			<point x="61" y="365.667"/>
			<point x="99" y="320.333"/>
			<point x="217.333" y="260.333" type="curve"/>
			<point x="243.333" y="248" type="line" smooth="yes"/>
			<point x="299" y="221"/>
			<point x="346.333" y="176.667"/>
			<point x="346.333" y="117.667" type="curve" smooth="yes"/>
			<point x="346.333" y="57"/>
			<point x="296.333" y="27.6667"/>
			<point x="241" y="27.6667" type="curve" smooth="yes"/>
			<point x="160" y="27.6667"/>
			<point x="106" y="86.3333"/>
			<point x="89" y="162" type="curve"/>
			<point x="71.3333" y="164"/>
			<point x="57.3333" y="162.667"/>
			<point x="48.3333" y="159" type="curve"/>
			<point x="49.6667" y="88.3333"/>
			<point x="56.3333" y="48"/>
		</contour>
		<contour>
			<point x="213" y="15" type="line"/>
			<point x="252" y="13.6667" type="line"/>
			<point x="265.667" y="248.333" type="line"/>
			<point x="227" y="270" type="line"/>
		</contour>
		<contour>
			<point x="232.667" y="368.667" type="line"/>
			<point x="270.667" y="346" type="line"/>
			<point x="284" y="585.333" type="line"/>
			<point x="244.667" y="589" type="line"/>
		</contour>
		<contour>
			<point x="207.333" y="-98" type="line"/>
			<point x="217.333" y="-98"/>
			<point x="239" y="-97"/>
			<point x="247" y="-93" type="curve"/>
			<point x="252" y="6" type="line"/>
			<point x="213.333" y="7" type="line"/>
		</contour>
		<contour>
			<point x="244.333" y="595" type="line"/>
			<point x="284" y="594" type="line"/>
			<point x="290" y="695" type="line"/>
			<point x="277" y="695"/>
			<point x="259.333" y="693"/>
			<point x="250.333" y="690" type="curve"/>
		</contour>
	</outline>
</glyph>
<glyph name="percent" format="2">
	<unicode hex="0025"/>
	<advance width="637"/>
	<outline>
		<contour>
			<point x="53" y="408.667" type="curve" smooth="yes"/>
			<point x="53" y="346.333"/>
			<point x="82.3333" y="299"/>
			<point x="151" y="299" type="curve" smooth="yes"/>
			<point x="231.667" y="299"/>
			<point x="282.333" y="389.333"/>
			<point x="282.333" y="476.667" type="curve" smooth="yes"/>
			<point x="282.333" y="483.667"/>
			<point x="282" y="490.667"/>
			<point x="280.667" y="497" type="curve"/>
			<point x="299.667" y="486.667"/>
			<point x="332.333" y="477.333"/>
			<point x="354" y="477.333" type="curve" smooth="yes"/>
			<point x="384" y="477.333"/>
			<point x="423" y="483.333"/>
			<point x="461.667" y="499" type="curve"/>
			<point x="98" y="-1.66667" type="line"/>
			<point x="145.333" y="-14.6667" type="line"/>
			<point x="556" y="551.667" type="line"/>
			<point x="514" y="571" type="line"/>
			<point x="476.333" y="527.667"/>
			<point x="406" y="519.667"/>
			<point x="364" y="519.667" type="curve" smooth="yes"/>
			<point x="334" y="519.667"/>
			<point x="300.333" y="525"/>
			<point x="259.667" y="544.667" type="curve"/>
			<point x="245" y="559.333"/>
			<point x="218.667" y="567.667"/>
			<point x="192" y="567.667" type="curve" smooth="yes"/>
			<point x="108.667" y="567.667"/>
			<point x="53" y="491.333"/>
		</contour>
		<contour>
			<point x="372.667" y="93.3333" type="curve" smooth="yes"/>
			<point x="372.667" y="30.3333"/>
			<point x="402.667" y="-16.6667"/>
			<point x="471" y="-16.6667" type="curve" smooth="yes"/>
			<point x="551.333" y="-16.6667"/>
			<point x="602" y="72.6667"/>
			<point x="602" y="161" type="curve" smooth="yes"/>
			<point x="602" y="233.333"/>
			<point x="557.333" y="252"/>
			<point x="512" y="252" type="curve" smooth="yes"/>
			<point x="428" y="252"/>
			<point x="372.667" y="174"/>
		</contour>
		<contour>
			<point x="133" y="378.667" type="curve" smooth="yes"/>
			<point x="133" y="422.667"/>
			<point x="148.667" y="533.333"/>
			<point x="203" y="533.333" type="curve" smooth="yes"/>
			<point x="218.333" y="533.333"/>
			<point x="243.333" y="526.333"/>
			<point x="243.333" y="475" type="curve" smooth="yes"/>
			<point x="243.333" y="427.667"/>
			<point x="216" y="335.333"/>
			<point x="164.333" y="335.333" type="curve" smooth="yes"/>
			<point x="146.333" y="335.333"/>
			<point x="133" y="347.333"/>
		</contour>
		<contour>
			<point x="453" y="63" type="curve" smooth="yes"/>
			<point x="453" y="107"/>
			<point x="468.667" y="217.667"/>
			<point x="523" y="217.667" type="curve" smooth="yes"/>
			<point x="537" y="217.667"/>
			<point x="563" y="211.333"/>
			<point x="563" y="159.333" type="curve" smooth="yes"/>
			<point x="563" y="112.667"/>
			<point x="536" y="19.6667"/>
			<point x="484.333" y="19.6667" type="curve" smooth="yes"/>
			<point x="466" y="19.6667"/>
			<point x="453" y="31.6667"/>
		</contour>
	</outline>
</glyph>
<glyph name="ampersand" format="2">
	<unicode hex="0026"/>
	<advance width="721"/>
	<outline>
		<contour>
			<point x="40.3333" y="148" type="curve" smooth="yes"/>
			<point x="40.3333" y="44.6667"/>
			<point x="118" y="-10"/>
			<point x="233" y="-10" type="curve" smooth="yes"/>
			<point x="314" y="-10"/>
			<point x="373.667" y="26.3333"/>
			<point x="417.667" y="75.3333" type="curve"/>
			<point x="432.667" y="55" type="line" smooth="yes"/>
			<point x="471" y="0.666667"/>
			<point x="512" y="-10"/>
			<point x="565.667" y="-10" type="curve" smooth="yes"/>
			<point x="607.333" y="-10"/>
			<point x="655.667" y="12.6667"/>
			<point x="688.667" y="70" type="curve"/>
			<point x="687" y="81.6667"/>
			<point x="680" y="97.3333"/>
			<point x="669.667" y="97.3333" type="curve"/>
			<point x="649" y="67.6667"/>
			<point x="623.333" y="48.6667"/>
			<point x="591" y="48.6667" type="curve" smooth="yes"/>
			<point x="555.667" y="48.6667"/>
			<point x="521.667" y="88"/>
			<point x="493.333" y="131" type="curve" smooth="yes"/>
			<point x="476" y="156.333" type="line"/>
			<point x="519.333" y="212.667"/>
			<point x="559.333" y="276"/>
			<point x="583" y="316.667" type="curve" smooth="yes"/>
			<point x="615.667" y="373.333"/>
			<point x="635.333" y="393.667"/>
			<point x="689.667" y="399" type="curve"/>
			<point x="695.667" y="405"/>
			<point x="695.667" y="426.667"/>
			<point x="689.667" y="432.667" type="curve"/>
			<point x="668.333" y="431.667"/>
			<point x="625.667" y="430.667"/>
			<point x="599.667" y="430.667" type="curve" smooth="yes"/>
			<point x="563.667" y="430.667"/>
			<point x="525.333" y="431.667"/>
			<point x="500.667" y="432.667" type="curve"/>
			<point x="494.667" y="426.667"/>
			<point x="494.667" y="405"/>
			<point x="500.667" y="399" type="curve"/>
			<point x="557.333" y="395.333"/>
			<point x="555.667" y="365"/>
			<point x="533.667" y="322.333" type="curve"/>
			<point x="513.333" y="279"/>
			<point x="486.667" y="239.333"/>
			<point x="452.667" y="193.667" type="curve"/>
			<point x="413.667" y="244.667"/>
			<point x="359.667" y="320.333"/>
			<point x="326.667" y="374.333" type="curve"/>
			<point x="411.667" y="413"/>
			<point x="476.333" y="472"/>
			<point x="476.333" y="544.333" type="curve" smooth="yes"/>
			<point x="476.333" y="598.667"/>
			<point x="423" y="654.333"/>
			<point x="338.333" y="654.333" type="curve" smooth="yes"/>
			<point x="237.667" y="654.333"/>
			<point x="159.667" y="591.333"/>
			<point x="159.667" y="499.667" type="curve" smooth="yes"/>
			<point x="159.667" y="456.333"/>
			<point x="177.667" y="420.667"/>
			<point x="219.333" y="358.667" type="curve"/>
			<point x="86" y="290.667"/>
			<point x="40.3333" y="220.333"/>
		</contour>
		<contour>
			<point x="153" y="165.333" type="curve" smooth="yes"/>
			<point x="153" y="221"/>
			<point x="165.667" y="271"/>
			<point x="240.667" y="324" type="curve"/>
			<point x="261.667" y="287.667"/>
			<point x="339" y="176.333"/>
			<point x="389.333" y="109.333" type="curve"/>
			<point x="352.333" y="59"/>
			<point x="317.667" y="35"/>
			<point x="265.333" y="35" type="curve" smooth="yes"/>
			<point x="199.667" y="35"/>
			<point x="153" y="80.6667"/>
		</contour>
		<contour>
			<point x="304.333" y="411.667" type="curve"/>
			<point x="281" y="445.333"/>
			<point x="255.667" y="499.333"/>
			<point x="255.667" y="530.333" type="curve" smooth="yes"/>
			<point x="255.667" y="583"/>
			<point x="288.667" y="615.333"/>
			<point x="324.667" y="615.333" type="curve" smooth="yes"/>
			<point x="361" y="615.333"/>
			<point x="385.333" y="581.333"/>
			<point x="385.333" y="537.667" type="curve" smooth="yes"/>
			<point x="385.333" y="501"/>
			<point x="353.667" y="447.667"/>
		</contour>
	</outline>
</glyph>
<glyph name="parenright" format="2">
	<unicode hex="0029"/>
	<advance width="309"/>
	<outline>
		<contour>
			<point x="270.667" y="251.333" type="curve" smooth="yes"/>
			<point x="270.667" y="296.333"/>
			<point x="266" y="523.333"/>
			<point x="45.3333" y="714" type="curve"/>
			<point x="38.3831" y="709.475"/>
			<point x="22.3636" y="692.899"/>
			<point x="18.3333" y="687" type="curve"/>
			<point x="50.6667" y="650.333"/>
			<point x="166.333" y="515"/>
			<point x="166.333" y="251.333" type="curve" smooth="yes"/>
			<point x="166.333" y="-12.3333"/>
			<point x="49" y="-147.667"/>
			<point x="18.3333" y="-183" type="curve"/>
			<point x="22.634" y="-190.341"/>
			<point x="36.8413" y="-207.093"/>
			<point x="44" y="-211.667" type="curve"/>
			<point x="171" y="-102.333"/>
			<point x="270.667" y="68"/>
		</contour>
	</outline>
</glyph>
<glyph name="comma" format="2">
	<unicode hex="002C"/>
	<advance width="236"/>
	<outline>
		<contour>
			<point x="109.333" y="116.333" type="curve" smooth="yes"/>
			<point x="81.6667" y="116.333"/>
			<point x="49.6667" y="82.6667"/>
			<point x="49.6667" y="58" type="curve" smooth="yes"/>
			<point x="49.6667" y="32.3333"/>
			<point x="70.3333" y="10"/>
			<point x="88.6667" y="5" type="curve" smooth="yes"/>
			<point x="91.3333" y="4.33333"/>
			<point x="94.3333" y="4"/>
			<point x="97" y="3.33333" type="curve"/>
			<point x="110.333" y="-0.666667"/>
			<point x="125" y="-7.33333"/>
			<point x="126.667" y="-24.3333" type="curve"/>
			<point x="127" y="-25.3333"/>
			<point x="127" y="-26.3333"/>
			<point x="127" y="-27.6667" type="curve" smooth="yes"/>
			<point x="127" y="-52"/>
			<point x="81" y="-114.667"/>
			<point x="33.6667" y="-127" type="curve"/>
			<point x="30.3333" y="-139"/>
			<point x="31.6667" y="-148"/>
			<point x="41.3333" y="-155.667" type="curve"/>
			<point x="76" y="-150"/>
			<point x="115.333" y="-128.333"/>
			<point x="141.333" y="-102.333" type="curve" smooth="yes"/>
			<point x="167.333" y="-76.3333"/>
			<point x="189.333" y="-33.6667"/>
			<point x="189.333" y="1.33333" type="curve" smooth="yes"/>
			<point x="189.333" y="76"/>
			<point x="158.667" y="116.333"/>
		</contour>
	</outline>
</glyph>
<glyph name="period" format="2">
	<unicode hex="002E"/>
	<advance width="236"/>
	<outline>
		<contour>
			<point x="51.6667" y="53" type="curve" smooth="yes"/>
			<point x="51.6667" y="18"/>
			<point x="81" y="-10"/>
			<point x="117.333" y="-10" type="curve" smooth="yes"/>
			<point x="153.667" y="-10"/>
			<point x="184.333" y="19.3333"/>
			<point x="184.333" y="54.3333" type="curve" smooth="yes"/>
			<point x="184.333" y="90"/>
			<point x="155" y="118"/>
			<point x="118.667" y="118" type="curve" smooth="yes"/>
			<point x="82.3333" y="118"/>
			<point x="51.6667" y="88.6667"/>
		</contour>
	</outline>
</glyph>
<glyph name="slash" format="2">
	<unicode hex="002F"/>
	<advance width="318"/>
	<outline>
		<contour>
			<point x="299" y="670" type="line"/>
			<point x="243.333" y="670" type="line"/>
			<point x="6.33333" y="-33.6667" type="line"/>
			<point x="62" y="-33.6667" type="line"/>
		</contour>
	</outline>
</glyph>
<glyph name="zero" format="2">
	<unicode hex="0030"/>
	<advance width="498"/>
	<outline>
		<contour>
			<point x="246" y="-10" type="curve" smooth="yes"/>
			<point x="373" y="-10"/>
			<point x="463.333" y="120.333"/>
			<point x="463.333" y="305.667" type="curve" smooth="yes"/>
			<point x="463.333" y="487.667"/>
			<point x="378.667" y="610"/>
			<point x="250.667" y="610" type="curve" smooth="yes"/>
			<point x="122" y="610"/>
			<point x="33" y="481.333"/>
			<point x="33" y="296.667" type="curve" smooth="yes"/>
			<point x="33" y="118.333"/>
			<point x="122" y="-10"/>
		</contour>
		<contour>
			<point x="250.667" y="570.333" type="curve" smooth="yes"/>
			<point x="304.333" y="570.333"/>
			<point x="339.667" y="472.667"/>
			<point x="339.667" y="325.333" type="curve" smooth="yes"/>
			<point x="339.667" y="136.667"/>
			<point x="306" y="29.6667"/>
			<point x="247" y="29.6667" type="curve" smooth="yes"/>
			<point x="189" y="29.6667"/>
			<point x="157.333" y="120.333"/>
			<point x="157.333" y="285.667" type="curve" smooth="yes"/>
			<point x="157.333" y="471.333"/>
			<point x="189.667" y="570.333"/>
		</contour>
	</outline>
</glyph>
<glyph name="one" format="2">
	<unicode hex="0031"/>
	<advance width="498"/>
	<outline>
		<contour>
			<point x="340.667" y="122" type="curve" smooth="yes"/>
			<point x="340.667" y="478.333" type="line" smooth="yes"/>
			<point x="340.667" y="533.667"/>
			<point x="346.333" y="592"/>
			<point x="347" y="596.333" type="curve"/>
			<point x="347" y="606.667"/>
			<point x="341" y="609.333"/>
			<point x="333.667" y="609.333" type="curve"/>
			<point x="323.333" y="607"/>
			<point x="308.333" y="602.333"/>
			<point x="289.333" y="592.667" type="curve" smooth="yes"/>
			<point x="233.667" y="565.667"/>
			<point x="172.333" y="542.333"/>
			<point x="91" y="507.333" type="curve"/>
			<point x="92.3333" y="492.333"/>
			<point x="98.3333" y="478.333"/>
			<point x="110.667" y="469.667" type="curve"/>
			<point x="162" y="491.333"/>
			<point x="193.333" y="494.667"/>
			<point x="209" y="494.667" type="curve" smooth="yes"/>
			<point x="223.333" y="494.667"/>
			<point x="228.333" y="484"/>
			<point x="228.333" y="439.333" type="curve" smooth="yes"/>
			<point x="228.333" y="122" type="line" smooth="yes"/>
			<point x="228.333" y="39"/>
			<point x="187.333" y="34.6667"/>
			<point x="127.333" y="31.6667" type="curve"/>
			<point x="118.667" y="25.6667"/>
			<point x="118.667" y="4"/>
			<point x="127.333" y="-2" type="curve"/>
			<point x="198.333" y="-1"/>
			<point x="241.667" y="0"/>
			<point x="286.333" y="0" type="curve" smooth="yes"/>
			<point x="329" y="0"/>
			<point x="367" y="-1"/>
			<point x="438.333" y="-2" type="curve"/>
			<point x="447" y="4"/>
			<point x="447" y="25.6667"/>
			<point x="438.333" y="31.6667" type="curve"/>
			<point x="378.333" y="34.6667"/>
			<point x="340.667" y="39"/>
		</contour>
	</outline>
</glyph>
<glyph name="three" format="2">
	<unicode hex="0033"/>
	<advance width="498"/>
	<outline>
		<contour>
			<point x="237" y="570.333" type="curve" smooth="yes"/>
			<point x="279.333" y="570.333"/>
			<point x="306.667" y="545.667"/>
			<point x="306.667" y="493" type="curve" smooth="yes"/>
			<point x="306.667" y="425.667"/>
			<point x="246.667" y="359.333"/>
			<point x="152.333" y="340.667" type="curve"/>
			<point x="158.667" y="303.333" type="line"/>
			<point x="178.333" y="308"/>
			<point x="192.333" y="309.333"/>
			<point x="206.667" y="309.333" type="curve" smooth="yes"/>
			<point x="260.333" y="309.333"/>
			<point name=".hr01" x="333.667" y="294"/>
			<point x="333.667" y="176.333" type="curve" smooth="yes"/>
			<point x="333.667" y="55.3333"/>
			<point x="258.667" y="29.6667"/>
			<point x="222.333" y="29.6667" type="curve" smooth="yes"/>
			<point x="179.333" y="29.6667"/>
			<point x="162.333" y="54"/>
			<point x="149.667" y="71.3333" type="curve" smooth="yes"/>
			<point x="139" y="86"/>
			<point x="123.333" y="104.667"/>
			<point x="92" y="104.667" type="curve" smooth="yes"/>
			<point x="64.3333" y="104.667"/>
			<point x="45.3333" y="81"/>
			<point x="45.3333" y="64.3333" type="curve" smooth="yes"/>
			<point x="45.3333" y="37"/>
			<point x="80.6667" y="18"/>
			<point x="115.333" y="10.6667" type="curve" smooth="yes"/>
			<point x="179" y="-1.33333"/>
			<point x="249.667" y="15.6667"/>
			<point x="282.333" y="59.6667" type="curve"/>
			<point x="361" y="96"/>
			<point x="421.667" y="171"/>
			<point x="402" y="267" type="curve"/>
			<point x="402" y="315"/>
			<point x="370.333" y="357.667"/>
			<point x="314.333" y="361.667" type="curve"/>
			<point x="371" y="389.333"/>
			<point name=".hr02" x="411.333" y="438.333"/>
			<point x="411.333" y="496.667" type="curve" smooth="yes"/>
			<point x="411.333" y="536"/>
			<point x="393" y="588.667"/>
			<point x="293" y="597" type="curve" smooth="yes"/>
			<point x="216.333" y="604.333"/>
			<point x="176.667" y="586.667"/>
			<point x="138" y="567.333" type="curve"/>
			<point x="74.3333" y="554"/>
			<point x="56.3333" y="504"/>
			<point x="56.3333" y="484.333" type="curve" smooth="yes"/>
			<point x="56.3333" y="470.333"/>
			<point x="63" y="448.333"/>
			<point x="93" y="448.333" type="curve" smooth="yes"/>
			<point x="134" y="448.333"/>
			<point x="143.333" y="474.667"/>
			<point x="147.333" y="502.333" type="curve" smooth="yes"/>
			<point x="154.667" y="564.333"/>
			<point x="205.667" y="570.333"/>
		</contour>
	</outline>
</glyph>
<glyph name="seven" format="2">
	<unicode hex="0037"/>
	<advance width="498"/>
	<outline>
		<contour>
			<point x="179.333" y="510.333" type="curve" smooth="yes"/>
			<point x="369" y="510.333" type="line"/>
			<point x="299" y="355"/>
			<point x="196.667" y="144.667"/>
			<point x="122" y="-2" type="curve"/>
			<point x="128.667" y="-12.3333" type="line"/>
			<point x="219.333" y="-4.66667" type="line"/>
			<point x="283" y="166"/>
			<point x="337.333" y="321.333"/>
			<point x="460.667" y="593.667" type="curve"/>
			<point x="451.333" y="603.667" type="line"/>
			<point x="427" y="602"/>
			<point x="401" y="600"/>
			<point x="369.667" y="600" type="curve" smooth="yes"/>
			<point x="133.667" y="600" type="line" smooth="yes"/>
			<point x="99.6667" y="600"/>
			<point x="99" y="610"/>
			<point x="81" y="614" type="curve"/>
			<point x="78" y="614"/>
			<point x="77" y="614"/>
			<point x="77" y="611" type="curve"/>
			<point x="76" y="563"/>
			<point x="65" y="478.333"/>
			<point x="57" y="426.333" type="curve"/>
			<point x="69.3333" y="422.667"/>
			<point x="79.3333" y="421.667"/>
			<point x="91" y="423.333" type="curve"/>
			<point x="113" y="503.333"/>
			<point x="146.667" y="510.333"/>
		</contour>
	</outline>
</glyph>
<glyph name="semicolon" format="2">
	<unicode hex="003B"/>
	<advance width="249"/>
	<outline>
		<contour>
			<point x="123" y="116.333" type="curve" smooth="yes"/>
			<point x="95.3333" y="116.333"/>
			<point x="63.3333" y="82.6667"/>
			<point x="63.3333" y="58" type="curve" smooth="yes"/>
			<point x="63.3333" y="32.3333"/>
			<point x="84" y="10"/>
			<point x="102.333" y="5" type="curve" smooth="yes"/>
			<point x="105" y="4.33333"/>
			<point x="108" y="4"/>
			<point x="110.667" y="3.33333" type="curve"/>
			<point x="124" y="-0.666667"/>
			<point x="138.667" y="-7.33333"/>
			<point name=".hr01" x="140.333" y="-24.3333" type="curve"/>
			<point x="140.667" y="-25.3333"/>
			<point x="140.667" y="-26.3333"/>
			<point x="140.667" y="-27.6667" type="curve" smooth="yes"/>
			<point x="140.667" y="-52"/>
			<point x="94.6667" y="-114.667"/>
			<point x="47.3333" y="-127" type="curve"/>
			<point x="44" y="-139"/>
			<point x="45.3333" y="-148"/>
			<point x="55" y="-155.667" type="curve"/>
			<point x="89.6667" y="-150"/>
			<point x="129" y="-128.333"/>
			<point x="155" y="-102.333" type="curve" smooth="yes"/>
			<point x="181" y="-76.3333"/>
			<point x="203" y="-33.6667"/>
			<point x="203" y="1.33333" type="curve" smooth="yes"/>
			<point x="203" y="76"/>
			<point x="172.333" y="116.333"/>
		</contour>
		<contour>
			<point x="63.3333" y="360.333" type="curve" smooth="yes"/>
			<point name=".hr02" x="63.3333" y="325.333"/>
			<point x="92.6667" y="297.333"/>
			<point x="129" y="297.333" type="curve" smooth="yes"/>
			<point x="165.333" y="297.333"/>
			<point x="196" y="326.667"/>
			<point x="196" y="361.667" type="curve" smooth="yes"/>
			<point x="196" y="397.333"/>
			<point x="166.667" y="425.333"/>
			<point x="130.333" y="425.333" type="curve" smooth="yes"/>
			<point x="94" y="425.333"/>
			<point x="63.3333" y="396"/>
		</contour>
	</outline>
</glyph>
<glyph name="less" format="2">
	<unicode hex="003C"/>
	<advance width="525"/>
	<outline>
		<contour>
			<point x="148" y="239.667" type="line"/>
			<point x="465.667" y="355.333" type="line"/>
			<point x="470" y="366.906"/>
			<point x="470.333" y="405.828"/>
			<point x="465.667" y="413.333" type="curve"/>
			<point x="49.6667" y="262.333" type="line"/>
			<point x="46.6667" y="251.065"/>
			<point x="46.6667" y="227.094"/>
			<point x="49.6667" y="217" type="curve"/>
			<point x="465.667" y="65.6667" type="line"/>
			<point x="470.333" y="73.1722"/>
			<point x="470" y="112.094"/>
			<point x="465.667" y="123.667" type="curve"/>
		</contour>
	</outline>
</glyph>
<glyph name="question" format="2">
	<unicode hex="003F"/>
	<advance width="432"/>
	<outline>
		<contour>
			<point x="122.667" y="570.667" type="curve" smooth="yes"/>
			<point x="122.667" y="599.333"/>
			<point x="159.333" y="623.333"/>
			<point x="207.667" y="623.333" type="curve" smooth="yes"/>
			<point x="262.667" y="623.333"/>
			<point x="290.667" y="572.333"/>
			<point x="292.333" y="514" type="curve"/>
			<point x="292.667" y="512.333"/>
			<point x="292.667" y="511"/>
			<point x="292.667" y="509.333" type="curve" smooth="yes"/>
			<point x="292.667" y="463.667"/>
			<point x="277" y="431.333"/>
			<point x="244.333" y="399" type="curve"/>
			<point x="240.667" y="395.667"/>
			<point x="237.333" y="392.333"/>
			<point x="233.333" y="388.667" type="curve" smooth="yes"/>
			<point x="168.333" y="327.333"/>
			<point x="167" y="271.333"/>
			<point x="167" y="230.667" type="curve" smooth="yes"/>
			<point x="167" y="213" type="line" smooth="yes"/>
			<point x="167" y="203"/>
			<point x="168.333" y="195.333"/>
			<point x="171" y="188.667" type="curve"/>
			<point x="174.333" y="182.333"/>
			<point x="182.333" y="179.333"/>
			<point x="193.667" y="179.333" type="curve" smooth="yes"/>
			<point x="207.667" y="179.333"/>
			<point x="216.667" y="182.333"/>
			<point x="219.333" y="190" type="curve"/>
			<point x="220.667" y="196.333"/>
			<point x="221.333" y="203.667"/>
			<point x="221.333" y="212.667" type="curve" smooth="yes"/>
			<point x="221.333" y="228.667" type="line" smooth="yes"/>
			<point x="221.333" y="258.667"/>
			<point x="226.333" y="282"/>
			<point x="238" y="302.333" type="curve" smooth="yes"/>
			<point x="249" y="322"/>
			<point x="267.667" y="336"/>
			<point x="285.333" y="349" type="curve" smooth="yes"/>
			<point x="334.333" y="385"/>
			<point x="397" y="430.333"/>
			<point x="397" y="506" type="curve" smooth="yes"/>
			<point x="397" y="597.667"/>
			<point x="327.667" y="658.333"/>
			<point x="217.667" y="658.333" type="curve" smooth="yes"/>
			<point x="159.333" y="658.333"/>
			<point x="114.667" y="644.333"/>
			<point x="85" y="619.333" type="curve" smooth="yes"/>
			<point x="52.3333" y="592.667"/>
			<point x="32.6667" y="568"/>
			<point x="32.6667" y="532" type="curve" smooth="yes"/>
			<point x="32.6667" y="498.333"/>
			<point x="57" y="483"/>
			<point x="77" y="479.667" type="curve"/>
			<point x="79.6667" y="479"/>
			<point x="82.3333" y="479"/>
			<point x="84.3333" y="479" type="curve" smooth="yes"/>
			<point x="110.667" y="479"/>
			<point name=".hr01" x="132.667" y="493.667"/>
			<point x="132.667" y="518" type="curve" smooth="yes"/>
			<point x="132.667" y="531.667"/>
			<point x="130.667" y="539"/>
			<point name=".hr02" x="128" y="545.333" type="curve"/>
			<point x="124.667" y="552.333"/>
			<point x="122.667" y="559"/>
		</contour>
		<contour>
			<point x="128.667" y="53" type="curve" smooth="yes"/>
			<point x="128.667" y="18"/>
			<point x="158" y="-10"/>
			<point x="194.333" y="-10" type="curve" smooth="yes"/>
			<point x="230.667" y="-10"/>
			<point x="261.333" y="19.3333"/>
			<point x="261.333" y="54.3333" type="curve" smooth="yes"/>
			<point x="261.333" y="90"/>
			<point x="232" y="118"/>
			<point x="195.667" y="118" type="curve" smooth="yes"/>
			<point x="159.333" y="118"/>
			<point x="128.667" y="88.6667"/>
		</contour>
	</outline>
</glyph>
<glyph name="at" format="2">
	<unicode hex="0040"/>
	<advance width="957"/>
	<outline>
		<contour>
			<point x="621" y="78" type="curve" smooth="yes"/>
			<point x="621" y="87.6667"/>
			<point x="628" y="118"/>
			<point x="634" y="144.333" type="curve" smooth="yes"/>
			<point x="693.333" y="399" type="line"/>
			<point x="679.667" y="404.667" type="line"/>
			<point x="652.667" y="403.667" type="line"/>
			<point x="626.333" y="373.667" type="line"/>
			<point x="611.667" y="396.333"/>
			<point x="581" y="413.333"/>
			<point x="538" y="413.333" type="curve" smooth="yes"/>
			<point x="426" y="413.333"/>
			<point x="289" y="289.333"/>
			<point x="289" y="156.333" type="curve" smooth="yes"/>
			<point x="289" y="125.667"/>
			<point x="297.667" y="86.6667"/>
			<point x="323" y="61.3333" type="curve" smooth="yes"/>
			<point x="343.667" y="40"/>
			<point x="373.667" y="27"/>
			<point x="421" y="27" type="curve" smooth="yes"/>
			<point x="448.667" y="27"/>
			<point x="499.333" y="48.6667"/>
			<point x="536" y="101.333" type="curve"/>
			<point x="536.667" y="101" type="line"/>
			<point x="534" y="80"/>
			<point x="535" y="63"/>
			<point x="545" y="48.6667" type="curve"/>
			<point x="551" y="38"/>
			<point x="564.667" y="27"/>
			<point name=".hr01" x="587.667" y="25.6667" type="curve" smooth="yes"/>
			<point x="600.333" y="25"/>
			<point x="611.667" y="25.3333"/>
			<point x="623.667" y="25.6667" type="curve" smooth="yes"/>
			<point x="774.333" y="31.6667"/>
			<point x="873" y="156.667"/>
			<point x="873" y="285.333" type="curve" smooth="yes"/>
			<point x="873" y="473.667"/>
			<point x="720.667" y="617.667"/>
			<point x="498.333" y="617.667" type="curve" smooth="yes"/>
			<point x="254.667" y="617.667"/>
			<point x="81" y="431.333"/>
			<point x="81" y="221.667" type="curve" smooth="yes"/>
			<point x="81" y="-1.33333"/>
			<point x="248.333" y="-159.333"/>
			<point x="486" y="-159.333" type="curve" smooth="yes"/>
			<point x="605.667" y="-159.333"/>
			<point x="667.667" y="-123.667"/>
			<point x="730.333" y="-75.6667" type="curve"/>
			<point x="712" y="-50.3333" type="line"/>
			<point x="652.667" y="-98.6667"/>
			<point x="584.667" y="-122.333"/>
			<point x="505" y="-122.333" type="curve" smooth="yes"/>
			<point x="256.333" y="-122.333"/>
			<point x="170.333" y="83.6667"/>
			<point x="170.333" y="232.333" type="curve" smooth="yes"/>
			<point x="170.333" y="465.333"/>
			<point x="335" y="582.667"/>
			<point x="489" y="582.667" type="curve" smooth="yes"/>
			<point x="608.667" y="582.667"/>
			<point x="789.667" y="489.667"/>
			<point x="789.667" y="273.667" type="curve" smooth="yes"/>
			<point x="789.667" y="122.333"/>
			<point x="695.333" y="64.6667"/>
			<point x="636.667" y="64.6667" type="curve" smooth="yes"/>
			<point x="628.667" y="64.6667"/>
			<point x="621" y="66"/>
		</contour>
		<contour>
			<point x="580.333" y="318.667" type="curve" smooth="yes"/>
			<point x="580.333" y="292.667"/>
			<point x="564.667" y="237"/>
			<point x="553" y="202.667" type="curve"/>
			<point x="551.667" y="198"/>
			<point x="550" y="193.667"/>
			<point x="548.667" y="189.667" type="curve" smooth="yes"/>
			<point x="520.333" y="111"/>
			<point x="485.333" y="71.3333"/>
			<point name=".hr02" x="454.667" y="71.3333" type="curve" smooth="yes"/>
			<point x="402.333" y="71.3333"/>
			<point x="391.333" y="116"/>
			<point x="391.333" y="163.333" type="curve" smooth="yes"/>
			<point x="391.333" y="223.333"/>
			<point x="407" y="286"/>
			<point x="449.333" y="334.333" type="curve" smooth="yes"/>
			<point x="452.667" y="338.333"/>
			<point x="456.333" y="342.333"/>
			<point x="460" y="345.667" type="curve"/>
			<point x="486" y="370.667"/>
			<point x="512.333" y="378.333"/>
			<point x="528.667" y="379.667" type="curve" smooth="yes"/>
			<point x="536.667" y="380.333"/>
			<point x="543.333" y="379.667"/>
			<point x="549" y="378.333" type="curve"/>
			<point x="572.667" y="375.333"/>
			<point x="580.333" y="351"/>
		</contour>
	</outline>
</glyph>
<glyph name="E" format="2">
	<unicode hex="0045"/>
	<advance width="592"/>
	<outline>
		<contour>
			<point x="309" y="363.667" type="curve" smooth="yes"/>
			<point x="224.667" y="363.667" type="line"/>
			<point x="224.667" y="549.667" type="line" smooth="yes"/>
			<point x="224.667" y="580.333"/>
			<point x="240" y="603.667"/>
			<point x="274" y="603.667" type="curve" smooth="yes"/>
			<point x="355.667" y="603.667" type="line" smooth="yes"/>
			<point x="430.667" y="603.667"/>
			<point x="450" y="565"/>
			<point x="472" y="496" type="curve"/>
			<point x="484" y="494"/>
			<point x="501.667" y="496"/>
			<point x="511.667" y="501" type="curve"/>
			<point x="506.667" y="542"/>
			<point x="498.333" y="638"/>
			<point x="496.333" y="646" type="curve"/>
			<point x="496.333" y="648"/>
			<point x="495.333" y="649"/>
			<point x="492.333" y="649" type="curve"/>
			<point x="475.333" y="646"/>
			<point x="467.333" y="645"/>
			<point x="443.333" y="645" type="curve" smooth="yes"/>
			<point x="161.667" y="645" type="line" smooth="yes"/>
			<point x="151.667" y="645"/>
			<point x="62.6667" y="646"/>
			<point x="16" y="647" type="curve"/>
			<point x="10" y="641"/>
			<point x="10" y="619.333"/>
			<point x="16" y="613.333" type="curve"/>
			<point x="86" y="610.333"/>
			<point x="103" y="605.333"/>
			<point x="103" y="522.333" type="curve" smooth="yes"/>
			<point x="103" y="122" type="line" smooth="yes"/>
			<point x="103" y="39"/>
			<point x="86" y="34.6667"/>
			<point x="16" y="31.6667" type="curve"/>
			<point x="10" y="25.6667"/>
			<point x="10" y="4"/>
			<point x="16" y="-2" type="curve"/>
			<point x="61" y="-1"/>
			<point x="151.667" y="0"/>
			<point x="162.667" y="0" type="curve" smooth="yes"/>
			<point x="391" y="0" type="line" smooth="yes"/>
			<point x="439" y="0"/>
			<point x="525.667" y="-2"/>
			<point x="525.667" y="-2" type="curve"/>
			<point x="539.667" y="48"/>
			<point x="548" y="114"/>
			<point x="556" y="165" type="curve"/>
			<point x="546" y="171"/>
			<point x="527.333" y="173"/>
			<point x="514.333" y="170" type="curve"/>
			<point x="494.333" y="98"/>
			<point x="452.667" y="41"/>
			<point x="376.667" y="41" type="curve" smooth="yes"/>
			<point x="270.667" y="41" type="line" smooth="yes"/>
			<point x="242" y="41"/>
			<point x="224.667" y="60.3333"/>
			<point x="224.667" y="94" type="curve" smooth="yes"/>
			<point x="224.667" y="320.333" type="line"/>
			<point x="309" y="320.333" type="line" smooth="yes"/>
			<point x="383.333" y="320.333"/>
			<point x="397" y="300"/>
			<point x="400" y="255" type="curve"/>
			<point x="406" y="249"/>
			<point x="433.667" y="249"/>
			<point x="439.667" y="255" type="curve"/>
			<point x="438.667" y="287"/>
			<point x="437.667" y="309"/>
			<point x="437.667" y="343" type="curve" smooth="yes"/>
			<point x="437.667" y="375"/>
			<point x="438.667" y="401"/>
			<point x="439.667" y="429" type="curve"/>
			<point x="433.667" y="435"/>
			<point x="406" y="435"/>
			<point x="400" y="429" type="curve"/>
			<point x="397" y="374"/>
			<point x="382" y="363.667"/>
		</contour>
	</outline>
	<anchor name="t.uni0302" x="279" y="740"/>
	<anchor name="m.uni0316_2" x="285" y="-110"/>
	<anchor name="m.uni031A_3" x="525" y="732"/>
</glyph>
<glyph name="F" format="2">
	<unicode hex="0046"/>
	<advance width="525"/>
	<outline>
		<contour>
			<point x="18.6667" y="-2" type="curve"/>
			<point x="57" y="-1"/>
			<point x="123" y="0"/>
			<point x="164.667" y="0" type="curve" smooth="yes"/>
			<point x="206.333" y="0"/>
			<point x="277.333" y="-1"/>
			<point x="315.667" y="-2" type="curve"/>
			<point x="324.333" y="4"/>
			<point x="324.333" y="25.6667"/>
			<point x="315.667" y="31.6667" type="curve"/>
			<point x="255.667" y="34.6667"/>
			<point x="224.667" y="39"/>
			<point x="224.667" y="122" type="curve" smooth="yes"/>
			<point x="224.667" y="307" type="line"/>
			<point x="309.667" y="307" type="line" smooth="yes"/>
			<point x="384" y="307"/>
			<point x="397.667" y="286.667"/>
			<point x="400.667" y="241.667" type="curve"/>
			<point x="406.667" y="235.667"/>
			<point x="434.333" y="235.667"/>
			<point x="440.333" y="241.667" type="curve"/>
			<point x="438.667" y="273.333"/>
			<point x="438.333" y="303"/>
			<point x="438.333" y="329.667" type="curve" smooth="yes"/>
			<point x="438.333" y="356.333"/>
			<point x="439.333" y="387.667"/>
			<point x="440.333" y="415.667" type="curve"/>
			<point x="434.333" y="421.667"/>
			<point x="406.667" y="421.667"/>
			<point x="400.667" y="415.667" type="curve"/>
			<point x="397.667" y="360.667"/>
			<point x="382.667" y="350.333"/>
			<point x="309.667" y="350.333" type="curve" smooth="yes"/>
			<point x="224.667" y="350.333" type="line"/>
			<point x="224.667" y="549.667" type="line" smooth="yes"/>
			<point x="224.667" y="583.667"/>
			<point x="240" y="603.667"/>
			<point x="270.667" y="603.667" type="curve" smooth="yes"/>
			<point x="345.667" y="603.667" type="line" smooth="yes"/>
			<point x="431" y="603.667"/>
			<point x="456.667" y="561.667"/>
			<point x="478.667" y="492.667" type="curve"/>
			<point x="490.667" y="491.333"/>
			<point x="503" y="493.333"/>
			<point x="512.333" y="497.667" type="curve"/>
			<point x="508.667" y="540.667"/>
			<point x="498.333" y="638"/>
			<point x="497" y="646" type="curve"/>
			<point x="497" y="648"/>
			<point x="496" y="649"/>
			<point x="493" y="649" type="curve"/>
			<point x="476" y="646"/>
			<point x="469" y="645"/>
			<point x="444.667" y="645" type="curve" smooth="yes"/>
			<point x="161.667" y="645" type="line" smooth="yes"/>
			<point x="151" y="645"/>
			<point x="62.6667" y="646"/>
			<point x="16" y="647" type="curve"/>
			<point x="10" y="641"/>
			<point x="10" y="619.333"/>
			<point x="16" y="613.333" type="curve"/>
			<point x="86" y="610.333"/>
			<point x="103" y="605.333"/>
			<point x="103" y="522.333" type="curve" smooth="yes"/>
			<point x="103" y="122" type="line" smooth="yes"/>
			<point x="103" y="39"/>
			<point x="78.6667" y="34.6667"/>
			<point x="18.6667" y="31.6667" type="curve"/>
			<point x="10" y="25.6667"/>
			<point x="10" y="4"/>
		</contour>
	</outline>
	<anchor name="m.uni0302" x="282" y="850"/>
	<anchor name="m.uni0316_2" x="207" y="-110"/>
	<anchor name="m.uni031A_3" x="505" y="732"/>
	<anchor name="t.uni0302" x="258.667" y="740"/>
</glyph>
<glyph name="I" format="2">
	<unicode hex="0049"/>
	<advance width="344"/>
	<outline>
		<contour>
			<point x="27" y="-2" type="curve"/>
			<point x="68.6667" y="-1"/>
			<point x="134.333" y="0"/>
			<point x="173" y="0" type="curve" smooth="yes"/>
			<point x="211.667" y="0"/>
			<point x="275.667" y="-1"/>
			<point x="317.333" y="-2" type="curve"/>
			<point x="326" y="4"/>
			<point x="326" y="25.6667"/>
			<point x="317.333" y="31.6667" type="curve"/>
			<point x="257.333" y="34.6667"/>
			<point x="233" y="39"/>
			<point x="233" y="122" type="curve" smooth="yes"/>
			<point x="233" y="523" type="line" smooth="yes"/>
			<point x="233" y="606"/>
			<point x="257.333" y="610.333"/>
			<point x="317.333" y="613.333" type="curve"/>
			<point x="326" y="619.333"/>
			<point x="326" y="641"/>
			<point x="317.333" y="647" type="curve"/>
			<point x="276" y="646"/>
			<point x="212.333" y="645"/>
			<point x="172.667" y="645" type="curve" smooth="yes"/>
			<point x="135" y="645"/>
			<point x="69.3333" y="646"/>
			<point x="27" y="647" type="curve"/>
			<point x="18.3333" y="641"/>
			<point x="18.3333" y="619.333"/>
			<point x="27" y="613.333" type="curve"/>
			<point x="87" y="610.333"/>
			<point x="111.333" y="606"/>
			<point x="111.333" y="523" type="curve" smooth="yes"/>
			<point x="111.333" y="122" type="line" smooth="yes"/>
			<point x="111.333" y="39"/>
			<point x="87" y="34.6667"/>
			<point x="27" y="31.6667" type="curve"/>
			<point x="18.3333" y="25.6667"/>
			<point x="18.3333" y="4"/>
		</contour>
	</outline>
	<anchor name="t.uni0302" x="172.667" y="740"/>
	<anchor name="m.uni0316_2" x="147" y="-110"/>
</glyph>
<glyph name="K" format="2">
	<unicode hex="004B"/>
	<advance width="703"/>
	<outline>
		<contour>
			<point x="23" y="-2" type="curve"/>
			<point x="64.6667" y="-1"/>
			<point x="129.333" y="0"/>
			<point x="169" y="0" type="curve" smooth="yes"/>
			<point x="208.333" y="0"/>
			<point x="271.667" y="-1"/>
			<point x="313.333" y="-2" type="curve"/>
			<point x="322" y="4"/>
			<point x="322" y="25.6667"/>
			<point x="313.333" y="31.6667" type="curve"/>
			<point x="253.333" y="34.6667"/>
			<point x="229" y="39"/>
			<point x="229" y="122" type="curve" smooth="yes"/>
			<point x="229" y="523" type="line" smooth="yes"/>
			<point x="229" y="606"/>
			<point x="253.333" y="610.333"/>
			<point x="313.333" y="613.333" type="curve"/>
			<point x="322" y="619.333"/>
			<point x="322" y="641"/>
			<point x="313.333" y="647" type="curve"/>
			<point x="271.333" y="646"/>
			<point x="207.667" y="645"/>
			<point x="168.667" y="645" type="curve" smooth="yes"/>
			<point x="129.333" y="645"/>
			<point x="64.6667" y="646"/>
			<point x="23" y="647" type="curve"/>
			<point x="14.3333" y="641"/>
			<point x="14.3333" y="619.333"/>
			<point x="23" y="613.333" type="curve"/>
			<point x="83" y="610.333"/>
			<point x="107.333" y="606"/>
			<point x="107.333" y="523" type="curve" smooth="yes"/>
			<point x="107.333" y="122" type="line" smooth="yes"/>
			<point x="107.333" y="39"/>
			<point x="83" y="34.6667"/>
			<point x="23" y="31.6667" type="curve"/>
			<point x="14.3333" y="25.6667"/>
			<point x="14.3333" y="4"/>
		</contour>
		<contour>
			<point x="214" y="317" type="line"/>
			<point x="248.333" y="317"/>
			<point x="276" y="302.333"/>
			<point x="300" y="271" type="curve" smooth="yes"/>
			<point x="453" y="73.6667" type="line" smooth="yes"/>
			<point x="473" y="47.6667"/>
			<point x="487" y="20"/>
			<point x="489" y="4" type="curve"/>
			<point x="489" y="1"/>
			<point x="490" y="-2"/>
			<point x="494" y="-2" type="curve"/>
			<point x="514" y="-1"/>
			<point x="553.667" y="0"/>
			<point x="580.667" y="0" type="curve" smooth="yes"/>
			<point x="618" y="0"/>
			<point x="656" y="-1"/>
			<point x="693" y="-2" type="curve"/>
			<point x="699" y="4"/>
			<point x="699" y="25.6667"/>
			<point x="693" y="31.6667" type="curve"/>
			<point x="663.333" y="35.3333"/>
			<point x="639.333" y="41.6667"/>
			<point x="611.667" y="73.6667" type="curve" smooth="yes"/>
			<point x="392.667" y="333" type="line" smooth="yes"/>
			<point x="378.667" y="349.333"/>
			<point x="368.333" y="363.333"/>
			<point x="368.333" y="371.333" type="curve" smooth="yes"/>
			<point x="368.333" y="378.333"/>
			<point x="369.333" y="388.667"/>
			<point x="388" y="407" type="curve" smooth="yes"/>
			<point x="509.667" y="522" type="line" smooth="yes"/>
			<point x="564.333" y="573"/>
			<point x="615" y="607"/>
			<point x="667.667" y="613.333" type="curve"/>
			<point x="673.667" y="619.333"/>
			<point x="673.667" y="641"/>
			<point x="667.667" y="647" type="curve"/>
			<point x="640.667" y="646"/>
			<point x="606.667" y="645"/>
			<point x="572.667" y="645" type="curve" smooth="yes"/>
			<point x="533.667" y="645"/>
			<point x="490.667" y="646"/>
			<point x="453" y="647" type="curve"/>
			<point x="447" y="641"/>
			<point x="447" y="619.333"/>
			<point x="453" y="613.333" type="curve"/>
			<point x="504.333" y="608.333"/>
			<point x="513" y="586.333"/>
			<point x="465.667" y="537.333" type="curve" smooth="yes"/>
			<point x="436.443" y="506.872"/>
			<point x="339.333" y="415.333"/>
			<point x="339.333" y="415.333" type="curve"/>
			<point x="284.667" y="364.333"/>
			<point x="247" y="341.333"/>
			<point x="214" y="341.333" type="curve"/>
		</contour>
	</outline>
	<anchor name="m.uni0302" x="332" y="850"/>
	<anchor name="m.uni0316_2" x="338" y="-110"/>
	<anchor name="m.uni031A_3" x="645" y="732"/>
	<anchor name="t.uni0302" x="340.333" y="740"/>
</glyph>
<glyph name="L" format="2">
	<unicode hex="004C"/>
	<advance width="561"/>
	<outline>
		<contour>
			<point x="27" y="-2" type="curve"/>
			<point x="48" y="-1.66667"/>
			<point x="135.667" y="0"/>
			<point x="173" y="0" type="curve" smooth="yes"/>
			<point x="392.667" y="0" type="line" smooth="yes"/>
			<point x="421" y="0"/>
			<point x="503.333" y="-2"/>
			<point x="512.333" y="-2" type="curve"/>
			<point x="522.333" y="48"/>
			<point x="532.333" y="113"/>
			<point x="538.333" y="165" type="curve"/>
			<point x="528.333" y="170"/>
			<point x="510.667" y="172"/>
			<point x="498.667" y="170" type="curve"/>
			<point x="478.667" y="98"/>
			<point x="441.667" y="41"/>
			<point x="336.333" y="41" type="curve" smooth="yes"/>
			<point x="275.333" y="41" type="line" smooth="yes"/>
			<point x="248.333" y="41"/>
			<point x="233" y="60"/>
			<point x="233" y="117" type="curve" smooth="yes"/>
			<point x="233" y="523" type="line" smooth="yes"/>
			<point x="233" y="606"/>
			<point x="257.333" y="610.333"/>
			<point x="317.333" y="613.333" type="curve"/>
			<point x="326" y="619.333"/>
			<point x="326" y="641"/>
			<point x="317.333" y="647" type="curve"/>
			<point x="247.667" y="646"/>
			<point x="212" y="645"/>
			<point x="172.667" y="645" type="curve" smooth="yes"/>
			<point x="134" y="645"/>
			<point x="49.6667" y="646.667"/>
			<point x="27" y="647" type="curve"/>
			<point x="18.3333" y="641"/>
			<point x="18.3333" y="619.333"/>
			<point x="27" y="613.333" type="curve"/>
			<point x="87" y="610.333"/>
			<point x="111.333" y="606"/>
			<point x="111.333" y="523" type="curve" smooth="yes"/>
			<point x="111.333" y="122" type="line" smooth="yes"/>
			<point x="111.333" y="39"/>
			<point x="87" y="34.6667"/>
			<point x="27" y="31.6667" type="curve"/>
			<point x="18.3333" y="25.6667"/>
			<point x="18.3333" y="4"/>
		</contour>
	</outline>
	<anchor name="m.uni0302" x="149.667" y="850"/>
	<anchor name="m.uni0316_2" x="260.667" y="-110"/>
	<anchor name="m.uni031A_3" x="469.667" y="732"/>
	<anchor name="t.uni0302" x="168.333" y="740"/>
</glyph>
<glyph name="M" format="2">
	<unicode hex="004D"/>
	<advance width="879"/>
	<outline>
		<contour>
			<point x="663" y="116" type="line" smooth="yes"/>
			<point x="668" y="35"/>
			<point x="664" y="34.6667"/>
			<point x="599" y="31.6667" type="curve"/>
			<point x="593" y="25.6667"/>
			<point x="593" y="4"/>
			<point x="599" y="-2" type="curve"/>
			<point x="642.667" y="-1"/>
			<point x="716" y="0"/>
			<point x="746" y="0" type="curve" smooth="yes"/>
			<point x="776" y="0"/>
			<point x="822" y="-1"/>
			<point x="855" y="-2" type="curve"/>
			<point x="861" y="4"/>
			<point x="861" y="25.6667"/>
			<point x="855" y="31.6667" type="curve"/>
			<point x="787" y="34.6667"/>
			<point x="784" y="38"/>
			<point x="778" y="121" type="curve" smooth="yes"/>
			<point x="748" y="542" type="line" smooth="yes"/>
			<point x="744" y="596"/>
			<point x="749" y="609.333"/>
			<point x="817" y="613.333" type="curve"/>
			<point x="823" y="619.333"/>
			<point x="823" y="641"/>
			<point x="817" y="647" type="curve"/>
			<point x="639.333" y="645" type="line"/>
			<point x="442" y="180" type="line" smooth="yes"/>
			<point x="440" y="175.333"/>
			<point x="438.333" y="172.667"/>
			<point x="437" y="172.667" type="curve" smooth="yes"/>
			<point x="435.667" y="172.667"/>
			<point x="434" y="175.667"/>
			<point x="432.333" y="179.667" type="curve" smooth="yes"/>
			<point x="245.333" y="645" type="line"/>
			<point x="60.3333" y="647" type="line"/>
			<point x="54.3333" y="641"/>
			<point x="54.3333" y="619.333"/>
			<point x="60.3333" y="613.333" type="curve"/>
			<point x="129.333" y="609.333"/>
			<point x="135.333" y="608"/>
			<point x="128.333" y="533" type="curve" smooth="yes"/>
			<point x="88.3333" y="121" type="line" smooth="yes"/>
			<point x="82.3333" y="61"/>
			<point x="70.3333" y="36.6667"/>
			<point x="13.3333" y="31.6667" type="curve"/>
			<point x="7.33333" y="25.6667"/>
			<point x="7.33333" y="4"/>
			<point x="13.3333" y="-2" type="curve"/>
			<point x="43.3333" y="-1"/>
			<point x="75.3333" y="0"/>
			<point x="99.3333" y="0" type="curve" smooth="yes"/>
			<point x="123.333" y="0"/>
			<point x="176.667" y="-1"/>
			<point x="206.667" y="-2" type="curve"/>
			<point x="212.667" y="4"/>
			<point x="212.667" y="25.6667"/>
			<point x="206.667" y="31.6667" type="curve"/>
			<point x="140.667" y="36.6667"/>
			<point x="136.333" y="67"/>
			<point x="140.667" y="123" type="curve" smooth="yes"/>
			<point x="170.667" y="506.667" type="line"/>
			<point x="174" y="506.667" type="line"/>
			<point x="374.333" y="5" type="line" smooth="yes"/>
			<point x="377.333" y="-2"/>
			<point x="386.667" y="-8.66667"/>
			<point x="392.667" y="-8.66667" type="curve" smooth="yes"/>
			<point x="398.667" y="-8.66667"/>
			<point x="406" y="-3.66667"/>
			<point x="410" y="5" type="curve"/>
			<point name=".hr01" x="635" y="534" type="line"/>
			<point x="637" y="534" type="line"/>
		</contour>
	</outline>
	<anchor name="m.uni0302" x="431" y="850"/>
	<anchor name="m.uni0316_2" x="393" y="-110"/>
	<anchor name="t.uni0302" x="407.333" y="740"/>
</glyph>
<glyph name="N" format="2">
	<unicode hex="004E"/>
	<advance width="726"/>
	<outline>
		<contour>
			<point x="21" y="-2" type="curve"/>
			<point x="68" y="-1"/>
			<point x="95.6667" y="0"/>
			<point x="133" y="0" type="curve" smooth="yes"/>
			<point x="170" y="0"/>
			<point x="197.333" y="-1"/>
			<point x="244.667" y="-2" type="curve"/>
			<point x="250.667" y="4"/>
			<point x="250.667" y="25.6667"/>
			<point x="244.667" y="31.6667" type="curve"/>
			<point x="174.667" y="38.6667"/>
			<point x="157.667" y="42"/>
			<point x="157.667" y="133" type="curve" smooth="yes"/>
			<point x="157.667" y="433" type="line" smooth="yes"/>
			<point x="157.667" y="451"/>
			<point x="159" y="462.667"/>
			<point x="165.667" y="462.667" type="curve" smooth="yes"/>
			<point x="171" y="462.667"/>
			<point x="180" y="454.333"/>
			<point x="193" y="438.333" type="curve" smooth="yes"/>
			<point x="532.667" y="26" type="line" smooth="yes"/>
			<point x="550" y="4.33333"/>
			<point x="564" y="-8"/>
			<point x="568.333" y="-11.3333" type="curve"/>
			<point x="596.333" y="-11.3333"/>
			<point x="609.667" y="-8.66667"/>
			<point x="626.667" y="0" type="curve"/>
			<point x="624.333" y="12.6667"/>
			<point x="619" y="66.3333"/>
			<point x="619" y="102.333" type="curve" smooth="yes"/>
			<point x="619" y="222"/>
			<point x="619" y="432"/>
			<point x="619" y="512" type="curve" smooth="yes"/>
			<point x="619" y="601"/>
			<point x="636" y="606.333"/>
			<point x="706" y="613.333" type="curve"/>
			<point x="712" y="619.333"/>
			<point x="712" y="641"/>
			<point x="706" y="647" type="curve"/>
			<point x="659.667" y="646"/>
			<point x="632.667" y="645"/>
			<point x="596.667" y="645" type="curve" smooth="yes"/>
			<point x="559.667" y="645"/>
			<point x="530.333" y="646"/>
			<point x="482.333" y="647" type="curve"/>
			<point x="476.333" y="641"/>
			<point x="476.333" y="619.333"/>
			<point x="482.333" y="613.333" type="curve"/>
			<point x="552.333" y="606.333"/>
			<point x="569.333" y="603"/>
			<point x="569.333" y="512" type="curve" smooth="yes"/>
			<point x="569.333" y="434.667"/>
			<point x="569.333" y="266.667"/>
			<point x="569.333" y="215.667" type="curve" smooth="yes"/>
			<point x="569.333" y="201.333"/>
			<point x="567.333" y="194.333"/>
			<point x="561.667" y="194.333" type="curve" smooth="yes"/>
			<point x="557" y="194.333"/>
			<point x="547.333" y="204.333"/>
			<point x="533" y="222" type="curve" smooth="yes"/>
			<point x="182.667" y="645" type="line"/>
			<point x="29" y="647" type="line"/>
			<point x="23" y="641"/>
			<point x="23" y="619.333"/>
			<point x="29" y="613.333" type="curve"/>
			<point x="72" y="610.333"/>
			<point x="102" y="576"/>
			<point x="108" y="550" type="curve"/>
			<point x="108" y="133" type="line" smooth="yes"/>
			<point x="108" y="44"/>
			<point x="91" y="38.6667"/>
			<point x="21" y="31.6667" type="curve"/>
			<point x="15" y="25.6667"/>
			<point x="15" y="4"/>
		</contour>
	</outline>
	<anchor name="m.uni0302" x="346" y="850"/>
	<anchor name="m.uni0316_2" x="348" y="-110"/>
	<anchor name="t.uni0302" x="340.667" y="740"/>
</glyph>
<glyph name="O" format="2">
	<unicode hex="004F"/>
	<advance width="721"/>
	<outline>
		<contour>
			<point x="684.667" y="329" type="curve" smooth="yes"/>
			<point x="684.667" y="530.667"/>
			<point x="538.333" y="658"/>
			<point x="356.667" y="658" type="curve" smooth="yes"/>
			<point x="160" y="658"/>
			<point x="37" y="500.667"/>
			<point x="37" y="309.333" type="curve" smooth="yes"/>
			<point x="37" y="111.667"/>
			<point x="189.333" y="-10"/>
			<point x="359.333" y="-10" type="curve" smooth="yes"/>
			<point x="559.667" y="-10"/>
			<point x="684.667" y="134.333"/>
		</contour>
		<contour>
			<point x="344.333" y="618" type="curve" smooth="yes"/>
			<point x="459.667" y="618"/>
			<point x="552" y="511.333"/>
			<point x="552" y="308.667" type="curve" smooth="yes"/>
			<point x="552" y="138.333"/>
			<point x="484.667" y="30"/>
			<point x="379.333" y="30" type="curve" smooth="yes"/>
			<point x="265.333" y="30"/>
			<point x="169.667" y="139"/>
			<point x="169.667" y="328.333" type="curve" smooth="yes"/>
			<point x="169.667" y="534.333"/>
			<point x="252" y="618"/>
		</contour>
	</outline>
	<anchor name="t.uni0302" x="335" y="740"/>
	<anchor name="t.uni0315_1" x="620" y="606"/>
	<anchor name="m.uni0316_2" x="350" y="-110"/>
</glyph>
<glyph name="R" format="2">
	<unicode hex="0052"/>
	<advance width="673"/>
	<outline>
		<contour>
			<point x="26.3333" y="-2" type="curve"/>
			<point x="68" y="-1"/>
			<point x="133" y="0"/>
			<point x="172.333" y="0" type="curve" smooth="yes"/>
			<point x="211.667" y="0"/>
			<point x="275.333" y="-1"/>
			<point x="316.667" y="-2" type="curve"/>
			<point x="325.333" y="4"/>
			<point x="325.333" y="25.6667"/>
			<point x="316.667" y="31.6667" type="curve"/>
			<point x="256.667" y="34.6667"/>
			<point x="232.333" y="39"/>
			<point x="232.333" y="122" type="curve" smooth="yes"/>
			<point x="232.333" y="285.667" type="line"/>
			<point x="313" y="285.667"/>
			<point x="325.333" y="276"/>
			<point x="339.333" y="253" type="curve"/>
			<point x="453" y="79" type="line" smooth="yes"/>
			<point x="483.333" y="33.3333"/>
			<point name=".hr01" x="525" y="-10"/>
			<point x="585" y="-10" type="curve" smooth="yes"/>
			<point x="616.667" y="-10"/>
			<point x="657" y="-7.33333"/>
			<point name=".hr02" x="667" y="-2.33333" type="curve"/>
			<point x="671" y="4.66667"/>
			<point x="670" y="20.3333"/>
			<point name=".hr03" x="666" y="28.3333" type="curve"/>
			<point x="621" y="28.3333"/>
			<point x="597.333" y="55.6667"/>
			<point x="570" y="98" type="curve" smooth="yes"/>
			<point x="437.333" y="308" type="line"/>
			<point x="487.667" y="327.333"/>
			<point x="569.667" y="379.333"/>
			<point x="569.667" y="482.333" type="curve" smooth="yes"/>
			<point x="569.667" y="621.667"/>
			<point x="445.667" y="653.333"/>
			<point x="331.667" y="653.333" type="curve" smooth="yes"/>
			<point x="301.333" y="653.333"/>
			<point x="230" y="643.667"/>
			<point x="165.333" y="642.333" type="curve" smooth="yes"/>
			<point x="110.333" y="641"/>
			<point name=".hr04" x="54" y="646.667"/>
			<point x="26.3333" y="647" type="curve"/>
			<point x="17.6667" y="641"/>
			<point x="17.6667" y="619.333"/>
			<point x="26.3333" y="613.333" type="curve"/>
			<point x="86.3333" y="610.333"/>
			<point x="110.667" y="606"/>
			<point x="110.667" y="523" type="curve" smooth="yes"/>
			<point x="110.667" y="122" type="line" smooth="yes"/>
			<point x="110.667" y="39"/>
			<point x="86.3333" y="34.6667"/>
			<point x="26.3333" y="31.6667" type="curve"/>
			<point x="17.6667" y="25.6667"/>
			<point x="17.6667" y="4"/>
		</contour>
		<contour>
			<point x="232.333" y="325" type="line"/>
			<point x="232.333" y="534" type="line" smooth="yes"/>
			<point x="232.333" y="589"/>
			<point x="251.667" y="614.667"/>
			<point name=".hr05" x="310.667" y="614.667" type="curve" smooth="yes"/>
			<point x="369.667" y="614.667"/>
			<point x="438.333" y="591.333"/>
			<point x="438.333" y="470.667" type="curve" smooth="yes"/>
			<point x="438.333" y="347"/>
			<point x="365.333" y="325"/>
			<point x="277" y="325" type="curve" smooth="yes"/>
		</contour>
	</outline>
	<anchor name="m.uni0302" x="302.333" y="850"/>
	<anchor name="m.uni0316_2" x="291.333" y="-110"/>
	<anchor name="m.uni031A_3" x="545.667" y="732"/>
	<anchor name="t.uni0302" x="291.333" y="740"/>
	<guideline x="0" y="816" angle="0"/>
</glyph>
<glyph name="T" format="2">
	<unicode hex="0054"/>
	<advance width="634"/>
	<outline>
		<contour>
			<point x="386.667" y="122.667" type="curve" smooth="yes"/>
			<point x="386.667" y="503.333" type="line" smooth="yes"/>
			<point x="386.667" y="567.333"/>
			<point x="396.667" y="604.667"/>
			<point x="432.667" y="604.667" type="curve" smooth="yes"/>
			<point x="454.667" y="604.667" type="line" smooth="yes"/>
			<point x="529.667" y="604.667"/>
			<point x="573.333" y="579.333"/>
			<point x="590.333" y="502.333" type="curve"/>
			<point x="601.333" y="502.333"/>
			<point x="618.667" y="503.333"/>
			<point x="627.667" y="507.333" type="curve"/>
			<point x="620.667" y="553.333"/>
			<point x="615.667" y="605"/>
			<point x="614.667" y="650" type="curve"/>
			<point x="614.667" y="651"/>
			<point x="612.667" y="653"/>
			<point x="611.667" y="653" type="curve"/>
			<point x="577.667" y="650"/>
			<point x="466.667" y="645"/>
			<point x="387.667" y="645" type="curve" smooth="yes"/>
			<point x="265" y="645" type="line" smooth="yes"/>
			<point x="188" y="645"/>
			<point x="70" y="650"/>
			<point x="32" y="653" type="curve"/>
			<point x="30" y="653"/>
			<point x="28" y="651"/>
			<point x="28" y="650" type="curve"/>
			<point x="24" y="605"/>
			<point x="14" y="552.333"/>
			<point x="3" y="504.333" type="curve"/>
			<point x="13" y="500.333"/>
			<point x="28.3333" y="499.333"/>
			<point x="40.3333" y="499.333" type="curve"/>
			<point x="60.3333" y="579.333"/>
			<point x="103" y="604.667"/>
			<point x="169" y="604.667" type="curve" smooth="yes"/>
			<point x="218" y="604.667" type="line" smooth="yes"/>
			<point x="255" y="604.667"/>
			<point x="265" y="567.333"/>
			<point x="265" y="506.333" type="curve" smooth="yes"/>
			<point x="265" y="122.667" type="line" smooth="yes"/>
			<point x="265" y="39.6667"/>
			<point x="248" y="34.6667"/>
			<point x="168" y="31.6667" type="curve"/>
			<point x="162" y="25.6667"/>
			<point x="162" y="4"/>
			<point x="168" y="-2" type="curve"/>
			<point x="217" y="-1"/>
			<point x="268.667" y="0"/>
			<point x="324.667" y="0" type="curve" smooth="yes"/>
			<point x="381.333" y="0"/>
			<point x="433.667" y="-1"/>
			<point x="483.667" y="-2" type="curve"/>
			<point x="489.667" y="4"/>
			<point x="489.667" y="25.6667"/>
			<point x="483.667" y="31.6667" type="curve"/>
			<point x="403.667" y="34.6667"/>
			<point x="386.667" y="39.6667"/>
		</contour>
	</outline>
	<anchor name="m.uni0302" x="320.333" y="850"/>
	<anchor name="m.uni0316_2" x="326.667" y="-110"/>
	<anchor name="m.uni031A_3" x="619" y="732"/>
	<anchor name="t.uni0302" x="323.333" y="740"/>
</glyph>
<glyph name="U" format="2">
	<unicode hex="0055"/>
	<advance width="708"/>
	<outline>
		<contour>
			<point x="208.667" y="522.333" type="line" smooth="yes"/>
			<point x="208.667" y="605.333"/>
			<point x="223.667" y="610.333"/>
			<point x="300.667" y="613.333" type="curve"/>
			<point x="306.667" y="619.333"/>
			<point x="306.667" y="641"/>
			<point x="300.667" y="647" type="curve"/>
			<point x="252.333" y="646"/>
			<point x="192" y="645"/>
			<point x="147" y="645" type="curve" smooth="yes"/>
			<point x="104" y="645"/>
			<point x="56.3333" y="646"/>
			<point x="10" y="647" type="curve"/>
			<point x="4" y="641"/>
			<point x="4" y="619.333"/>
			<point x="10" y="613.333" type="curve"/>
			<point x="70" y="610.333"/>
			<point x="87" y="605.333"/>
			<point x="87" y="522.333" type="curve" smooth="yes"/>
			<point x="87" y="235" type="line" smooth="yes"/>
			<point x="87" y="35"/>
			<point x="206.333" y="-10"/>
			<point x="357.667" y="-10" type="curve" smooth="yes"/>
			<point x="562.667" y="-10"/>
			<point x="622.333" y="117"/>
			<point x="622.333" y="295" type="curve" smooth="yes"/>
			<point x="622.333" y="522.333" type="line" smooth="yes"/>
			<point x="622.333" y="604.333"/>
			<point x="640" y="607"/>
			<point x="699.333" y="613.333" type="curve"/>
			<point x="705.333" y="619.333"/>
			<point x="705.333" y="641"/>
			<point x="699.333" y="647" type="curve"/>
			<point x="660.667" y="646"/>
			<point x="620.333" y="645"/>
			<point x="594" y="645" type="curve" smooth="yes"/>
			<point x="567.667" y="645"/>
			<point x="516.667" y="646"/>
			<point x="470.667" y="647" type="curve"/>
			<point x="464.667" y="641"/>
			<point x="464.667" y="619.333"/>
			<point x="470.667" y="613.333" type="curve"/>
			<point x="546.333" y="607"/>
			<point x="562.667" y="604.667"/>
			<point x="562.667" y="522.333" type="curve" smooth="yes"/>
			<point x="562.667" y="277" type="line" smooth="yes"/>
			<point x="562.667" y="165"/>
			<point x="547.667" y="31.6667"/>
			<point x="378.667" y="31.6667" type="curve" smooth="yes"/>
			<point x="238.667" y="31.6667"/>
			<point x="208.667" y="152"/>
			<point x="208.667" y="268" type="curve" smooth="yes"/>
		</contour>
	</outline>
	<anchor name="t.uni0302" x="358" y="740"/>
	<anchor name="m.uni0316_2" x="328" y="-110"/>
</glyph>
<glyph name="V" format="2">
	<unicode hex="0056"/>
	<advance width="684"/>
	<outline>
		<contour>
			<point x="307" y="11" type="line" smooth="yes"/>
			<point x="313.667" y="-5.66667"/>
			<point x="324" y="-12"/>
			<point x="336.667" y="-12" type="curve" smooth="yes"/>
			<point x="349.667" y="-12"/>
			<point x="360.667" y="-5.66667"/>
			<point x="367.333" y="11" type="curve" smooth="yes"/>
			<point x="578.333" y="535.667" type="line" smooth="yes"/>
			<point x="600.667" y="591.333"/>
			<point x="627.333" y="609"/>
			<point x="677.667" y="613.333" type="curve"/>
			<point x="683.667" y="619.333"/>
			<point x="683.667" y="641"/>
			<point x="677.667" y="647" type="curve"/>
			<point x="647.667" y="646"/>
			<point x="614.667" y="645"/>
			<point x="585.667" y="645" type="curve" smooth="yes"/>
			<point x="550.667" y="645"/>
			<point x="499" y="646"/>
			<point x="460.667" y="647" type="curve"/>
			<point x="454.667" y="641"/>
			<point x="454.667" y="619.333"/>
			<point x="460.667" y="613.333" type="curve"/>
			<point x="510.667" y="609.667"/>
			<point x="541.333" y="596.667"/>
			<point x="524.333" y="553.333" type="curve" smooth="yes"/>
			<point x="369.667" y="158.333" type="line"/>
			<point x="366.333" y="158.333" type="line"/>
			<point x="221" y="560" type="line" smooth="yes"/>
			<point x="206" y="602"/>
			<point x="232.667" y="609"/>
			<point x="287.333" y="613.333" type="curve"/>
			<point x="293.333" y="619.333"/>
			<point x="293.333" y="641"/>
			<point x="287.333" y="647" type="curve"/>
			<point x="249.333" y="646"/>
			<point x="167.667" y="645"/>
			<point x="129.667" y="645" type="curve" smooth="yes"/>
			<point x="90.3333" y="645"/>
			<point x="41.3333" y="646"/>
			<point x="5.66667" y="647" type="curve"/>
			<point x="-0.333333" y="641"/>
			<point x="0" y="619.333"/>
			<point x="6" y="613.333" type="curve"/>
			<point x="50.3333" y="609"/>
			<point x="75" y="600"/>
			<point x="96" y="547" type="curve" smooth="yes"/>
		</contour>
	</outline>
	<anchor name="m.uni0302" x="362.667" y="850"/>
	<anchor name="m.uni0316_2" x="338" y="-110"/>
	<anchor name="m.uni031A_3" x="679" y="732"/>
	<anchor name="t.uni0302" x="352.667" y="740"/>
</glyph>
<glyph name="X" format="2">
	<unicode hex="0058"/>
	<advance width="699"/>
	<outline>
		<contour>
			<point x="414.667" y="-1.33333" type="curve"/>
			<point x="453.667" y="-0.333333"/>
			<point x="516.667" y="0.666667"/>
			<point x="556.667" y="0.666667" type="curve" smooth="yes"/>
			<point x="595.667" y="0.666667"/>
			<point x="655.333" y="-0.333333"/>
			<point x="685.333" y="-1.33333" type="curve"/>
			<point x="691.333" y="4.66667"/>
			<point x="690.333" y="26.3333"/>
			<point x="684.333" y="32.3333" type="curve"/>
			<point x="642.333" y="35.3333"/>
			<point x="619.333" y="44.6667"/>
			<point x="580.667" y="100" type="curve" smooth="yes"/>
			<point x="385.333" y="375.667" type="line"/>
			<point x="270.667" y="558" type="line" smooth="yes"/>
			<point x="246.333" y="596"/>
			<point x="245.667" y="610.333"/>
			<point x="301.667" y="613.333" type="curve"/>
			<point x="307.667" y="619.333"/>
			<point x="307.667" y="641"/>
			<point x="301.667" y="647" type="curve"/>
			<point x="262.667" y="646"/>
			<point x="205.667" y="645"/>
			<point x="165.667" y="645" type="curve" smooth="yes"/>
			<point x="126.667" y="645"/>
			<point x="58.3333" y="646"/>
			<point x="28.3333" y="647" type="curve"/>
			<point x="22.3333" y="641"/>
			<point x="23.3333" y="619.333"/>
			<point x="29.3333" y="613.333" type="curve"/>
			<point x="71.3333" y="610.333"/>
			<point x="90.3333" y="602"/>
			<point x="129.333" y="547" type="curve" smooth="yes"/>
			<point x="308" y="297.667" type="line"/>
			<point x="438.667" y="87.6667" type="line"/>
			<point x="464.667" y="51"/>
			<point x="470.667" y="35.3333"/>
			<point x="414.667" y="32.3333" type="curve"/>
			<point x="408.667" y="26.3333"/>
			<point x="408.667" y="4.66667"/>
		</contour>
		<contour>
			<point x="9" y="-1.33333" type="curve"/>
			<point x="39" y="-0.333333"/>
			<point x="90" y="0.666667"/>
			<point x="113" y="0.666667" type="curve" smooth="yes"/>
			<point x="136" y="0.666667"/>
			<point x="189.333" y="-0.333333"/>
			<point x="229.333" y="-1.33333" type="curve"/>
			<point x="235.333" y="4.66667"/>
			<point x="235.333" y="26.3333"/>
			<point x="229.333" y="32.3333" type="curve"/>
			<point x="185.333" y="35.3333"/>
			<point x="166.333" y="49"/>
			<point x="187" y="79" type="curve" smooth="yes"/>
			<point x="340" y="305.333" type="line"/>
			<point x="313.667" y="339.667" type="line"/>
			<point x="118" y="85" type="line" smooth="yes"/>
			<point x="88" y="45.6667"/>
			<point x="54" y="36.3333"/>
			<point x="9" y="32.3333" type="curve"/>
			<point x="3" y="26.3333"/>
			<point x="3" y="4.66667"/>
		</contour>
		<contour>
			<point x="356" y="364" type="line"/>
			<point x="381.667" y="332.333" type="line"/>
			<point x="557.333" y="560.667" type="line" smooth="yes"/>
			<point x="587.667" y="599.667"/>
			<point x="618" y="609.333"/>
			<point x="663" y="613.333" type="curve"/>
			<point x="669" y="619.333"/>
			<point x="669" y="641"/>
			<point x="663" y="647" type="curve"/>
			<point x="633" y="646"/>
			<point x="588" y="645"/>
			<point x="565" y="645" type="curve" smooth="yes"/>
			<point x="542" y="645"/>
			<point x="492.667" y="646"/>
			<point x="452.667" y="647" type="curve"/>
			<point x="446.667" y="641"/>
			<point x="446.667" y="619.333"/>
			<point x="452.667" y="613.333" type="curve"/>
			<point x="496.667" y="610.333"/>
			<point x="513" y="597.667"/>
			<point x="495" y="566.667" type="curve"/>
		</contour>
	</outline>
	<anchor name="m.uni0302" x="358.667" y="850"/>
	<anchor name="m.uni0316_2" x="307" y="-110"/>
	<anchor name="m.uni031A_3" x="689" y="732"/>
	<anchor name="t.uni0302" x="366.667" y="740"/>
	<guideline x="379" y="375" angle="52.2597"/>
	<guideline x="471" y="572" angle="234.898"/>
</glyph>
<glyph name="backslash" format="2">
	<unicode hex="005C"/>
	<advance width="300"/>
	<outline>
		<contour>
			<point x="69" y="698" type="line"/>
			<point x="11" y="698" type="line"/>
			<point x="241" y="-48" type="line"/>
			<point x="299" y="-48" type="line"/>
		</contour>
	</outline>
</glyph>
<glyph name="underscore" format="2">
	<unicode hex="005F"/>
	<advance width="486"/>
	<outline>
		<contour>
			<point x="480" y="-105.333" type="curve"/>
			<point x="6.66667" y="-105.333" type="line"/>
			<point x="4" y="-112.065"/>
			<point x="4" y="-147.268"/>
			<point x="6.66667" y="-154" type="curve"/>
			<point x="480" y="-154" type="line"/>
			<point x="482.667" y="-147.268"/>
			<point x="482.667" y="-112.065"/>
		</contour>
	</outline>
</glyph>
<glyph name="a" format="2">
	<unicode hex="0061"/>
	<advance width="490"/>
	<outline>
		<contour>
			<point x="294.333" y="48.6667" type="line"/>
			<point x="301" y="11"/>
			<point x="322.667" y="-10"/>
			<point x="368.667" y="-10" type="curve" smooth="yes"/>
			<point x="418" y="-10"/>
			<point x="456" y="9.66667"/>
			<point x="487.667" y="39.6667" type="curve"/>
			<point x="485.667" y="51.6667"/>
			<point x="481.667" y="60"/>
			<point x="470" y="67.3333" type="curve"/>
			<point x="459" y="58.6667"/>
			<point name=".hr01" x="446.667" y="52.6667"/>
			<point x="429.667" y="52.6667" type="curve" smooth="yes"/>
			<point x="405.333" y="52.6667"/>
			<point x="401.667" y="77.6667"/>
			<point x="401.667" y="125.667" type="curve" smooth="yes"/>
			<point x="401.667" y="270.667" type="line" smooth="yes"/>
			<point x="401.667" y="404"/>
			<point x="326" y="442.333"/>
			<point x="238" y="442.333" type="curve" smooth="yes"/>
			<point x="162" y="442.333"/>
			<point x="59.6667" y="396.333"/>
			<point x="59.6667" y="333.333" type="curve" smooth="yes"/>
			<point x="59.6667" y="306.667"/>
			<point x="71.6667" y="288"/>
			<point x="105.333" y="288" type="curve" smooth="yes"/>
			<point x="139" y="288"/>
			<point x="162.333" y="309.667"/>
			<point x="162.333" y="330" type="curve" smooth="yes"/>
			<point x="162.333" y="335.667"/>
			<point x="161.333" y="342"/>
			<point x="160" y="347.333" type="curve"/>
			<point x="158.333" y="355"/>
			<point x="158" y="363.667"/>
			<point x="158" y="374" type="curve" smooth="yes"/>
			<point x="158" y="391.667"/>
			<point x="178" y="403.333"/>
			<point x="212.667" y="403.333" type="curve" smooth="yes"/>
			<point x="259.333" y="403.333"/>
			<point x="291" y="377"/>
			<point x="291" y="259.667" type="curve"/>
			<point x="215.667" y="238.333" type="line"/>
			<point x="93" y="201.667"/>
			<point name=".hr02" x="41.3333" y="161.333"/>
			<point x="41.3333" y="96" type="curve" smooth="yes"/>
			<point x="41.3333" y="24"/>
			<point x="88" y="-10"/>
			<point name=".hr03" x="158" y="-10" type="curve" smooth="yes"/>
			<point x="193" y="-10"/>
			<point x="229.667" y="3.33333"/>
			<point x="263" y="28.6667" type="curve" smooth="yes"/>
			<point x="289.667" y="48.6667" type="line"/>
		</contour>
		<contour>
			<point x="291" y="223" type="line"/>
			<point x="291" y="83.6667" type="line"/>
			<point x="261.667" y="59.6667"/>
			<point x="234" y="43.6667"/>
			<point x="211.667" y="43.6667" type="curve" smooth="yes"/>
			<point x="173.667" y="43.6667"/>
			<point name=".hr04" x="149" y="74.3333"/>
			<point x="149" y="107.333" type="curve" smooth="yes"/>
			<point x="149" y="153"/>
			<point x="171.333" y="187"/>
			<point x="230" y="204.667" type="curve" smooth="yes"/>
		</contour>
	</outline>
	<anchor name="t.uni0302" x="225" y="500"/>
	<anchor name="m.uni0316_2" x="196" y="-110"/>
	<anchor name="b.uni0321_4" x="410" y="16"/>
</glyph>
<glyph name="b" format="2">
	<unicode hex="0062"/>
	<advance width="526"/>
	<outline>
		<contour>
			<point x="70" y="-4" type="curve"/>
			<point name=".hr01" x="79.6667" y="-9.33333"/>
			<point x="88.6667" y="-12.6667"/>
			<point x="100" y="-12.6667" type="curve"/>
			<point x="113.667" y="-1.33333"/>
			<point x="124.333" y="12.3333"/>
			<point x="134" y="29" type="curve"/>
			<point x="170" y="-1"/>
			<point x="220.333" y="-10"/>
			<point x="265" y="-10" type="curve" smooth="yes"/>
			<point x="373" y="-10"/>
			<point x="490.667" y="94.3333"/>
			<point x="490.667" y="242.667" type="curve" smooth="yes"/>
			<point x="490.667" y="363.333"/>
			<point x="414" y="442.333"/>
			<point x="304.333" y="442.333" type="curve" smooth="yes"/>
			<point x="258.667" y="442.333"/>
			<point x="207.333" y="403"/>
			<point x="171.333" y="374.333" type="curve"/>
			<point x="171.333" y="334.667" type="line"/>
			<point x="214" y="370"/>
			<point x="239" y="380.333"/>
			<point x="274.333" y="380.333" type="curve" smooth="yes"/>
			<point x="327.333" y="380.333"/>
			<point x="368.667" y="325.667"/>
			<point x="368.667" y="228" type="curve" smooth="yes"/>
			<point x="368.667" y="135.333"/>
			<point x="344" y="29.3333"/>
			<point x="259.667" y="29.3333" type="curve" smooth="yes"/>
			<point x="230" y="29.3333"/>
			<point x="207.667" y="44.6667"/>
			<point x="188.333" y="68.3333" type="curve"/>
			<point x="188.333" y="583" type="line" smooth="yes"/>
			<point x="188.333" y="648"/>
			<point x="191.667" y="682"/>
			<point x="191.667" y="686" type="curve" smooth="yes"/>
			<point x="191.667" y="694.333"/>
			<point x="185.667" y="698"/>
			<point x="176.667" y="698" type="curve"/>
			<point x="143.667" y="686.667"/>
			<point x="65.3333" y="674.667"/>
			<point x="4.66667" y="671.667" type="curve"/>
			<point x="2" y="661"/>
			<point x="3.33333" y="648.333"/>
			<point x="8.66667" y="640.333" type="curve"/>
			<point x="67.3333" y="636.333"/>
			<point x="75.3333" y="633"/>
			<point x="75.3333" y="578.333" type="curve" smooth="yes"/>
			<point x="75.3333" y="108.333" type="line" smooth="yes"/>
			<point x="75.3333" y="40"/>
			<point x="73.6667" y="26"/>
		</contour>
	</outline>
	<anchor name="m.uni0316_2" x="234" y="-110"/>
	<anchor name="m.uni031A_3" x="420" y="580"/>
</glyph>
<glyph name="e" format="2">
	<unicode hex="0065"/>
	<advance width="475"/>
	<outline>
		<contour>
			<point x="416" y="117" type="curve"/>
			<point x="376.333" y="76.3333"/>
			<point x="330.667" y="63.6667"/>
			<point x="286" y="63.6667" type="curve" smooth="yes"/>
			<point x="182.333" y="63.6667"/>
			<point x="155.667" y="153"/>
			<point x="155.667" y="239.333" type="curve"/>
			<point x="404.333" y="238.667" type="line"/>
			<point x="424.333" y="238.667"/>
			<point x="430" y="252"/>
			<point x="430" y="265" type="curve" smooth="yes"/>
			<point x="430" y="349.667"/>
			<point x="398" y="441.667"/>
			<point x="253.667" y="441.667" type="curve" smooth="yes"/>
			<point x="154.667" y="441.667"/>
			<point x="37" y="352"/>
			<point x="37" y="199.333" type="curve" smooth="yes"/>
			<point x="37" y="65.6667"/>
			<point x="120.667" y="-10"/>
			<point x="251.667" y="-10" type="curve" smooth="yes"/>
			<point x="323" y="-10"/>
			<point x="386.333" y="25"/>
			<point x="433" y="91" type="curve"/>
			<point x="432" y="103"/>
			<point x="426.667" y="116.667"/>
		</contour>
		<contour>
			<point x="158" y="277.333" type="line"/>
			<point x="171.667" y="371"/>
			<point x="212.333" y="402.667"/>
			<point x="245" y="402.667" type="curve" smooth="yes"/>
			<point x="277" y="402.667"/>
			<point x="316.667" y="378.333"/>
			<point x="316.667" y="297" type="curve" smooth="yes"/>
			<point x="316.667" y="289.333"/>
			<point x="312.667" y="278.333"/>
			<point x="301.667" y="278.333" type="curve"/>
		</contour>
	</outline>
	<anchor name="t.uni0302" x="246.333" y="500"/>
	<anchor name="t.uni0315_1" x="423.333" y="396"/>
	<anchor name="m.uni0316_2" x="237.333" y="-110"/>
	<anchor name="b.uni0321_4" x="387.333" y="41"/>
</glyph>
<glyph name="f" format="2">
	<unicode hex="0066"/>
	<advance width="364"/>
	<outline>
		<contour>
			<point x="211.667" y="126" type="curve" smooth="yes"/>
			<point x="211.667" y="386" type="line"/>
			<point x="300" y="386" type="line" smooth="yes"/>
			<point x="315" y="386"/>
			<point x="331" y="390.667"/>
			<point x="331" y="401.667" type="curve" smooth="yes"/>
			<point x="331" y="423.667" type="line" smooth="yes"/>
			<point x="331" y="429"/>
			<point x="329.333" y="432.333"/>
			<point x="315" y="432.333" type="curve" smooth="yes"/>
			<point x="211.667" y="432.333" type="line"/>
			<point x="211.667" y="485.333" type="line" smooth="yes"/>
			<point x="211.667" y="636"/>
			<point x="254.333" y="658.667"/>
			<point x="280" y="658.667" type="curve" smooth="yes"/>
			<point x="301.333" y="658.667"/>
			<point x="309.333" y="644.667"/>
			<point x="318.667" y="617" type="curve" smooth="yes"/>
			<point x="327.333" y="589.667"/>
			<point x="348.333" y="568.333"/>
			<point x="379.333" y="568.333" type="curve" smooth="yes"/>
			<point x="407" y="568.333"/>
			<point x="431" y="589.333"/>
			<point x="431" y="624.667" type="curve" smooth="yes"/>
			<point x="431" y="662"/>
			<point x="384" y="698"/>
			<point x="299" y="698" type="curve" smooth="yes"/>
			<point x="181" y="698"/>
			<point x="98.6667" y="594.333"/>
			<point x="98.6667" y="459" type="curve" smooth="yes"/>
			<point x="98.6667" y="432.333" type="line"/>
			<point x="80.3333" y="432.333" type="line" smooth="yes"/>
			<point x="51.6667" y="432.333"/>
			<point x="22.6667" y="425"/>
			<point x="22.6667" y="417" type="curve" smooth="yes"/>
			<point x="22.6667" y="394.667" type="line" smooth="yes"/>
			<point x="22.6667" y="388.333"/>
			<point x="25.6667" y="386"/>
			<point x="42.3333" y="386" type="curve" smooth="yes"/>
			<point x="98.6667" y="386" type="line"/>
			<point x="98.6667" y="124.667" type="line" smooth="yes"/>
			<point x="98.6667" y="42.3333"/>
			<point x="82.6667" y="35"/>
			<point x="24" y="31.6667" type="curve"/>
			<point x="18" y="25.6667"/>
			<point x="18" y="4"/>
			<point x="24" y="-2" type="curve"/>
			<point x="63.6667" y="-1"/>
			<point x="105.333" y="0"/>
			<point x="155.333" y="0" type="curve" smooth="yes"/>
			<point x="205.333" y="0"/>
			<point x="250.667" y="-1"/>
			<point x="291" y="-2" type="curve"/>
			<point x="297" y="4"/>
			<point x="297" y="25.6667"/>
			<point x="291" y="31.6667" type="curve"/>
			<point x="224.333" y="35"/>
			<point x="211.667" y="42.3333"/>
		</contour>
	</outline>
	<anchor name="m.uni0316_2" x="132" y="-110"/>
	<anchor name="m.uni031A_3" x="410" y="750"/>
</glyph>
<glyph name="i" format="2">
	<unicode hex="0069"/>
	<advance width="305"/>
	<outline>
		<component base="dotlessi"/>
		<contour>
			<point x="94.6667" y="597" type="curve" smooth="yes"/>
			<point x="94.6667" y="566.333"/>
			<point x="118.667" y="535.667"/>
			<point x="153.333" y="535.667" type="curve" smooth="yes"/>
			<point x="192.667" y="535.667"/>
			<point x="218" y="568.667"/>
			<point x="218" y="593" type="curve" smooth="yes"/>
			<point x="218" y="621"/>
			<point x="195.667" y="654.333"/>
			<point x="158.667" y="654.333" type="curve" smooth="yes"/>
			<point x="119.333" y="654.333"/>
			<point x="94.6667" y="625"/>
		</contour>
	</outline>
	<anchor name="m.uni0302" x="137" y="795"/>
	<anchor name="m.uni0316_2" x="136" y="-110"/>
	<anchor name="b.uni0321_4" x="209" y="10"/>
</glyph>
<glyph name="l" format="2">
	<unicode hex="006C"/>
	<advance width="305"/>
	<outline>
		<contour>
			<point x="98.3333" y="125.333" type="line" smooth="yes"/>
			<point x="98.3333" y="42.3333"/>
			<point x="84" y="34.6667"/>
			<point x="23" y="31.6667" type="curve"/>
			<point x="17" y="25.6667"/>
			<point x="17" y="4"/>
			<point x="23" y="-2" type="curve"/>
			<point x="62.6667" y="-1"/>
			<point x="105" y="0"/>
			<point x="155" y="0" type="curve" smooth="yes"/>
			<point x="205" y="0"/>
			<point x="247" y="-1"/>
			<point x="286.667" y="-2" type="curve"/>
			<point x="292.667" y="4"/>
			<point x="292.667" y="25.6667"/>
			<point x="286.667" y="31.6667" type="curve"/>
			<point x="225.667" y="34.6667"/>
			<point x="211.333" y="42.3333"/>
			<point x="211.333" y="125.333" type="curve" smooth="yes"/>
			<point x="211.333" y="581.667" type="line" smooth="yes"/>
			<point x="211.333" y="647.333"/>
			<point x="214.667" y="682"/>
			<point x="214.667" y="687.333" type="curve" smooth="yes"/>
			<point x="214.667" y="694.333"/>
			<point x="208.667" y="698"/>
			<point x="199.667" y="698" type="curve"/>
			<point x="166.667" y="686.667"/>
			<point x="88.3333" y="674.667"/>
			<point x="27.6667" y="671.667" type="curve"/>
			<point x="25" y="660.333"/>
			<point x="26.3333" y="647.667"/>
			<point x="31.6667" y="639" type="curve"/>
			<point x="93" y="634.333"/>
			<point x="98.3333" y="632.667"/>
			<point x="98.3333" y="561.667" type="curve" smooth="yes"/>
		</contour>
	</outline>
	<anchor name="m.uni0302" x="128.333" y="885"/>
	<anchor name="m.uni0316_2" x="135" y="-110"/>
	<anchor name="m.uni031A_3" x="249" y="733"/>
</glyph>
<glyph name="m" format="2">
	<unicode hex="006D"/>
	<advance width="867"/>
	<outline>
		<contour>
			<point x="777.667" y="130" type="line"/>
			<point x="777.667" y="281.667" type="line" smooth="yes"/>
			<point x="777.667" y="384.667"/>
			<point x="746" y="441.333"/>
			<point x="659.333" y="441.333" type="curve" smooth="yes"/>
			<point x="614.333" y="441.333"/>
			<point x="525.667" y="400"/>
			<point x="469.667" y="356.667" type="curve"/>
			<point x="475.333" y="320.333" type="line"/>
			<point x="520.333" y="358.667"/>
			<point x="573" y="374.667"/>
			<point x="599.333" y="374.667" type="curve" smooth="yes"/>
			<point x="638.667" y="374.667"/>
			<point x="664.667" y="355.333"/>
			<point x="664.667" y="295" type="curve" smooth="yes"/>
			<point x="664.667" y="130" type="line"/>
		</contour>
		<contour>
			<point x="493.667" y="130" type="line"/>
			<point x="493.667" y="282" type="line" smooth="yes"/>
			<point x="493.667" y="364"/>
			<point x="471" y="441.333"/>
			<point x="372" y="441.333" type="curve" smooth="yes"/>
			<point x="325" y="441.333"/>
			<point x="248" y="394"/>
			<point x="195" y="355" type="curve"/>
			<point x="195.333" y="316" type="line"/>
			<point x="237" y="351"/>
			<point x="281.333" y="374.667"/>
			<point x="312" y="374.667" type="curve" smooth="yes"/>
			<point x="351.333" y="374.667"/>
			<point x="380.667" y="354.667"/>
			<point x="380.667" y="294.333" type="curve" smooth="yes"/>
			<point x="380.667" y="130" type="line"/>
		</contour>
		<contour>
			<point x="209.667" y="130" type="line"/>
			<point x="209.667" y="316.333" type="line" smooth="yes"/>
			<point x="209.667" y="360"/>
			<point x="205.667" y="409"/>
			<point x="201.333" y="425.667" type="curve"/>
			<point x="198.667" y="438"/>
			<point x="193.333" y="442.333"/>
			<point x="181.333" y="442.333" type="curve"/>
			<point x="147.333" y="432"/>
			<point x="98.6667" y="419.667"/>
			<point x="29.6667" y="410.667" type="curve"/>
			<point x="27.6667" y="404.667"/>
			<point x="29.6667" y="386"/>
			<point x="31.6667" y="380" type="curve"/>
			<point x="86.3333" y="375"/>
			<point x="96.6667" y="368"/>
			<point x="96.6667" y="310.667" type="curve" smooth="yes"/>
			<point x="96.6667" y="130" type="line"/>
		</contour>
		<contour>
			<point x="96.6667" y="130" type="line"/>
			<point x="96.6667" y="40.3333"/>
			<point x="86" y="37.3333"/>
			<point x="25.3333" y="31.6667" type="curve"/>
			<point x="19.3333" y="25.6667"/>
			<point x="19.3333" y="4"/>
			<point x="25.3333" y="-2" type="curve"/>
			<point x="63.3333" y="-1"/>
			<point x="104.667" y="0"/>
			<point x="153.333" y="0" type="curve" smooth="yes"/>
			<point x="197.333" y="0"/>
			<point x="226" y="-1"/>
			<point x="264.667" y="-2" type="curve"/>
			<point x="270.667" y="4"/>
			<point x="270.667" y="25.6667"/>
			<point x="264.667" y="31.6667" type="curve"/>
			<point x="219.667" y="36"/>
			<point x="209.667" y="40.3333"/>
			<point x="209.667" y="130" type="curve"/>
		</contour>
		<contour>
			<point x="380.667" y="130" type="line"/>
			<point x="380.667" y="40.3333"/>
			<point x="372.333" y="37.3333"/>
			<point x="325.667" y="31.6667" type="curve"/>
			<point x="319.667" y="25.6667"/>
			<point x="319.667" y="4"/>
			<point x="325.667" y="-2" type="curve"/>
			<point x="359" y="-1"/>
			<point x="395" y="0"/>
			<point x="437.333" y="0" type="curve" smooth="yes"/>
			<point x="481.333" y="0"/>
			<point x="510" y="-1"/>
			<point x="548.667" y="-2" type="curve"/>
			<point x="554.667" y="4"/>
			<point x="554.667" y="25.6667"/>
			<point x="548.667" y="31.6667" type="curve"/>
			<point x="503.667" y="36"/>
			<point x="493.667" y="40.3333"/>
			<point x="493.667" y="130" type="curve"/>
		</contour>
		<contour>
			<point x="664.667" y="130" type="line"/>
			<point x="664.667" y="40.3333"/>
			<point x="656.333" y="37.3333"/>
			<point x="609.667" y="31.6667" type="curve"/>
			<point x="603.667" y="25.6667"/>
			<point x="603.667" y="4"/>
			<point x="609.667" y="-2" type="curve"/>
			<point x="643" y="-1"/>
			<point x="679" y="0"/>
			<point x="721.333" y="0" type="curve" smooth="yes"/>
			<point x="772" y="0"/>
			<point x="804" y="-1"/>
			<point x="849" y="-2" type="curve"/>
			<point x="855" y="4"/>
			<point x="855" y="25.6667"/>
			<point x="849" y="31.6667" type="curve"/>
			<point x="790.667" y="36"/>
			<point x="777.667" y="40.3333"/>
			<point x="777.667" y="130" type="curve"/>
		</contour>
	</outline>
	<anchor name="m.uni0302" x="392" y="645"/>
	<anchor name="m.uni0316_2" x="439.333" y="-110"/>
</glyph>
<glyph name="n" format="2">
	<unicode hex="006E"/>
	<advance width="591"/>
	<outline>
		<contour>
			<point x="26" y="-2" type="curve"/>
			<point x="64" y="-1"/>
			<point x="105.333" y="0"/>
			<point x="154" y="0" type="curve" smooth="yes"/>
			<point x="198" y="0"/>
			<point x="226.667" y="-1"/>
			<point x="265.333" y="-2" type="curve"/>
			<point x="271.333" y="4"/>
			<point x="271.333" y="25.6667"/>
			<point x="265.333" y="31.6667" type="curve"/>
			<point x="220.333" y="36"/>
			<point x="210.333" y="39.3333"/>
			<point x="210.333" y="122" type="curve" smooth="yes"/>
			<point x="210.333" y="319" type="line"/>
			<point x="249.333" y="349.333"/>
			<point x="291.333" y="375.667"/>
			<point x="322" y="375.667" type="curve" smooth="yes"/>
			<point x="368" y="375.667"/>
			<point x="390.333" y="340.333"/>
			<point x="390.333" y="288" type="curve" smooth="yes"/>
			<point x="390.333" y="126" type="line" smooth="yes"/>
			<point x="390.333" y="42.6667"/>
			<point x="376.333" y="35.3333"/>
			<point x="331.667" y="31.6667" type="curve"/>
			<point x="326" y="25.6667"/>
			<point x="326" y="4"/>
			<point x="331.667" y="-2" type="curve"/>
			<point x="369.667" y="-1"/>
			<point x="401.667" y="0"/>
			<point x="447" y="0" type="curve" smooth="yes"/>
			<point x="497" y="0"/>
			<point x="538.333" y="-1"/>
			<point x="577" y="-2" type="curve"/>
			<point x="582.667" y="4"/>
			<point x="582.667" y="25.6667"/>
			<point x="577" y="31.6667" type="curve"/>
			<point x="517.667" y="35.3333"/>
			<point x="503.333" y="42.6667"/>
			<point x="503.333" y="126" type="curve" smooth="yes"/>
			<point x="503.333" y="279.667" type="line" smooth="yes"/>
			<point x="503.333" y="380.667"/>
			<point x="469.667" y="442.333"/>
			<point x="378" y="442.333" type="curve" smooth="yes"/>
			<point x="333" y="442.333"/>
			<point x="256.333" y="397.333"/>
			<point x="199.333" y="348.667" type="curve"/>
			<point x="210.333" y="339.333" type="line"/>
			<point x="207.333" y="379.667"/>
			<point x="203.667" y="420"/>
			<point x="201.333" y="429.333" type="curve"/>
			<point x="200" y="439"/>
			<point x="194" y="443.333"/>
			<point x="182" y="443.333" type="curve"/>
			<point x="148" y="433"/>
			<point x="99.3333" y="420.667"/>
			<point x="30.3333" y="411.667" type="curve"/>
			<point x="28.3333" y="405.667"/>
			<point x="30.3333" y="387"/>
			<point x="32.3333" y="381" type="curve"/>
			<point x="87" y="376"/>
			<point x="97.3333" y="369"/>
			<point x="97.3333" y="311.667" type="curve" smooth="yes"/>
			<point x="97.3333" y="122" type="line" smooth="yes"/>
			<point x="97.3333" y="39.3333"/>
			<point x="86.6667" y="36.6667"/>
			<point x="26" y="31.6667" type="curve"/>
			<point x="20" y="25.6667"/>
			<point x="20" y="4"/>
		</contour>
	</outline>
	<anchor name="t.uni0302" x="269.333" y="500"/>
	<anchor name="m.uni0316_2" x="265" y="-110"/>
</glyph>
<glyph name="p" format="2">
	<unicode hex="0070"/>
	<advance width="560"/>
	<outline>
		<contour>
			<point x="18" y="-234" type="curve"/>
			<point x="57.6667" y="-233"/>
			<point x="98" y="-232"/>
			<point x="146.667" y="-232" type="curve" smooth="yes"/>
			<point x="195.333" y="-232"/>
			<point x="238.667" y="-233"/>
			<point x="278.333" y="-234" type="curve"/>
			<point x="284.333" y="-228"/>
			<point x="284.333" y="-206.333"/>
			<point x="278.333" y="-200.333" type="curve"/>
			<point x="214" y="-196.333"/>
			<point x="203" y="-193"/>
			<point x="203" y="-110" type="curve" smooth="yes"/>
			<point x="203" y="317.667" type="line" smooth="yes"/>
			<point x="203" y="359"/>
			<point x="198.333" y="398.333"/>
			<point x="194" y="429.333" type="curve"/>
			<point x="192.333" y="439"/>
			<point x="186.667" y="443.333"/>
			<point x="174.667" y="443.333" type="curve"/>
			<point x="140.667" y="433"/>
			<point x="92" y="420.667"/>
			<point x="23" y="411.667" type="curve"/>
			<point x="21" y="405.667"/>
			<point x="23" y="387"/>
			<point x="25" y="381" type="curve"/>
			<point x="79.6667" y="376"/>
			<point x="90" y="369"/>
			<point x="90" y="311.667" type="curve" smooth="yes"/>
			<point x="90" y="-110" type="line" smooth="yes"/>
			<point x="90" y="-193"/>
			<point x="79" y="-196"/>
			<point x="18" y="-200.333" type="curve"/>
			<point x="12" y="-206.333"/>
			<point x="12" y="-228"/>
		</contour>
		<contour>
			<point x="188" y="15.3333" type="line"/>
			<point x="214.667" y="0.333333"/>
			<point x="251" y="-10"/>
			<point x="281.333" y="-10" type="curve" smooth="yes"/>
			<point x="429.333" y="-10"/>
			<point x="522.333" y="94"/>
			<point x="522.333" y="236.333" type="curve" smooth="yes"/>
			<point x="522.333" y="352.333"/>
			<point x="447.333" y="442.333"/>
			<point x="332" y="442.333" type="curve" smooth="yes"/>
			<point x="297.333" y="442.333"/>
			<point x="242.333" y="406.667"/>
			<point x="205.667" y="370.333" type="curve"/>
			<point x="192" y="370.333" type="line"/>
			<point x="192" y="317.333" type="line"/>
			<point x="220" y="350.667"/>
			<point x="267.333" y="382.333"/>
			<point x="301.333" y="382.333" type="curve" smooth="yes"/>
			<point x="350" y="382.333"/>
			<point x="400.333" y="325"/>
			<point x="400.333" y="209.333" type="curve" smooth="yes"/>
			<point x="400.333" y="126"/>
			<point x="370.667" y="29.3333"/>
			<point x="275.333" y="29.3333" type="curve" smooth="yes"/>
			<point x="254.333" y="29.3333"/>
			<point x="221" y="40.6667"/>
			<point x="188" y="81.3333" type="curve"/>
		</contour>
	</outline>
	<anchor name="m.uni0302" x="271" y="646"/>
	<anchor name="m.uni0316_2" x="179" y="-319"/>
	<anchor name="m.uni031A_3" x="429" y="580"/>
	<anchor name="t.uni0302" x="265.333" y="500"/>
</glyph>
<glyph name="q" format="2">
	<unicode hex="0071"/>
	<advance width="550"/>
	<outline>
		<contour>
			<point x="35.6667" y="207.667" type="curve" smooth="yes"/>
			<point x="35.6667" y="91.3333"/>
			<point x="107.333" y="-10"/>
			<point x="241.333" y="-10" type="curve" smooth="yes"/>
			<point x="273" y="-10"/>
			<point x="320.667" y="9.66667"/>
			<point x="346.667" y="25" type="curve"/>
			<point x="350.667" y="25" type="line"/>
			<point x="350.667" y="-110.333" type="line" smooth="yes"/>
			<point x="350.667" y="-193.333"/>
			<point x="339.667" y="-196"/>
			<point x="278.667" y="-200.333" type="curve"/>
			<point x="272.667" y="-206.333"/>
			<point x="272.667" y="-228"/>
			<point x="278.667" y="-234" type="curve"/>
			<point x="318.333" y="-233"/>
			<point x="358.667" y="-232"/>
			<point x="407.333" y="-232" type="curve" smooth="yes"/>
			<point x="456" y="-232"/>
			<point x="496" y="-233"/>
			<point x="535.667" y="-234" type="curve"/>
			<point x="541.667" y="-228"/>
			<point x="541.667" y="-206.333"/>
			<point x="535.667" y="-200.333" type="curve"/>
			<point x="474.667" y="-196.667"/>
			<point x="463.667" y="-193.333"/>
			<point x="463.667" y="-110.333" type="curve" smooth="yes"/>
			<point x="463.667" y="325" type="line" smooth="yes"/>
			<point x="463.667" y="367.667"/>
			<point x="466.333" y="410.333"/>
			<point x="467.667" y="423.667" type="curve"/>
			<point x="467.667" y="435.667"/>
			<point x="459" y="443.333"/>
			<point x="446" y="443.333" type="curve" smooth="yes"/>
			<point x="434" y="443.333"/>
			<point x="403.667" y="424.667"/>
			<point x="385.667" y="405.667" type="curve"/>
			<point x="356" y="425"/>
			<point x="323.667" y="442.333"/>
			<point x="274.333" y="442.333" type="curve" smooth="yes"/>
			<point x="145" y="442.333"/>
			<point x="35.6667" y="340.333"/>
		</contour>
		<contour>
			<point x="157.667" y="228.333" type="curve" smooth="yes"/>
			<point x="157.667" y="329.667"/>
			<point x="201" y="403"/>
			<point x="271" y="403" type="curve" smooth="yes"/>
			<point x="300.667" y="403"/>
			<point x="323.333" y="392.333"/>
			<point x="350.667" y="358" type="curve"/>
			<point x="350.667" y="65.3333" type="line"/>
			<point x="327.667" y="50.3333"/>
			<point x="300.333" y="42"/>
			<point x="280.667" y="42" type="curve" smooth="yes"/>
			<point x="228" y="42"/>
			<point x="157.667" y="80"/>
		</contour>
	</outline>
	<anchor name="m.uni0302" x="238" y="645"/>
	<anchor name="m.uni0316_2" x="348" y="-319"/>
	<anchor name="m.uni031A_3" x="469" y="732"/>
</glyph>
<glyph name="u" format="2">
	<unicode hex="0075"/>
	<advance width="576"/>
	<outline>
		<contour>
			<point x="217" y="-10" type="curve" smooth="yes"/>
			<point x="257" y="-10"/>
			<point name=".hr01" x="334.667" y="26"/>
			<point x="391.667" y="64.3333" type="curve"/>
			<point x="392.333" y="105.667" type="line"/>
			<point x="347" y="69"/>
			<point x="298.333" y="55"/>
			<point x="275" y="55" type="curve" smooth="yes"/>
			<point x="238.333" y="55"/>
			<point x="201.667" y="63"/>
			<point x="201.667" y="139.333" type="curve" smooth="yes"/>
			<point x="201.667" y="311.333" type="line" smooth="yes"/>
			<point x="201.667" y="377.333"/>
			<point x="204.333" y="393.667"/>
			<point x="204.333" y="409.667" type="curve" smooth="yes"/>
			<point x="204.333" y="422"/>
			<point x="200.667" y="430.333"/>
			<point x="195" y="434.333" type="curve"/>
			<point x="181.333" y="433.333"/>
			<point x="162.333" y="432.333"/>
			<point x="145.333" y="432.333" type="curve" smooth="yes"/>
			<point x="100.667" y="432.333"/>
			<point x="63.3333" y="433.333"/>
			<point x="23.3333" y="434.333" type="curve"/>
			<point x="17.3333" y="428.333"/>
			<point x="17.3333" y="406.667"/>
			<point x="23.3333" y="400.667" type="curve"/>
			<point x="70" y="398"/>
			<point x="88.6667" y="387.667"/>
			<point x="88.6667" y="310" type="curve" smooth="yes"/>
			<point x="88.6667" y="142" type="line" smooth="yes"/>
			<point x="88.6667" y="48.3333"/>
			<point name=".hr02" x="126.667" y="-10"/>
		</contour>
		<contour>
			<point x="383.667" y="4.66667" type="curve"/>
			<point x="384.667" y="-5.66667"/>
			<point x="393.333" y="-10"/>
			<point x="406.333" y="-10" type="curve"/>
			<point x="438.333" y="2.66667"/>
			<point x="490" y="17"/>
			<point x="556.333" y="25.3333" type="curve"/>
			<point name=".hr03" x="559.667" y="31.3333"/>
			<point x="558.333" y="49.6667"/>
			<point x="555" y="55.6667" type="curve"/>
			<point x="497.667" y="60.6667"/>
			<point x="487.333" y="77.6667"/>
			<point x="487.333" y="132" type="curve" smooth="yes"/>
			<point x="487.333" y="311.333" type="line" smooth="yes"/>
			<point x="487.333" y="377.333"/>
			<point x="490" y="393.667"/>
			<point x="490" y="409.667" type="curve" smooth="yes"/>
			<point x="490" y="422"/>
			<point x="486.333" y="430.333"/>
			<point x="480.667" y="434.333" type="curve"/>
			<point x="467" y="433.333"/>
			<point x="448.667" y="432.333"/>
			<point x="431" y="432.333" type="curve" smooth="yes"/>
			<point x="401.667" y="432.333"/>
			<point x="346.333" y="433.333"/>
			<point x="309" y="434.333" type="curve"/>
			<point x="303" y="428.333"/>
			<point x="303" y="406.667"/>
			<point x="309" y="400.667" type="curve"/>
			<point x="359.333" y="396.333"/>
			<point x="374.333" y="387.667"/>
			<point x="374.333" y="309.667" type="curve" smooth="yes"/>
			<point x="374.333" y="122" type="line" smooth="yes"/>
			<point x="374.333" y="81.3333"/>
			<point x="377.333" y="44.6667"/>
		</contour>
	</outline>
	<anchor name="t.uni0302" x="257" y="500"/>
	<anchor name="m.uni0316_2" x="239" y="-110"/>
	<anchor name="b.uni0321_4" x="293" y="7"/>
</glyph>
<glyph name="v" format="2">
	<unicode hex="0076"/>
	<advance width="518"/>
	<outline>
		<contour>
			<point x="336.333" y="400.667" type="curve"/>
			<point x="390.333" y="396.667"/>
			<point x="397" y="382"/>
			<point x="375.333" y="331" type="curve" smooth="yes"/>
			<point x="295.667" y="143.667" type="line" smooth="yes"/>
			<point x="287.667" y="124.667"/>
			<point x="283.333" y="129.333"/>
			<point x="276" y="148" type="curve"/>
			<point x="206.667" y="340.333" type="line" smooth="yes"/>
			<point x="191.333" y="381.667"/>
			<point x="190.667" y="395"/>
			<point x="241" y="400.667" type="curve"/>
			<point x="247" y="406.667"/>
			<point x="247" y="428.333"/>
			<point x="241" y="434.333" type="curve"/>
			<point x="205.333" y="433.333"/>
			<point x="167" y="432.333"/>
			<point x="123.333" y="432.333" type="curve" smooth="yes"/>
			<point x="89" y="432.333"/>
			<point x="45" y="433.333"/>
			<point x="10.3333" y="434.333" type="curve"/>
			<point x="4.33333" y="428.333"/>
			<point x="4.33333" y="406.667"/>
			<point x="10.3333" y="400.667" type="curve"/>
			<point x="66.6667" y="394"/>
			<point x="70.3333" y="375.333"/>
			<point x="90.3333" y="325" type="curve" smooth="yes"/>
			<point x="220.333" y="9" type="line" smooth="yes"/>
			<point x="226.333" y="-6"/>
			<point x="239.667" y="-12"/>
			<point x="252.667" y="-12" type="curve" smooth="yes"/>
			<point x="262.667" y="-12"/>
			<point x="278.333" y="-8.66667"/>
			<point x="286.667" y="11" type="curve" smooth="yes"/>
			<point x="422.333" y="324" type="line" smooth="yes"/>
			<point x="442" y="368.667"/>
			<point x="454.333" y="395.667"/>
			<point x="508.333" y="400.667" type="curve"/>
			<point x="514.333" y="406.667"/>
			<point x="514.333" y="428.333"/>
			<point x="508.333" y="434.333" type="curve"/>
			<point x="487" y="433.333"/>
			<point x="457.667" y="432.333"/>
			<point x="434.333" y="432.333" type="curve" smooth="yes"/>
			<point x="398.667" y="432.333"/>
			<point x="362.667" y="433.333"/>
			<point x="336.333" y="434.333" type="curve"/>
			<point x="330.333" y="428.333"/>
			<point x="330.333" y="406.667"/>
		</contour>
	</outline>
	<anchor name="m.uni0302" x="256" y="646"/>
	<anchor name="m.uni0316_2" x="241" y="-110"/>
	<anchor name="m.uni031A_3" x="460" y="580"/>
</glyph>
<glyph name="w" format="2">
	<unicode hex="0077"/>
	<advance width="767"/>
	<outline>
		<contour>
			<point x="247.667" y="-12" type="curve" smooth="yes"/>
			<point x="257.333" y="-12"/>
			<point x="272.667" y="-8.66667"/>
			<point x="280.333" y="10.6667" type="curve" smooth="yes"/>
			<point x="376.667" y="256.667" type="line"/>
			<point x="475" y="8.66667" type="line" smooth="yes"/>
			<point x="481.667" y="-8"/>
			<point x="497" y="-12"/>
			<point x="509" y="-12" type="curve" smooth="yes"/>
			<point x="518.667" y="-12"/>
			<point x="532.667" y="-8"/>
			<point x="540" y="10.3333" type="curve" smooth="yes"/>
			<point x="665.667" y="319.333" type="line" smooth="yes"/>
			<point x="682.667" y="361.667"/>
			<point x="699.333" y="396.333"/>
			<point x="753.667" y="400.667" type="curve"/>
			<point x="759.667" y="406.667"/>
			<point x="759.667" y="428.333"/>
			<point x="753.667" y="434.333" type="curve"/>
			<point x="732.333" y="433.333"/>
			<point x="713" y="432.333"/>
			<point x="685.667" y="432.333" type="curve" smooth="yes"/>
			<point x="651" y="432.333"/>
			<point x="608.333" y="433.333"/>
			<point x="573.667" y="434.333" type="curve"/>
			<point x="567.667" y="428.333"/>
			<point x="567.667" y="406.667"/>
			<point x="573.667" y="400.667" type="curve"/>
			<point x="634.667" y="396.667"/>
			<point x="634" y="369.667"/>
			<point x="617.333" y="325.333" type="curve" smooth="yes"/>
			<point x="550.667" y="150.667" type="line" smooth="yes"/>
			<point x="544.667" y="134.333"/>
			<point x="539.333" y="135"/>
			<point x="534" y="148.667" type="curve"/>
			<point x="466" y="338.333" type="line" smooth="yes"/>
			<point x="450.333" y="382"/>
			<point x="447" y="396"/>
			<point x="504" y="400.667" type="curve"/>
			<point x="510" y="406.667"/>
			<point x="510" y="428.333"/>
			<point x="504" y="434.333" type="curve"/>
			<point x="469.333" y="433.333"/>
			<point x="427.333" y="432.333"/>
			<point x="383.333" y="432.333" type="curve" smooth="yes"/>
			<point x="353.667" y="432.333"/>
			<point x="312" y="433.333"/>
			<point x="279.333" y="434.333" type="curve"/>
			<point x="273.333" y="428.333"/>
			<point x="273.333" y="406.667"/>
			<point x="279.333" y="400.667" type="curve"/>
			<point x="328.333" y="394.667"/>
			<point x="331.667" y="372.333"/>
			<point x="351" y="323.333" type="curve" smooth="yes"/>
			<point x="355" y="312.667" type="line"/>
			<point x="293.667" y="149" type="line" smooth="yes"/>
			<point x="287.333" y="133.333"/>
			<point x="284" y="131.667"/>
			<point x="277" y="149" type="curve"/>
			<point x="210.333" y="336.333" type="line" smooth="yes"/>
			<point x="194.667" y="379.667"/>
			<point x="195" y="396.333"/>
			<point x="239" y="400.667" type="curve"/>
			<point x="245" y="406.667"/>
			<point x="245" y="428.333"/>
			<point x="239" y="434.333" type="curve"/>
			<point x="206.333" y="433.333"/>
			<point x="168.667" y="432.333"/>
			<point x="125.333" y="432.333" type="curve" smooth="yes"/>
			<point x="89.3333" y="432.333"/>
			<point x="46.3333" y="433.333"/>
			<point x="13" y="434.333" type="curve"/>
			<point x="7" y="428.333"/>
			<point x="7" y="406.667"/>
			<point x="13" y="400.667" type="curve"/>
			<point x="67.3333" y="394.333"/>
			<point x="73" y="378.333"/>
			<point x="92.6667" y="327" type="curve" smooth="yes"/>
			<point x="217.667" y="8.66667" type="line" smooth="yes"/>
			<point x="224.333" y="-8.66667"/>
			<point x="235.667" y="-12"/>
		</contour>
	</outline>
	<anchor name="m.uni0302" x="345" y="646"/>
	<anchor name="m.uni0316_2" x="352" y="-110"/>
	<anchor name="m.uni031A_3" x="719" y="580"/>
</glyph>
<glyph name="x" format="2">
	<unicode hex="0078"/>
	<advance width="537"/>
	<outline>
		<contour>
			<point x="18.3333" y="-2" type="curve"/>
			<point x="38.3333" y="-1"/>
			<point x="66.3333" y="0"/>
			<point x="97.6667" y="0" type="curve" smooth="yes"/>
			<point x="136.333" y="0"/>
			<point x="177" y="-1"/>
			<point x="199" y="-2" type="curve"/>
			<point x="205" y="4"/>
			<point x="205" y="25.6667"/>
			<point x="199" y="31.6667" type="curve"/>
			<point x="175" y="35.6667"/>
			<point x="151.667" y="41"/>
			<point x="173.667" y="72.3333" type="curve" smooth="yes"/>
			<point x="236" y="160.667" type="line" smooth="yes"/>
			<point x="241.333" y="168"/>
			<point x="244.667" y="169.667"/>
			<point x="248.667" y="163.333" type="curve"/>
			<point x="300" y="76" type="line" smooth="yes"/>
			<point x="323" y="38.6667"/>
			<point x="311" y="36"/>
			<point x="277" y="31.6667" type="curve"/>
			<point x="271" y="25.6667"/>
			<point x="271" y="4"/>
			<point x="277" y="-2" type="curve"/>
			<point x="300.333" y="-1"/>
			<point x="353.333" y="0"/>
			<point x="400.667" y="0" type="curve" smooth="yes"/>
			<point x="448" y="0"/>
			<point x="498.333" y="-1"/>
			<point x="519.667" y="-2" type="curve"/>
			<point x="525.667" y="4"/>
			<point x="525.667" y="25.6667"/>
			<point x="519.667" y="31.6667" type="curve"/>
			<point x="480" y="36.6667"/>
			<point x="452.333" y="46.3333"/>
			<point x="417.667" y="97.3333" type="curve" smooth="yes"/>
			<point x="329" y="227" type="line"/>
			<point x="324.333" y="234.333"/>
			<point x="324" y="237.333"/>
			<point x="327.667" y="242" type="curve" smooth="yes"/>
			<point x="415" y="349.667" type="line" smooth="yes"/>
			<point x="446" y="388"/>
			<point x="478" y="397.667"/>
			<point x="510.667" y="400.667" type="curve"/>
			<point x="516.667" y="406.667"/>
			<point x="516.667" y="428.333"/>
			<point x="510.667" y="434.333" type="curve"/>
			<point x="490.667" y="433.333"/>
			<point x="462.333" y="432.333"/>
			<point x="430.333" y="432.333" type="curve" smooth="yes"/>
			<point x="394.333" y="432.333"/>
			<point x="357.667" y="433.333"/>
			<point x="335.667" y="434.333" type="curve"/>
			<point x="329.667" y="428.333"/>
			<point x="329.667" y="406.667"/>
			<point x="335.667" y="400.667" type="curve"/>
			<point x="372" y="397.333"/>
			<point x="381" y="389"/>
			<point x="359.667" y="358.333" type="curve" smooth="yes"/>
			<point x="302" y="276.667" type="line"/>
			<point x="297.667" y="270"/>
			<point x="293" y="270.333"/>
			<point x="287.667" y="278.667" type="curve" smooth="yes"/>
			<point x="237.333" y="359.333" type="line" smooth="yes"/>
			<point x="215.667" y="394.667"/>
			<point x="226.667" y="396.333"/>
			<point x="267" y="400.667" type="curve"/>
			<point x="273" y="406.667"/>
			<point x="273" y="428.333"/>
			<point x="267" y="434.333" type="curve"/>
			<point x="244.667" y="433.333"/>
			<point x="186.667" y="432.333"/>
			<point x="140" y="432.333" type="curve" smooth="yes"/>
			<point x="97.3333" y="432.333"/>
			<point x="49.3333" y="433.333"/>
			<point x="27.3333" y="434.333" type="curve"/>
			<point x="21.3333" y="428.333"/>
			<point x="21.3333" y="406.667"/>
			<point x="27.3333" y="400.667" type="curve"/>
			<point x="68.6667" y="399.667"/>
			<point x="91.3333" y="376"/>
			<point x="119.333" y="335.667" type="curve" smooth="yes"/>
			<point x="207.667" y="208.667" type="line" smooth="yes"/>
			<point x="211.333" y="203.667"/>
			<point x="211.333" y="200"/>
			<point x="206" y="193.667" type="curve"/>
			<point x="116.667" y="81.6667" type="line" smooth="yes"/>
			<point x="86.6667" y="43.3333"/>
			<point x="50" y="35"/>
			<point x="18.3333" y="31.6667" type="curve"/>
			<point x="12.3333" y="25.6667"/>
			<point x="12.3333" y="4"/>
		</contour>
	</outline>
	<anchor name="m.uni0302" x="256" y="646"/>
	<anchor name="m.uni0316_2" x="224" y="-110"/>
	<anchor name="m.uni031A_3" x="469" y="580"/>
	<anchor name="t.uni0302" x="292.667" y="500"/>
</glyph>
<glyph name="y" format="2">
	<unicode hex="0079"/>
	<advance width="544"/>
	<outline>
		<contour>
			<point x="309.333" y="101.333" type="line"/>
			<point x="205.667" y="338.333" type="line" smooth="yes"/>
			<point x="188.333" y="378.333"/>
			<point x="181.333" y="396"/>
			<point x="239.333" y="400.667" type="curve"/>
			<point x="245.333" y="406.667"/>
			<point x="245.333" y="428.333"/>
			<point x="239.333" y="434.333" type="curve"/>
			<point x="202.333" y="433.333"/>
			<point x="149" y="432.333"/>
			<point x="113" y="432.333" type="curve" smooth="yes"/>
			<point x="79" y="432.333"/>
			<point x="32" y="433.333"/>
			<point x="12" y="434.333" type="curve"/>
			<point x="6" y="428.333"/>
			<point x="6" y="406.667"/>
			<point x="12" y="400.667" type="curve"/>
			<point x="54.6667" y="396.333"/>
			<point x="64.3333" y="388.667"/>
			<point x="91" y="326.333" type="curve" smooth="yes"/>
			<point x="246.667" y="-33.3333" type="line"/>
		</contour>
		<contour>
			<point x="69.6667" y="-184.333" type="curve" smooth="yes"/>
			<point x="69.3333" y="-210"/>
			<point x="87.3333" y="-232"/>
			<point x="119" y="-232" type="curve" smooth="yes"/>
			<point x="192" y="-232"/>
			<point x="212.333" y="-209.333"/>
			<point x="271.667" y="-74" type="curve" smooth="yes"/>
			<point x="452" y="337.333" type="line" smooth="yes"/>
			<point x="467" y="371"/>
			<point x="492.667" y="396.667"/>
			<point x="533" y="400.667" type="curve"/>
			<point x="539" y="406.667"/>
			<point x="539" y="428.333"/>
			<point x="533" y="434.333" type="curve"/>
			<point x="509.667" y="433.333"/>
			<point x="490" y="432.333"/>
			<point x="462" y="432.333" type="curve" smooth="yes"/>
			<point x="428.667" y="432.333"/>
			<point x="395.667" y="433.333"/>
			<point x="361" y="434.333" type="curve"/>
			<point x="355" y="428.333"/>
			<point x="355" y="406.667"/>
			<point x="361" y="400.667" type="curve"/>
			<point x="393" y="397.667"/>
			<point x="425" y="392.333"/>
			<point x="409" y="356.333" type="curve" smooth="yes"/>
			<point x="209" y="-97.3333" type="line"/>
			<point x="198" y="-125"/>
			<point x="184" y="-139.667"/>
			<point x="157" y="-139.667" type="curve" smooth="yes"/>
			<point x="134.667" y="-139.667"/>
			<point x="129.333" y="-135.667"/>
			<point x="111.667" y="-136" type="curve" smooth="yes"/>
			<point x="86.6667" y="-136.333"/>
			<point x="70" y="-161.333"/>
		</contour>
	</outline>
	<anchor name="t.uni0302" x="262" y="500"/>
	<anchor name="m.uni0316_2" x="242" y="-319"/>
</glyph>
<glyph name="braceright" format="2">
	<unicode hex="007D"/>
	<advance width="297"/>
	<outline>
		<contour>
			<point x="97.6667" y="-56.6667" type="line" smooth="yes"/>
			<point x="102.667" y="-159.667"/>
			<point x="55.6667" y="-176.667"/>
			<point x="17.6667" y="-187.667" type="curve"/>
			<point x="11.6667" y="-193.667"/>
			<point x="11.6667" y="-205.667"/>
			<point x="17.6667" y="-211.667" type="curve"/>
			<point x="107.667" y="-211.667"/>
			<point x="193.667" y="-171.667"/>
			<point x="189.667" y="-58.6667" type="curve" smooth="yes"/>
			<point x="183.667" y="125.333" type="line"/>
			<point x="183.667" y="175.333"/>
			<point x="207.667" y="226.667"/>
			<point x="281.667" y="233.667" type="curve"/>
			<point x="290.667" y="242.667"/>
			<point x="289.667" y="255"/>
			<point x="281.667" y="263" type="curve"/>
			<point x="208.667" y="272"/>
			<point x="181.667" y="313.333"/>
			<point x="183.667" y="374.333" type="curve" smooth="yes"/>
			<point x="189.667" y="544.333" type="line" smooth="yes"/>
			<point x="194.667" y="674.333"/>
			<point x="118.667" y="707.333"/>
			<point x="17.6667" y="707.333" type="curve"/>
			<point x="11.6667" y="701.333"/>
			<point x="11.6667" y="689.333"/>
			<point x="17.6667" y="683.333" type="curve"/>
			<point x="61.6667" y="683.333"/>
			<point x="102.667" y="633.333"/>
			<point x="97.6667" y="549.333" type="curve" smooth="yes"/>
			<point x="89.6667" y="400.333" type="line" smooth="yes"/>
			<point x="85.6667" y="318.333"/>
			<point x="126.667" y="278.333"/>
			<point x="194.667" y="250.333" type="curve"/>
			<point x="194.667" y="246.333" type="line"/>
			<point x="127.667" y="227.333"/>
			<point x="85.6667" y="198.333"/>
			<point x="89.6667" y="109.333" type="curve" smooth="yes"/>
		</contour>
	</outline>
</glyph>
<glyph name="brokenbar" format="2">
	<unicode hex="00A6"/>
	<advance width="217"/>
	<outline>
		<contour>
			<point x="136.667" y="161" type="line"/>
			<point x="80.3333" y="161" type="line"/>
			<point x="80.3333" y="-201" type="line"/>
			<point x="136.667" y="-201" type="line"/>
		</contour>
		<contour>
			<point x="136.667" y="674" type="line"/>
			<point x="80.3333" y="674" type="line"/>
			<point x="80.3333" y="312" type="line"/>
			<point x="136.667" y="312" type="line"/>
		</contour>
	</outline>
</glyph>
<glyph name="section" format="2">
	<unicode hex="00A7"/>
	<advance width="468"/>
	<outline>
		<contour>
			<point x="403.667" y="-30.6667" type="curve" smooth="yes"/>
			<point x="403.667" y="10"/>
			<point x="389" y="47.3333"/>
			<point x="358.667" y="82.3333" type="curve"/>
			<point x="398.333" y="115.667"/>
			<point name=".hr01" x="432.333" y="160.333"/>
			<point x="432.333" y="219" type="curve" smooth="yes"/>
			<point x="432.333" y="340"/>
			<point x="346.333" y="381.667"/>
			<point x="246.667" y="431.667" type="curve" smooth="yes"/>
			<point x="241.333" y="434.333"/>
			<point x="236.667" y="436.333"/>
			<point x="232" y="439" type="curve"/>
			<point x="189.667" y="461.333"/>
			<point x="165.333" y="484"/>
			<point x="162.667" y="523" type="curve"/>
			<point x="162" y="525.667"/>
			<point x="161.667" y="528.333"/>
			<point x="161.667" y="531.333" type="curve" smooth="yes"/>
			<point x="161.667" y="577.333"/>
			<point x="185" y="617"/>
			<point x="230" y="623" type="curve" smooth="yes"/>
			<point x="236" y="623.667"/>
			<point x="242" y="624"/>
			<point x="247.667" y="623.667" type="curve" smooth="yes"/>
			<point x="292.333" y="621.667"/>
			<point x="305" y="597"/>
			<point name=".hr02" x="308" y="571.333" type="curve"/>
			<point x="308" y="560.667"/>
			<point x="298.667" y="560"/>
			<point x="298.667" y="539.333" type="curve"/>
			<point x="300.333" y="525.667"/>
			<point x="315" y="491.667"/>
			<point x="352.333" y="491.667" type="curve" smooth="yes"/>
			<point x="376.667" y="491.667"/>
			<point x="401.667" y="512"/>
			<point x="401.667" y="537.667" type="curve" smooth="yes"/>
			<point x="401.667" y="607.333"/>
			<point x="339" y="658"/>
			<point x="241.333" y="658" type="curve" smooth="yes"/>
			<point x="194.333" y="658"/>
			<point x="151" y="643.667"/>
			<point x="120.667" y="617.333" type="curve" smooth="yes"/>
			<point x="90.3333" y="591.333"/>
			<point x="72.6667" y="553"/>
			<point x="70" y="520" type="curve" smooth="yes"/>
			<point x="69.3333" y="513.667"/>
			<point x="69.3333" y="508"/>
			<point x="70" y="502.333" type="curve"/>
			<point x="71.3333" y="464.333"/>
			<point x="84.6667" y="432.667"/>
			<point name=".hr03" x="107.667" y="406.333" type="curve"/>
			<point name=".hr04" x="70" y="374.667"/>
			<point x="38.3333" y="331"/>
			<point name=".hr05" x="37" y="278.333" type="curve"/>
			<point x="36.6667" y="273.333"/>
			<point x="36.6667" y="268.667"/>
			<point x="36.6667" y="263.667" type="curve"/>
			<point x="40" y="183.667"/>
			<point x="90.6667" y="134.333"/>
			<point x="182" y="83.6667" type="curve" smooth="yes"/>
			<point x="200.333" y="74"/>
			<point x="219.333" y="63"/>
			<point x="237" y="52.3333" type="curve" smooth="yes"/>
			<point x="276.667" y="27.3333"/>
			<point x="303.667" y="-0.666667"/>
			<point x="306.333" y="-33.6667" type="curve"/>
			<point x="307" y="-36.3333"/>
			<point x="307.333" y="-39"/>
			<point x="307.333" y="-42" type="curve" smooth="yes"/>
			<point x="307.333" y="-97.3333"/>
			<point x="278.667" y="-131"/>
			<point x="238.333" y="-135.667" type="curve" smooth="yes"/>
			<point x="233" y="-136.333"/>
			<point x="227.667" y="-136"/>
			<point x="222.667" y="-135.667" type="curve" smooth="yes"/>
			<point x="174" y="-133.667"/>
			<point x="163.333" y="-98.3333"/>
			<point x="160.333" y="-82.6667" type="curve"/>
			<point x="160.333" y="-73.3333"/>
			<point x="171" y="-68"/>
			<point x="171" y="-50.6667" type="curve"/>
			<point x="169.333" y="-38.3333"/>
			<point x="156" y="-11.6667"/>
			<point x="127.333" y="-5" type="curve"/>
			<point x="123.333" y="-3.66667"/>
			<point x="119.333" y="-3"/>
			<point x="114.667" y="-3" type="curve" smooth="yes"/>
			<point x="91" y="-3"/>
			<point x="67.3333" y="-24"/>
			<point x="67.3333" y="-48.3333" type="curve" smooth="yes"/>
			<point x="67.3333" y="-120"/>
			<point x="146.667" y="-170"/>
			<point x="227.667" y="-170" type="curve" smooth="yes"/>
			<point x="353.333" y="-170"/>
			<point x="403.667" y="-98.6667"/>
		</contour>
		<contour>
			<point x="127.333" y="386" type="curve"/>
			<point x="140" y="374.667"/>
			<point x="153.667" y="366"/>
			<point x="167.333" y="358.333" type="curve"/>
			<point x="185" y="349.667"/>
			<point x="201.667" y="340.667"/>
			<point x="218" y="332.333" type="curve" smooth="yes"/>
			<point x="302.667" y="289"/>
			<point x="359" y="252.333"/>
			<point x="363" y="179" type="curve"/>
			<point name=".hr06" x="363" y="174.667"/>
			<point x="363" y="170.333"/>
			<point x="362.667" y="166" type="curve" smooth="yes"/>
			<point x="361" y="142.333"/>
			<point x="352.333" y="121.333"/>
			<point x="337.667" y="104" type="curve"/>
			<point x="316" y="124"/>
			<point x="289" y="143"/>
			<point x="257.667" y="159.667" type="curve"/>
			<point x="253" y="162.667"/>
			<point x="248.667" y="164.667"/>
			<point x="243.667" y="167" type="curve"/>
			<point x="158" y="210.667"/>
			<point x="112" y="251.667"/>
			<point x="107.333" y="308.333" type="curve"/>
			<point x="106.667" y="314.333"/>
			<point x="106" y="320"/>
			<point x="106.333" y="326.333" type="curve" smooth="yes"/>
			<point x="108" y="349"/>
			<point x="114.667" y="368.333"/>
		</contour>
	</outline>
</glyph>
<glyph name="copyright" format="2">
	<unicode hex="00A9"/>
	<advance width="659"/>
	<outline>
		<contour>
			<point x="321" y="19" type="curve" smooth="yes"/>
			<point x="479" y="19"/>
			<point x="608.667" y="148"/>
			<point x="608.667" y="306" type="curve" smooth="yes"/>
			<point x="608.667" y="464"/>
			<point x="479" y="592"/>
			<point x="321" y="592" type="curve" smooth="yes"/>
			<point x="163" y="592"/>
			<point x="32.6667" y="464"/>
			<point x="32.6667" y="306" type="curve" smooth="yes"/>
			<point x="32.6667" y="149"/>
			<point x="162" y="19"/>
		</contour>
		<contour>
			<point x="321" y="548.667" type="curve" smooth="yes"/>
			<point x="454" y="548.667"/>
			<point x="560.667" y="439.667"/>
			<point x="560.667" y="306" type="curve" smooth="yes"/>
			<point x="560.667" y="172.333"/>
			<point x="453.667" y="63"/>
			<point x="321" y="63" type="curve" smooth="yes"/>
			<point x="186.333" y="63"/>
			<point x="80.6667" y="173.333"/>
			<point x="80.6667" y="306" type="curve" smooth="yes"/>
			<point x="80.6667" y="439"/>
			<point x="187" y="548.667"/>
		</contour>
		<contour>
			<point x="439" y="217.333" type="curve"/>
			<point x="434.667" y="223.333"/>
			<point x="430.667" y="229.333"/>
			<point x="421.333" y="232.333" type="curve"/>
			<point x="411.333" y="217.667"/>
			<point x="391" y="194.667"/>
			<point x="346.667" y="192.667" type="curve"/>
			<point x="345" y="192.333"/>
			<point x="343.333" y="192.333"/>
			<point x="341.333" y="192.333" type="curve" smooth="yes"/>
			<point x="288.667" y="192.333"/>
			<point x="260" y="236"/>
			<point x="260" y="307" type="curve" smooth="yes"/>
			<point x="260" y="397.667"/>
			<point x="298.333" y="422.667"/>
			<point x="331.667" y="422.667" type="curve" smooth="yes"/>
			<point x="379.333" y="422.667"/>
			<point x="393" y="401.667"/>
			<point x="414" y="356.333" type="curve"/>
			<point x="421.333" y="356.333"/>
			<point x="428.333" y="356.667"/>
			<point x="432.667" y="359.667" type="curve"/>
			<point x="432.667" y="362.667"/>
			<point x="432.667" y="364.667"/>
			<point x="432" y="367.667" type="curve"/>
			<point x="431.667" y="386.667"/>
			<point x="430" y="405.333"/>
			<point x="426.667" y="434" type="curve"/>
			<point x="408" y="438.667"/>
			<point x="391.667" y="452.333"/>
			<point x="326.333" y="452.333" type="curve" smooth="yes"/>
			<point x="282.333" y="452.333"/>
			<point x="243.333" y="434.667"/>
			<point x="216.333" y="404.667" type="curve" smooth="yes"/>
			<point x="193" y="379"/>
			<point x="179.667" y="343.333"/>
			<point x="179.667" y="305.333" type="curve" smooth="yes"/>
			<point x="179.667" y="265.667"/>
			<point x="193.667" y="227.333"/>
			<point x="221.333" y="198.333" type="curve" smooth="yes"/>
			<point x="224.333" y="195.333"/>
			<point x="226.667" y="193.333"/>
			<point x="229.667" y="190.333" type="curve"/>
			<point x="256" y="168.333"/>
			<point x="294" y="156"/>
			<point x="329.667" y="156" type="curve" smooth="yes"/>
			<point x="380.667" y="156"/>
			<point x="420.333" y="187"/>
		</contour>
	</outline>
</glyph>
<glyph name="ordfeminine" format="2">
	<unicode hex="00AA"/>
	<advance width="300"/>
	<outline>
		<contour>
			<point x="176.667" y="522.333" type="curve"/>
			<point x="130" y="510.667" type="line" smooth="yes"/>
			<point x="68.3333" y="495.333"/>
			<point x="23.6667" y="464.667"/>
			<point x="20.3333" y="426" type="curve"/>
			<point x="20.3333" y="424"/>
			<point x="20.3333" y="422.667"/>
			<point x="20.3333" y="421.333" type="curve" smooth="yes"/>
			<point x="20.3333" y="400.333"/>
			<point x="27" y="378.667"/>
			<point x="43.6667" y="366.667" type="curve" smooth="yes"/>
			<point x="59" y="355.333"/>
			<point x="77" y="351.333"/>
			<point x="97.3333" y="351.333" type="curve" smooth="yes"/>
			<point x="121" y="351.333"/>
			<point x="150.333" y="360.333"/>
			<point x="177.667" y="386.333" type="curve"/>
			<point x="180.333" y="366"/>
			<point x="193" y="355.333"/>
			<point name=".hr01" x="215.333" y="353" type="curve"/>
			<point x="220" y="352"/>
			<point x="225.333" y="352"/>
			<point x="231" y="352.667" type="curve"/>
			<point x="249.333" y="355.333"/>
			<point x="271" y="366"/>
			<point x="282.667" y="377.333" type="curve"/>
			<point x="281" y="383.333"/>
			<point x="277" y="389"/>
			<point x="272.667" y="393.333" type="curve"/>
			<point x="269.667" y="391"/>
			<point x="262" y="387.667"/>
			<point x="258" y="387.667" type="curve" smooth="yes"/>
			<point x="249.333" y="387.667"/>
			<point x="244" y="394.333"/>
			<point x="244" y="432.667" type="curve" smooth="yes"/>
			<point x="244" y="436.333"/>
			<point x="244" y="440"/>
			<point x="244" y="444" type="curve"/>
			<point x="245.333" y="513.667" type="line"/>
			<point x="245.333" y="517.667"/>
			<point x="245.333" y="521.333"/>
			<point x="245.333" y="525" type="curve"/>
			<point x="246" y="578"/>
			<point x="237.333" y="604.333"/>
			<point x="212.333" y="622.333" type="curve"/>
			<point x="192.333" y="638"/>
			<point x="164" y="642"/>
			<point x="140.333" y="642.333" type="curve"/>
			<point x="139.667" y="642.333"/>
			<point x="138.667" y="642.333"/>
			<point x="138" y="642.333" type="curve"/>
			<point x="90" y="642.333"/>
			<point x="25.3333" y="607.333"/>
			<point x="25.3333" y="567.333" type="curve" smooth="yes"/>
			<point x="25.3333" y="549.667"/>
			<point x="37.6667" y="539.667"/>
			<point x="51.3333" y="538.333" type="curve"/>
			<point x="53.3333" y="537.667"/>
			<point x="55.3333" y="537.667"/>
			<point x="56.6667" y="537.667" type="curve" smooth="yes"/>
			<point x="73.6667" y="537.667"/>
			<point x="86.6667" y="548"/>
			<point x="90" y="558.667" type="curve" smooth="yes"/>
			<point x="90.6667" y="561"/>
			<point x="91.3333" y="563.667"/>
			<point x="91" y="565.667" type="curve"/>
			<point x="91" y="569"/>
			<point x="90.3333" y="571.667"/>
			<point x="90" y="574" type="curve"/>
			<point x="88.3333" y="577.333"/>
			<point x="86.6667" y="580.667"/>
			<point x="86.6667" y="588.333" type="curve" smooth="yes"/>
			<point x="86.6667" y="602.333"/>
			<point x="105" y="614"/>
			<point x="136" y="614" type="curve" smooth="yes"/>
			<point x="159" y="614"/>
			<point x="177.333" y="596"/>
		</contour>
		<contour>
			<point x="175.333" y="413" type="line"/>
			<point x="154.667" y="394"/>
			<point x="143" y="386.667"/>
			<point name=".hr02" x="124" y="386.667" type="curve" smooth="yes"/>
			<point x="95.3333" y="386.667"/>
			<point x="87" y="403.333"/>
			<point x="87" y="424.333" type="curve" smooth="yes"/>
			<point x="87" y="447.333"/>
			<point x="105" y="474"/>
			<point x="176.667" y="495.333" type="curve"/>
		</contour>
	</outline>
</glyph>
<glyph name="guillemotleft" format="2">
	<unicode hex="00AB"/>
	<advance width="551"/>
	<outline>
		<contour>
			<point x="226.667" y="209.667" type="curve"/>
			<point x="284.667" y="183.333"/>
			<point x="327" y="173.333"/>
			<point x="391.667" y="143.667" type="curve"/>
			<point x="397.667" y="149"/>
			<point x="403.333" y="157.667"/>
			<point x="403" y="164.667" type="curve"/>
			<point x="350.667" y="187"/>
			<point x="311.333" y="207.333"/>
			<point x="272" y="217" type="curve"/>
			<point x="292.667" y="242.501"/>
			<point x="315.333" y="277.18"/>
			<point x="341.333" y="326.333" type="curve"/>
			<point x="356.667" y="316.667"/>
			<point x="364" y="306.667"/>
			<point x="383.667" y="280" type="curve"/>
			<point x="340" y="224.333"/>
			<point x="313.667" y="201"/>
			<point x="269" y="163.667" type="curve"/>
			<point x="251.667" y="187.625"/>
			<point x="239.333" y="197.089"/>
		</contour>
		<contour>
			<point x="161.333" y="209.667" type="curve"/>
			<point x="219.333" y="183.333"/>
			<point x="261.667" y="173.333"/>
			<point x="326.333" y="143.667" type="curve"/>
			<point x="332.333" y="149"/>
			<point x="338" y="157.667"/>
			<point x="337.667" y="164.667" type="curve"/>
			<point x="285.333" y="187"/>
			<point x="246" y="207.333"/>
			<point x="206.667" y="217" type="curve"/>
			<point x="227.333" y="242.501"/>
			<point x="250" y="277.18"/>
			<point x="276" y="326.333" type="curve"/>
			<point x="291.333" y="316.667"/>
			<point x="298.667" y="306.667"/>
			<point x="318.333" y="280" type="curve"/>
			<point x="274.667" y="224.333"/>
			<point x="248.333" y="201"/>
			<point x="203.667" y="163.667" type="curve"/>
			<point x="186.333" y="187.625"/>
			<point x="174" y="197.089"/>
		</contour>
	</outline>
</glyph>
<glyph name="degree" format="2">
	<unicode hex="00B0"/>
	<advance width="267"/>
	<outline>
		<contour>
			<point x="30" y="519.667" type="curve" smooth="yes"/>
			<point x="30" y="462.667"/>
			<point x="77" y="416.333"/>
			<point x="134" y="416.333" type="curve" smooth="yes"/>
			<point x="191" y="416.333"/>
			<point x="237" y="462.667"/>
			<point x="237" y="519.667" type="curve" smooth="yes"/>
			<point x="237" y="577.667"/>
			<point x="191" y="624"/>
			<point x="134" y="624" type="curve" smooth="yes"/>
			<point x="77" y="624"/>
			<point x="30" y="577.667"/>
		</contour>
		<contour>
			<point x="197" y="518.667" type="curve" smooth="yes"/>
			<point x="197" y="486"/>
			<point x="173.667" y="451.667"/>
			<point x="134" y="451.667" type="curve" smooth="yes"/>
			<point x="94" y="451.667"/>
			<point x="70" y="485"/>
			<point x="70" y="518.667" type="curve" smooth="yes"/>
			<point x="70" y="553.333"/>
			<point x="93" y="588.667"/>
			<point x="134" y="588.667" type="curve" smooth="yes"/>
			<point x="177" y="588.667"/>
			<point x="197" y="550.333"/>
		</contour>
	</outline>
</glyph>
<glyph name="plusminus" format="2">
	<unicode hex="00B1"/>
	<advance width="535"/>
	<outline>
		<contour>
			<point x="304" y="356.333" type="line"/>
			<point x="304" y="495.667" type="line" smooth="yes"/>
			<point x="304" y="508.333"/>
			<point x="301" y="518.333"/>
			<point x="298.333" y="527.667" type="curve"/>
			<point x="278.333" y="527.667"/>
			<point x="254.667" y="523"/>
			<point x="238" y="518.667" type="curve"/>
			<point x="238" y="356.333" type="line"/>
			<point x="69" y="356.333" type="line"/>
			<point x="65" y="339.667"/>
			<point x="60.6667" y="317.333"/>
			<point x="60.6667" y="295.667" type="curve"/>
			<point x="70" y="293"/>
			<point x="82" y="290.333"/>
			<point x="94.3333" y="290.333" type="curve" smooth="yes"/>
			<point x="238" y="290.333" type="line"/>
			<point x="238" y="152.333" type="line" smooth="yes"/>
			<point x="238" y="140"/>
			<point x="240.667" y="129.333"/>
			<point x="243.333" y="120" type="curve"/>
			<point x="265" y="120"/>
			<point x="287.333" y="124.333"/>
			<point x="304" y="128.333" type="curve"/>
			<point x="304" y="290.333" type="line"/>
			<point x="472.333" y="290.333" type="line"/>
			<point x="476.667" y="307"/>
			<point x="481.333" y="330.667"/>
			<point x="481.333" y="350.667" type="curve"/>
			<point x="472" y="353.333"/>
			<point x="461.333" y="356.333"/>
			<point x="448" y="356.333" type="curve" smooth="yes"/>
		</contour>
		<contour>
			<point x="478.667" y="74.6667" type="curve"/>
			<point x="464" y="77.3333"/>
			<point x="448" y="80.3333"/>
			<point x="430" y="80.3333" type="curve" smooth="yes"/>
			<point x="77.6667" y="80.3333" type="line"/>
			<point x="71.6667" y="67"/>
			<point x="64.6667" y="47.3333"/>
			<point x="62.6667" y="29" type="curve"/>
			<point x="77.3333" y="26.3333"/>
			<point x="94" y="23.6667"/>
			<point x="112.333" y="23.6667" type="curve" smooth="yes"/>
			<point x="463" y="23.6667" type="line"/>
			<point x="469.333" y="37"/>
			<point x="476.667" y="58"/>
		</contour>
	</outline>
</glyph>
<glyph name="uni00B3" format="2">
	<unicode hex="00B3"/>
	<advance width="329"/>
	<outline>
		<contour>
			<point x="193.333" y="631.333" type="curve" smooth="yes"/>
			<point x="193.333" y="589"/>
			<point x="152.333" y="560.333"/>
			<point x="108.333" y="554.333" type="curve"/>
			<point x="107.333" y="544.667"/>
			<point x="107.333" y="534.333"/>
			<point x="109" y="525.333" type="curve"/>
			<point x="120.333" y="527.667"/>
			<point x="130" y="528.667"/>
			<point x="138.333" y="528.667" type="curve" smooth="yes"/>
			<point x="173.667" y="528.667"/>
			<point name=".hr01" x="213.333" y="519.333"/>
			<point x="213.333" y="471" type="curve" smooth="yes"/>
			<point x="213.333" y="408.333"/>
			<point x="168" y="388.667"/>
			<point x="145" y="388.667" type="curve" smooth="yes"/>
			<point x="124" y="388.667"/>
			<point x="111.667" y="396.333"/>
			<point x="104" y="404" type="curve"/>
			<point x="101.667" y="407"/>
			<point x="99" y="411.333"/>
			<point x="95.6667" y="416.667" type="curve" smooth="yes"/>
			<point x="89.3333" y="427.333"/>
			<point x="80.3333" y="437"/>
			<point x="64.3333" y="437.333" type="curve"/>
			<point x="60.6667" y="437.667"/>
			<point x="58" y="437.667"/>
			<point x="55" y="437" type="curve" smooth="yes"/>
			<point x="39.6667" y="433.667"/>
			<point x="28.6667" y="421.333"/>
			<point x="28.6667" y="406.333" type="curve" smooth="yes"/>
			<point x="28.6667" y="403.667"/>
			<point x="29.3333" y="400.667"/>
			<point x="30.3333" y="398" type="curve"/>
			<point x="40" y="368.667"/>
			<point x="95" y="359.333"/>
			<point x="134.667" y="358.667" type="curve"/>
			<point x="135.667" y="358.667"/>
			<point x="136.333" y="358.667"/>
			<point x="137" y="358.667" type="curve"/>
			<point x="223.667" y="358.667"/>
			<point x="297.333" y="405.333"/>
			<point x="297.333" y="479" type="curve" smooth="yes"/>
			<point x="297.333" y="534.333"/>
			<point x="257.667" y="556.667"/>
			<point x="222" y="565" type="curve"/>
			<point x="220.667" y="565.667"/>
			<point x="221.333" y="567"/>
			<point x="222" y="567.667" type="curve"/>
			<point x="251" y="585.667"/>
			<point name=".hr02" x="270.333" y="610"/>
			<point x="270.333" y="636.333" type="curve" smooth="yes"/>
			<point x="270.333" y="676.667"/>
			<point x="228.667" y="702"/>
			<point x="168" y="702" type="curve" smooth="yes"/>
			<point x="70.3333" y="702"/>
			<point x="38.6667" y="644.667"/>
			<point x="38.6667" y="626.333" type="curve" smooth="yes"/>
			<point x="38.6667" y="622.667"/>
			<point x="40.6667" y="601.667"/>
			<point x="68.3333" y="601.667" type="curve" smooth="yes"/>
			<point x="95.3333" y="601.667"/>
			<point x="102.333" y="625"/>
			<point x="104" y="638" type="curve"/>
			<point x="107.667" y="658.667"/>
			<point x="132.333" y="672"/>
			<point x="152.667" y="672" type="curve" smooth="yes"/>
			<point x="172.667" y="672"/>
			<point x="193.333" y="659.333"/>
		</contour>
	</outline>
</glyph>
<glyph name="mu" format="2">
	<unicode hex="00B5"/>
	<advance width="544"/>
	<outline>
		<contour>
			<point x="342.667" y="52.6667" type="line"/>
			<point x="348.333" y="17.3333"/>
			<point x="370.333" y="-6.66667"/>
			<point x="414.333" y="-9.33333" type="curve" smooth="yes"/>
			<point x="423" y="-9.66667"/>
			<point x="432" y="-9.33333"/>
			<point name=".hr01" x="440.667" y="-8.66667" type="curve" smooth="yes"/>
			<point x="485.333" y="-4.66667"/>
			<point x="520.667" y="21.3333"/>
			<point x="540.667" y="42.3333" type="curve"/>
			<point x="540.667" y="52.6667"/>
			<point x="534" y="59.3333"/>
			<point x="524.667" y="66" type="curve"/>
			<point x="516" y="61.3333"/>
			<point x="509.667" y="52.6667"/>
			<point x="493.667" y="52" type="curve"/>
			<point x="489.333" y="51.3333"/>
			<point x="485" y="51.6667"/>
			<point x="480.333" y="52" type="curve"/>
			<point x="456.667" y="54.6667"/>
			<point x="449.667" y="79"/>
			<point x="449.667" y="125" type="curve" smooth="yes"/>
			<point x="449.667" y="445" type="line"/>
			<point x="412.333" y="440.667"/>
			<point x="373.667" y="435.667"/>
			<point x="336.667" y="432.333" type="curve"/>
			<point x="336.667" y="101" type="line"/>
			<point x="314.333" y="70"/>
			<point name=".hr02" x="262" y="47"/>
			<point x="216.333" y="47" type="curve" smooth="yes"/>
			<point x="174.333" y="47"/>
			<point x="163.333" y="93"/>
			<point x="163.333" y="155.667" type="curve" smooth="yes"/>
			<point x="163.333" y="343" type="line" smooth="yes"/>
			<point x="163.333" y="375"/>
			<point x="160.333" y="444.333"/>
			<point x="160.333" y="444.333" type="curve"/>
			<point x="119.667" y="440.667"/>
			<point x="78" y="435"/>
			<point x="39.3333" y="432.333" type="curve"/>
			<point x="39.3333" y="432.333"/>
			<point x="50.3333" y="348.667"/>
			<point x="50.3333" y="322.667" type="curve" smooth="yes"/>
			<point x="50.3333" y="136" type="line" smooth="yes"/>
			<point x="50.3333" y="107.667"/>
			<point x="58.6667" y="70.3333"/>
			<point x="61.6667" y="44" type="curve"/>
			<point x="63" y="24.3333"/>
			<point name=".hr03" x="64.6667" y="8.33333"/>
			<point x="64.6667" y="-5.33333" type="curve" smooth="yes"/>
			<point x="64.6667" y="-40.6667"/>
			<point x="59" y="-68"/>
			<point x="55" y="-94.6667" type="curve" smooth="yes"/>
			<point name=".hr04" x="51" y="-119.667"/>
			<point x="48" y="-143.333"/>
			<point x="48" y="-165" type="curve" smooth="yes"/>
			<point x="48" y="-204"/>
			<point x="88.6667" y="-228"/>
			<point x="109.667" y="-232" type="curve" smooth="yes"/>
			<point x="113" y="-232.667"/>
			<point x="117" y="-232.333"/>
			<point x="119.667" y="-232" type="curve"/>
			<point x="143.667" y="-230.333"/>
			<point x="166" y="-214"/>
			<point x="170.667" y="-181.333" type="curve" smooth="yes"/>
			<point x="171.333" y="-177"/>
			<point x="172" y="-171.667"/>
			<point x="171.667" y="-166.667" type="curve"/>
			<point x="171.333" y="-149.333"/>
			<point x="165" y="-122.667"/>
			<point x="159" y="-97.3333" type="curve" smooth="yes"/>
			<point x="154.667" y="-78.6667"/>
			<point x="152.667" y="-58.6667"/>
			<point x="151.667" y="-38.3333" type="curve"/>
			<point name=".hr05" x="150.667" y="-28.6667"/>
			<point x="150" y="-18.3333"/>
			<point x="150" y="-8" type="curve" smooth="yes"/>
			<point x="150" y="-3.66667"/>
			<point x="151.667" y="-0.333333"/>
			<point x="153.667" y="2.33333" type="curve"/>
			<point x="165" y="-5.33333"/>
			<point x="181" y="-9.33333"/>
			<point name=".hr06" x="198" y="-10" type="curve"/>
			<point x="200.667" y="-10"/>
			<point x="203.333" y="-10"/>
			<point x="206" y="-10" type="curve" smooth="yes"/>
			<point x="264" y="-10"/>
			<point x="296.333" y="15.3333"/>
			<point name=".hr07" x="336.667" y="52" type="curve"/>
		</contour>
	</outline>
</glyph>
<glyph name="paragraph" format="2">
	<unicode hex="00B6"/>
	<advance width="602"/>
	<outline>
		<contour>
			<point x="498" y="-149.667" type="curve" smooth="yes"/>
			<point x="498" y="562" type="line" smooth="yes"/>
			<point x="498" y="602.667"/>
			<point x="505.667" y="616.333"/>
			<point x="543" y="617.333" type="curve" smooth="yes"/>
			<point x="571" y="618" type="line"/>
			<point x="575" y="618"/>
			<point x="577.667" y="621"/>
			<point x="577.667" y="625.333" type="curve" smooth="yes"/>
			<point x="577.667" y="631.667" type="line"/>
			<point x="577" y="646.333" type="line"/>
			<point x="542.667" y="645.333"/>
			<point x="506.333" y="645"/>
			<point x="468.667" y="644.333" type="curve"/>
			<point x="461" y="644.333"/>
			<point name=".hr01" x="430" y="642.333"/>
			<point x="398" y="642.333" type="curve" smooth="yes"/>
			<point x="371" y="642.333"/>
			<point x="310.667" y="646.333"/>
			<point x="235.667" y="646.333" type="curve" smooth="yes"/>
			<point x="115.667" y="646.333"/>
			<point x="50.3333" y="575.333"/>
			<point x="39.6667" y="484.333" type="curve" smooth="yes"/>
			<point x="37.6667" y="468.667"/>
			<point x="37.3333" y="453"/>
			<point x="38.3333" y="437.333" type="curve" smooth="yes"/>
			<point x="44.3333" y="284.667"/>
			<point x="157.667" y="237.333"/>
			<point x="255.667" y="237.333" type="curve" smooth="yes"/>
			<point x="282" y="237.333"/>
			<point x="305.333" y="241"/>
			<point x="317.667" y="246.333" type="curve"/>
			<point x="317.667" y="-141.667" type="line" smooth="yes"/>
			<point x="317.667" y="-152.667"/>
			<point x="317.667" y="-162"/>
			<point x="317" y="-170.333" type="curve"/>
			<point x="314.333" y="-193.333"/>
			<point x="306" y="-201"/>
			<point x="282.333" y="-203.667" type="curve"/>
			<point x="280" y="-204.333"/>
			<point x="277.333" y="-204.667"/>
			<point name=".hr02" x="273.667" y="-205" type="curve"/>
			<point x="245.333" y="-205.667" type="line"/>
			<point x="241.333" y="-205.667"/>
			<point x="239" y="-208"/>
			<point x="239" y="-213" type="curve" smooth="yes"/>
			<point x="239" y="-233.333" type="line"/>
			<point x="239.667" y="-234" type="line"/>
			<point x="285.333" y="-233.333"/>
			<point x="334.333" y="-233.333"/>
			<point x="386.667" y="-233.333" type="curve" smooth="yes"/>
			<point x="453" y="-233.333"/>
			<point x="517.333" y="-233.333"/>
			<point x="577" y="-234" type="curve"/>
			<point x="577.667" y="-233.333" type="line"/>
			<point x="577.667" y="-213" type="line" smooth="yes"/>
			<point x="577.667" y="-208.667"/>
			<point x="575" y="-205.667"/>
			<point x="571" y="-205.667" type="curve"/>
			<point x="543" y="-205" type="line" smooth="yes"/>
			<point name=".hr03" x="508.333" y="-203.333"/>
			<point x="498" y="-197"/>
		</contour>
		<contour>
			<point x="407" y="-204.333" type="curve" smooth="yes"/>
			<point x="382" y="-204.333"/>
			<point x="373.667" y="-177.333"/>
			<point x="373.667" y="-149" type="curve" smooth="yes"/>
			<point x="373.667" y="546.333" type="line"/>
			<point x="373.667" y="560" type="line" smooth="yes"/>
			<point x="373.667" y="589.667"/>
			<point x="380" y="614.667"/>
			<point x="409" y="614.667" type="curve"/>
			<point x="427.333" y="614"/>
			<point x="442" y="611"/>
			<point x="442" y="562" type="curve" smooth="yes"/>
			<point x="442" y="-150.333" type="line" smooth="yes"/>
			<point x="442" y="-188.667"/>
			<point x="434" y="-204.333"/>
		</contour>
	</outline>
</glyph>
<glyph name="cedilla" format="2">
	<unicode hex="00B8"/>
	<advance width="541"/>
	<outline>
		<contour>
			<point x="243" y="-101.333" type="line"/>
			<point x="260.333" y="-100.333"/>
			<point x="278.333" y="-101.333"/>
			<point x="296.667" y="-105.333" type="curve" smooth="yes"/>
			<point x="316.333" y="-109.333"/>
			<point x="328.333" y="-120.667"/>
			<point x="328.333" y="-140.333" type="curve" smooth="yes"/>
			<point x="328.333" y="-167"/>
			<point x="308" y="-181"/>
			<point x="278" y="-181" type="curve" smooth="yes"/>
			<point x="258" y="-181"/>
			<point x="247" y="-177"/>
			<point x="220" y="-167" type="curve"/>
			<point x="211.667" y="-172"/>
			<point x="210" y="-182.333"/>
			<point x="210" y="-193" type="curve"/>
			<point x="232.333" y="-204"/>
			<point x="243.667" y="-209.333"/>
			<point x="273" y="-210" type="curve"/>
			<point x="277" y="-210"/>
			<point x="281.667" y="-210"/>
			<point x="286" y="-209.333" type="curve"/>
			<point x="342.333" y="-206.667"/>
			<point x="386.333" y="-174.333"/>
			<point x="390.333" y="-132" type="curve"/>
			<point x="391" y="-128.667"/>
			<point x="391" y="-125"/>
			<point x="390.667" y="-121.667" type="curve"/>
			<point x="389" y="-83"/>
			<point x="360.667" y="-62"/>
			<point x="326" y="-54" type="curve" smooth="yes"/>
			<point x="316.333" y="-52"/>
			<point x="306" y="-50.3333"/>
			<point x="296.667" y="-49.6667" type="curve"/>
			<point x="318.333" y="4.66667" type="line"/>
			<point x="284.333" y="4.66667" type="line"/>
			<point x="237" y="-95.3333" type="line"/>
		</contour>
	</outline>
</glyph>
<glyph name="ordmasculine" format="2">
	<unicode hex="00BA"/>
	<advance width="362"/>
	<outline>
		<contour>
			<point x="39" y="477" type="curve" smooth="yes"/>
			<point x="39" y="405.333"/>
			<point x="94.6667" y="351"/>
			<point x="178" y="351" type="curve" smooth="yes"/>
			<point x="276" y="351"/>
			<point x="323.667" y="416"/>
			<point x="323.667" y="483" type="curve" smooth="yes"/>
			<point x="323.667" y="527"/>
			<point x="300.333" y="572.667"/>
			<point x="258.667" y="596.333" type="curve" smooth="yes"/>
			<point x="236" y="609.667"/>
			<point x="212.667" y="614"/>
			<point x="183.667" y="614" type="curve" smooth="yes"/>
			<point x="103" y="614"/>
			<point x="39" y="560.667"/>
		</contour>
		<contour>
			<point x="177" y="586" type="curve" smooth="yes"/>
			<point x="227" y="586"/>
			<point x="246.333" y="547"/>
			<point x="246.333" y="467" type="curve" smooth="yes"/>
			<point x="246.333" y="395"/>
			<point x="216" y="381.667"/>
			<point x="189" y="381.667" type="curve" smooth="yes"/>
			<point x="129" y="381.667"/>
			<point x="117" y="438"/>
			<point x="117" y="487" type="curve" smooth="yes"/>
			<point x="117" y="541"/>
			<point x="127" y="586"/>
		</contour>
	</outline>
</glyph>
<glyph name="guillemotright" format="2">
	<unicode hex="00BB"/>
	<advance width="551"/>
	<outline>
		<contour>
			<point x="264.333" y="220.333" type="curve"/>
			<point x="206.667" y="247"/>
			<point x="164" y="256.667"/>
			<point x="99.3333" y="286.333" type="curve"/>
			<point x="94.3333" y="281"/>
			<point x="88" y="272.333"/>
			<point x="88" y="265.333" type="curve"/>
			<point x="141.333" y="244"/>
			<point x="180" y="222.667"/>
			<point x="219" y="213" type="curve"/>
			<point x="198.333" y="187.499"/>
			<point x="176.333" y="153.473"/>
			<point x="149.667" y="103.667" type="curve"/>
			<point x="134.667" y="113.333"/>
			<point x="128" y="123.667"/>
			<point x="107.333" y="150" type="curve"/>
			<point x="151.333" y="205.667"/>
			<point x="177.667" y="229"/>
			<point x="222" y="266.333" type="curve"/>
			<point x="239.333" y="242.375"/>
			<point x="252" y="233.242"/>
		</contour>
		<contour>
			<point x="449.667" y="220.333" type="curve"/>
			<point x="392" y="247"/>
			<point x="349.333" y="256.667"/>
			<point x="284.667" y="286.333" type="curve"/>
			<point x="279.667" y="281"/>
			<point x="273.333" y="272.333"/>
			<point x="273.333" y="265.333" type="curve"/>
			<point x="326.667" y="244"/>
			<point x="365.333" y="222.667"/>
			<point x="404.333" y="213" type="curve"/>
			<point x="383.667" y="187.499"/>
			<point x="361.667" y="153.473"/>
			<point x="335" y="103.667" type="curve"/>
			<point x="320" y="113.333"/>
			<point x="313.333" y="123.667"/>
			<point x="292.667" y="150" type="curve"/>
			<point x="336.667" y="205.667"/>
			<point x="363" y="229"/>
			<point x="407.333" y="266.333" type="curve"/>
			<point x="424.667" y="242.375"/>
			<point x="437.333" y="233.242"/>
		</contour>
	</outline>
</glyph>
<glyph name="onehalf" format="2">
	<unicode hex="00BD"/>
	<advance width="687"/>
	<outline>
		<contour>
			<point x="395.667" y="178" type="curve" smooth="yes"/>
			<point x="395.667" y="157"/>
			<point x="405" y="141.333"/>
			<point x="427" y="141.333" type="curve" smooth="yes"/>
			<point x="444.333" y="141.333"/>
			<point x="461.667" y="151"/>
			<point x="464.667" y="167.667" type="curve"/>
			<point x="465.667" y="170.667"/>
			<point x="465.333" y="174.667"/>
			<point x="465.333" y="178.667" type="curve" smooth="yes"/>
			<point x="465.333" y="183.333"/>
			<point x="465.333" y="188"/>
			<point x="465.667" y="192.667" type="curve"/>
			<point x="465.667" y="194.667"/>
			<point x="465.667" y="197.333"/>
			<point x="466" y="200" type="curve"/>
			<point x="466.333" y="205"/>
			<point x="467" y="210.333"/>
			<point x="468.667" y="213" type="curve"/>
			<point x="474.333" y="224"/>
			<point x="486" y="229"/>
			<point x="508" y="229" type="curve" smooth="yes"/>
			<point x="515.667" y="229"/>
			<point x="528.333" y="225.333"/>
			<point x="535" y="217.333" type="curve"/>
			<point x="544.667" y="206.333"/>
			<point x="551.333" y="189"/>
			<point x="551.333" y="163.667" type="curve" smooth="yes"/>
			<point x="551.333" y="134.333"/>
			<point x="538.667" y="107.333"/>
			<point x="511.333" y="82.3333" type="curve" smooth="yes"/>
			<point x="504.333" y="75.6667"/>
			<point x="496.333" y="69.6667"/>
			<point x="489" y="62.6667" type="curve"/>
			<point x="477.333" y="52.6667"/>
			<point x="465.333" y="41.6667"/>
			<point x="454.333" y="31.6667" type="curve"/>
			<point x="420.667" y="-1.33333"/>
			<point x="396.333" y="-38.6667"/>
			<point x="396.333" y="-79" type="curve"/>
			<point x="622.333" y="-79" type="line"/>
			<point x="631.333" y="-50.6667"/>
			<point x="644" y="-10.3333"/>
			<point x="648" y="27.6667" type="curve"/>
			<point x="643" y="31.6667"/>
			<point x="632.333" y="33.3333"/>
			<point x="621.333" y="33.3333" type="curve"/>
			<point x="610.333" y="4"/>
			<point x="589.667" y="-30.3333"/>
			<point x="558.667" y="-30.3333" type="curve" smooth="yes"/>
			<point x="476.333" y="-30.3333" type="line"/>
			<point x="479.667" y="-14"/>
			<point x="487.333" y="4"/>
			<point x="505.667" y="20.6667" type="curve"/>
			<point x="515.333" y="29"/>
			<point x="524.667" y="37.3333"/>
			<point x="535.667" y="46.3333" type="curve" smooth="yes"/>
			<point x="548" y="56.6667" type="line" smooth="yes"/>
			<point x="567" y="72.3333"/>
			<point x="588.667" y="91.6667"/>
			<point x="602.333" y="106.667" type="curve" smooth="yes"/>
			<point x="623.333" y="129.667"/>
			<point x="631.333" y="148.667"/>
			<point x="631.333" y="173.333" type="curve" smooth="yes"/>
			<point x="631.333" y="205.333"/>
			<point x="621.333" y="225"/>
			<point x="600.333" y="240" type="curve" smooth="yes"/>
			<point x="577.333" y="256.667"/>
			<point x="545" y="259"/>
			<point x="518.667" y="259" type="curve" smooth="yes"/>
			<point x="439.667" y="259"/>
			<point x="395.667" y="205.333"/>
		</contour>
		<contour>
			<point x="134" y="584.333" type="curve" smooth="yes"/>
			<point x="146" y="584.333"/>
			<point x="148" y="575.333"/>
			<point x="148" y="543.333" type="curve" smooth="yes"/>
			<point x="148" y="400" type="line" smooth="yes"/>
			<point x="148" y="349"/>
			<point x="117" y="346"/>
			<point x="77" y="344" type="curve"/>
			<point x="72" y="336"/>
			<point x="73" y="320.333"/>
			<point x="77" y="314.333" type="curve"/>
			<point x="107" y="315.333"/>
			<point x="150.667" y="315.333"/>
			<point x="185.667" y="315.333" type="curve" smooth="yes"/>
			<point x="222.667" y="315.333"/>
			<point x="249.667" y="315.333"/>
			<point x="279.667" y="314.333" type="curve"/>
			<point x="283.667" y="321.333"/>
			<point x="283.667" y="336"/>
			<point x="279.667" y="344" type="curve"/>
			<point x="246.667" y="346"/>
			<point x="226" y="348.667"/>
			<point x="225" y="395.333" type="curve"/>
			<point x="224.667" y="396.667"/>
			<point x="224.667" y="398.333"/>
			<point x="224.667" y="400" type="curve" smooth="yes"/>
			<point x="224.667" y="656.333" type="line"/>
			<point x="221" y="660"/>
			<point x="211" y="660"/>
			<point x="203.333" y="657.667" type="curve"/>
			<point x="200.667" y="657.667"/>
			<point x="198.667" y="657"/>
			<point x="197.333" y="656.333" type="curve"/>
			<point x="152.667" y="632"/>
			<point x="114" y="617.333"/>
			<point x="67" y="600.333" type="curve"/>
			<point x="67" y="588.333"/>
			<point x="69" y="575.333"/>
			<point x="77" y="569.333" type="curve"/>
			<point x="102" y="578.333"/>
			<point x="121" y="584.333"/>
		</contour>
		<contour>
			<point x="545.333" y="601" type="line"/>
			<point x="87.3333" y="-54" type="line"/>
			<point x="128.333" y="-62" type="line"/>
			<point x="587.333" y="593" type="line"/>
		</contour>
	</outline>
</glyph>
<glyph name="questiondown" format="2">
	<unicode hex="00BF"/>
	<advance width="432"/>
	<outline>
		<contour>
			<point x="293" y="-141" type="curve" smooth="yes"/>
			<point x="293" y="-169.667"/>
			<point x="256.333" y="-193.667"/>
			<point x="208" y="-193.667" type="curve" smooth="yes"/>
			<point x="153" y="-193.667"/>
			<point x="125" y="-142.667"/>
			<point x="123.333" y="-84.3333" type="curve"/>
			<point x="123" y="-82.6667"/>
			<point x="123" y="-81.3333"/>
			<point x="123" y="-79.6667" type="curve" smooth="yes"/>
			<point x="123" y="-34"/>
			<point x="138.667" y="-1.66667"/>
			<point x="171.333" y="30.6667" type="curve"/>
			<point x="175" y="34"/>
			<point x="179" y="37.3333"/>
			<point x="182.333" y="41" type="curve"/>
			<point x="247.333" y="102.333"/>
			<point x="248.667" y="158.333"/>
			<point x="248.667" y="199" type="curve" smooth="yes"/>
			<point x="248.667" y="216.667" type="line" smooth="yes"/>
			<point x="248.667" y="226.667"/>
			<point x="248" y="235"/>
			<point x="244.667" y="241" type="curve"/>
			<point x="242" y="247.333"/>
			<point x="234" y="250.333"/>
			<point x="222" y="250.333" type="curve" smooth="yes"/>
			<point x="208" y="250.333"/>
			<point x="199.667" y="247.333"/>
			<point x="197" y="239.667" type="curve"/>
			<point x="195" y="233.333"/>
			<point x="194.333" y="226"/>
			<point x="194.333" y="217" type="curve" smooth="yes"/>
			<point x="194.333" y="201" type="line" smooth="yes"/>
			<point x="194.333" y="171"/>
			<point x="189.333" y="147.667"/>
			<point x="177.667" y="127.333" type="curve" smooth="yes"/>
			<point x="166.667" y="107.667"/>
			<point x="148" y="93.6667"/>
			<point x="130.333" y="80.6667" type="curve" smooth="yes"/>
			<point x="81.3333" y="44.6667"/>
			<point x="18.6667" y="-0.666667"/>
			<point x="18.6667" y="-76.3333" type="curve" smooth="yes"/>
			<point x="18.6667" y="-168"/>
			<point x="88" y="-228.667"/>
			<point x="198" y="-228.667" type="curve" smooth="yes"/>
			<point x="256.333" y="-228.667"/>
			<point x="301" y="-214.667"/>
			<point x="330.667" y="-189.667" type="curve" smooth="yes"/>
			<point x="363.333" y="-163"/>
			<point x="383" y="-138.333"/>
			<point x="383" y="-102.333" type="curve" smooth="yes"/>
			<point x="383" y="-68.6667"/>
			<point x="358.667" y="-53.3333"/>
			<point x="338.667" y="-50" type="curve"/>
			<point x="336" y="-49.3333"/>
			<point x="333.333" y="-49.3333"/>
			<point x="331.333" y="-49.3333" type="curve" smooth="yes"/>
			<point x="305" y="-49.3333"/>
			<point name=".hr01" x="283" y="-64"/>
			<point x="283" y="-88.3333" type="curve" smooth="yes"/>
			<point x="283" y="-102"/>
			<point x="285" y="-109.333"/>
			<point x="288.333" y="-115.667" type="curve"/>
			<point x="291" y="-122.667"/>
			<point name=".hr02" x="293" y="-129.333"/>
		</contour>
		<contour>
			<point x="287" y="376.667" type="curve" smooth="yes"/>
			<point x="287" y="411.667"/>
			<point x="257.667" y="439.667"/>
			<point x="221.333" y="439.667" type="curve" smooth="yes"/>
			<point x="185" y="439.667"/>
			<point x="154.333" y="410.333"/>
			<point x="154.333" y="375.333" type="curve" smooth="yes"/>
			<point x="154.333" y="339.667"/>
			<point x="183.667" y="311.667"/>
			<point x="220" y="311.667" type="curve" smooth="yes"/>
			<point x="256.333" y="311.667"/>
			<point x="287" y="341"/>
		</contour>
	</outline>
</glyph>
<glyph name="Aring" format="2">
	<unicode hex="00C5"/>
	<advance width="725"/>
	<outline>
		<contour>
			<point x="161.667" y="79" type="curve" smooth="yes"/>
			<point x="215.333" y="220" type="line" smooth="yes"/>
			<point x="220.333" y="233"/>
			<point x="226.333" y="237"/>
			<point x="250.333" y="237" type="curve" smooth="yes"/>
			<point x="447.333" y="237" type="line"/>
			<point x="504" y="72" type="line" smooth="yes"/>
			<point x="515.333" y="38.6667"/>
			<point x="487.667" y="35.3333"/>
			<point x="450.333" y="33" type="curve" smooth="yes"/>
			<point x="444" y="32.6667"/>
			<point x="436.667" y="32"/>
			<point x="430" y="31.6667" type="curve"/>
			<point x="424" y="25.6667"/>
			<point x="424" y="4"/>
			<point x="430" y="-2" type="curve"/>
			<point x="467" y="-1"/>
			<point x="548.667" y="0"/>
			<point x="587.667" y="0" type="curve" smooth="yes"/>
			<point x="628.667" y="0"/>
			<point x="678.667" y="-1"/>
			<point x="715" y="-2" type="curve"/>
			<point x="721" y="4"/>
			<point x="721" y="25.6667"/>
			<point x="715" y="31.6667" type="curve"/>
			<point x="676" y="35.6667"/>
			<point x="642.667" y="36"/>
			<point x="625" y="86" type="curve" smooth="yes"/>
			<point x="426" y="639.333" type="line"/>
			<point x="441.333" y="652.667"/>
			<point x="451.667" y="672.667"/>
			<point x="451.667" y="694" type="curve" smooth="yes"/>
			<point x="451.667" y="737"/>
			<point x="417" y="771.667"/>
			<point x="376.333" y="776.333" type="curve" smooth="yes"/>
			<point x="370.333" y="777"/>
			<point x="365.333" y="777.333"/>
			<point x="359.333" y="777" type="curve" smooth="yes"/>
			<point x="315" y="774.333"/>
			<point x="279" y="738"/>
			<point x="279" y="694" type="curve" smooth="yes"/>
			<point x="279" y="661.667"/>
			<point x="299.333" y="633.667"/>
			<point x="326.667" y="620" type="curve"/>
			<point x="107" y="102" type="line" smooth="yes"/>
			<point x="81" y="40"/>
			<point x="51" y="34.6667"/>
			<point x="7" y="31.6667" type="curve"/>
			<point x="1" y="25.6667"/>
			<point x="1" y="4"/>
			<point x="7" y="-2" type="curve"/>
			<point x="40.3333" y="-1"/>
			<point x="63.3333" y="0"/>
			<point x="99.3333" y="0" type="curve" smooth="yes"/>
			<point x="140.333" y="0"/>
			<point x="193.667" y="-1"/>
			<point x="230.667" y="-2" type="curve"/>
			<point x="236.667" y="4"/>
			<point x="236.667" y="25.6667"/>
			<point x="230.667" y="31.6667" type="curve"/>
			<point x="192.667" y="34.6667"/>
			<point x="145.667" y="38"/>
		</contour>
		<contour>
			<point x="365" y="744.333" type="curve" smooth="yes"/>
			<point x="393" y="744.333"/>
			<point x="413" y="723.667"/>
			<point x="413" y="694" type="curve" smooth="yes"/>
			<point x="413" y="667.333"/>
			<point x="394.667" y="643.667"/>
			<point x="365" y="643.667" type="curve" smooth="yes"/>
			<point x="335.333" y="643.667"/>
			<point x="317.667" y="667.333"/>
			<point x="317.667" y="694" type="curve" smooth="yes"/>
			<point x="317.667" y="722.667"/>
			<point x="336" y="744.333"/>
		</contour>
		<contour>
			<point x="269.667" y="283" type="line" smooth="yes"/>
			<point x="247.667" y="283"/>
			<point x="240.667" y="286"/>
			<point x="244.667" y="296" type="curve" smooth="yes"/>
			<point x="337.333" y="531.667" type="line"/>
			<point x="344" y="531.667" type="line"/>
			<point x="430" y="283" type="line"/>
		</contour>
	</outline>
	<anchor name="m.uni0302" x="364" y="894"/>
</glyph>
<glyph name="Eth" format="2">
	<unicode hex="00D0"/>
	<advance width="723"/>
	<outline>
		<contour>
			<point x="173" y="0" type="curve" smooth="yes"/>
			<point x="212" y="0"/>
			<point x="280.667" y="-2"/>
			<point x="341.667" y="-2" type="curve" smooth="yes"/>
			<point x="426.667" y="-2"/>
			<point x="523.667" y="19.3333"/>
			<point x="593.333" y="81" type="curve" smooth="yes"/>
			<point x="642.667" y="125"/>
			<point x="676.667" y="204.667"/>
			<point x="676.667" y="308.667" type="curve" smooth="yes"/>
			<point x="676.667" y="494"/>
			<point x="545.667" y="646.333"/>
			<point x="317.667" y="646.333" type="curve" smooth="yes"/>
			<point x="261.667" y="646.333"/>
			<point x="217" y="645"/>
			<point x="177.667" y="645" type="curve" smooth="yes"/>
			<point x="172.667" y="645"/>
			<point x="167" y="645"/>
			<point x="160.667" y="645" type="curve" smooth="yes"/>
			<point x="116" y="645"/>
			<point x="40.3333" y="646.667"/>
			<point x="27" y="647" type="curve"/>
			<point x="18.3333" y="641"/>
			<point x="18.3333" y="619.333"/>
			<point x="27" y="613.333" type="curve"/>
			<point x="87" y="610.333"/>
			<point x="111.333" y="606"/>
			<point x="111.333" y="523" type="curve" smooth="yes"/>
			<point x="111.333" y="326.667" type="line"/>
			<point x="82.6667" y="327.333"/>
			<point x="53.6667" y="328"/>
			<point x="27" y="328.667" type="curve"/>
			<point x="22" y="317.333"/>
			<point x="16" y="301.667"/>
			<point x="14" y="287" type="curve"/>
			<point x="18" y="285"/>
			<point x="23" y="283"/>
			<point x="29.6667" y="283" type="curve"/>
			<point x="56" y="283.667"/>
			<point x="83.6667" y="284.333"/>
			<point x="111.333" y="284.333" type="curve"/>
			<point x="111.333" y="122" type="line" smooth="yes"/>
			<point x="111.333" y="39"/>
			<point x="87" y="34.6667"/>
			<point x="27" y="31.6667" type="curve"/>
			<point x="18.3333" y="25.6667"/>
			<point x="18.3333" y="4"/>
			<point x="27" y="-2" type="curve"/>
			<point x="40" y="-1.66667"/>
			<point x="133.667" y="0"/>
		</contour>
		<contour>
			<point x="233" y="107.333" type="curve" smooth="yes"/>
			<point x="233" y="284.333" type="line"/>
			<point x="264.667" y="284.333"/>
			<point x="296" y="283.667"/>
			<point x="325" y="282.333" type="curve"/>
			<point x="331" y="293.667"/>
			<point x="336.667" y="309.333"/>
			<point x="338.667" y="324.333" type="curve"/>
			<point x="330" y="325.333"/>
			<point x="320.333" y="328"/>
			<point x="308" y="327.333" type="curve"/>
			<point x="284" y="326.667"/>
			<point x="258.333" y="326.667"/>
			<point x="233" y="326.667" type="curve"/>
			<point x="233" y="532" type="line" smooth="yes"/>
			<point x="233" y="542"/>
			<point x="233.667" y="551.667"/>
			<point x="235" y="560" type="curve" smooth="yes"/>
			<point x="240.333" y="593.667"/>
			<point x="266.667" y="607"/>
			<point x="302.333" y="607" type="curve" smooth="yes"/>
			<point x="505.667" y="607"/>
			<point x="544" y="436"/>
			<point x="544" y="284" type="curve" smooth="yes"/>
			<point x="544" y="99.6667"/>
			<point x="436.333" y="39.6667"/>
			<point x="342.667" y="37.6667" type="curve" smooth="yes"/>
			<point x="331.667" y="37.3333"/>
			<point x="321.667" y="37.3333"/>
			<point x="312.667" y="38" type="curve" smooth="yes"/>
			<point x="248.667" y="41.3333"/>
			<point x="233" y="59.3333"/>
		</contour>
	</outline>
	<anchor name="m.uni0302" x="341" y="850"/>
</glyph>
<glyph name="multiply" format="2">
	<unicode hex="00D7"/>
	<advance width="535"/>
	<outline>
		<contour>
			<point x="306.667" y="238.667" type="line"/>
			<point x="427.667" y="359" type="line"/>
			<point x="386.667" y="398.667" type="line"/>
			<point x="268.667" y="277.667" type="line"/>
			<point x="148.667" y="398.667" type="line"/>
			<point x="107.333" y="355.667" type="line"/>
			<point x="227" y="235.333" type="line"/>
			<point x="107.333" y="117.333" type="line"/>
			<point x="146.667" y="77.6667" type="line"/>
			<point x="266" y="197" type="line"/>
			<point x="387.333" y="77.6667" type="line"/>
			<point x="427.667" y="117.333" type="line"/>
		</contour>
	</outline>
</glyph>
<glyph name="Oslash" format="2">
	<unicode hex="00D8"/>
	<advance width="721"/>
	<outline>
		<contour>
			<point x="94.6667" y="-34.3333" type="curve"/>
			<point x="164" y="51.6667" type="line"/>
			<point x="219.667" y="12"/>
			<point x="287.667" y="-10"/>
			<point x="359.333" y="-10" type="curve" smooth="yes"/>
			<point x="461.667" y="-10"/>
			<point x="545" y="28"/>
			<point x="601.333" y="91" type="curve"/>
			<point x="607.333" y="97.3333"/>
			<point x="612.333" y="103.667"/>
			<point x="617.333" y="110.667" type="curve" smooth="yes"/>
			<point x="660.667" y="168.333"/>
			<point x="684.667" y="242.333"/>
			<point x="684.667" y="329" type="curve" smooth="yes"/>
			<point x="684.667" y="431.333"/>
			<point x="646.667" y="514.667"/>
			<point x="586.333" y="571.333" type="curve"/>
			<point x="639" y="636.667" type="line"/>
			<point x="630.333" y="648.333"/>
			<point x="616.667" y="659.333"/>
			<point x="602.333" y="666" type="curve"/>
			<point x="550" y="601" type="line"/>
			<point x="495.667" y="637.667"/>
			<point x="429" y="658"/>
			<point x="356.667" y="658" type="curve" smooth="yes"/>
			<point x="257.667" y="658"/>
			<point x="174" y="616.667"/>
			<point x="118" y="549.667" type="curve" smooth="yes"/>
			<point x="65.6667" y="487.333"/>
			<point x="37" y="403"/>
			<point x="37" y="309.333" type="curve" smooth="yes"/>
			<point x="37" y="214.333"/>
			<point x="72" y="136.667"/>
			<point x="128" y="82" type="curve"/>
			<point x="58.6667" y="-3" type="line"/>
			<point x="67.6667" y="-14.6667"/>
			<point x="80.3333" y="-27.6667"/>
		</contour>
		<contour>
			<point x="519.333" y="489" type="line"/>
			<point x="540" y="442"/>
			<point x="552" y="381.667"/>
			<point x="552" y="308.667" type="curve" smooth="yes"/>
			<point x="552" y="138.333"/>
			<point x="484.667" y="30"/>
			<point x="379.333" y="30" type="curve" smooth="yes"/>
			<point x="317.333" y="30"/>
			<point x="261" y="62.6667"/>
			<point x="222" y="123.333" type="curve"/>
		</contour>
		<contour>
			<point x="344.333" y="618" type="curve" smooth="yes"/>
			<point x="404" y="618"/>
			<point x="457" y="589.667"/>
			<point x="494.667" y="534" type="curve"/>
			<point x="198.667" y="169" type="line"/>
			<point x="180.333" y="212.667"/>
			<point x="169.667" y="266.333"/>
			<point x="169.667" y="328.333" type="curve" smooth="yes"/>
			<point x="169.667" y="534.333"/>
			<point x="252" y="618"/>
		</contour>
	</outline>
	<anchor name="m.uni0302" x="351" y="850"/>
	<anchor name="m.uni0316_2" x="350" y="-110"/>
</glyph>
<glyph name="Thorn" format="2">
	<unicode hex="00DE"/>
	<advance width="586"/>
	<outline>
		<contour>
			<point x="137" y="389.333" type="curve" smooth="yes"/>
			<point x="137" y="134.333" type="line"/>
			<point x="142" y="77.3333"/>
			<point x="132" y="73.3333"/>
			<point x="107" y="71.3333" type="curve"/>
			<point x="159.667" y="67.3333"/>
			<point x="178.333" y="92"/>
			<point x="185" y="113" type="curve"/>
			<point x="211.667" y="137.333"/>
			<point name=".hr01" x="249.333" y="174.333"/>
			<point x="214.333" y="174.333" type="curve"/>
			<point x="234.667" y="174.333"/>
			<point x="271" y="173"/>
			<point x="285.667" y="171.667" type="curve"/>
			<point x="292.333" y="175.863"/>
			<point x="292.333" y="191.471"/>
			<point x="285.667" y="195.667" type="curve"/>
			<point x="249" y="225.333"/>
			<point x="236" y="229.667"/>
			<point x="259.333" y="286" type="curve" smooth="yes"/>
			<point x="261.333" y="290.71"/>
			<point x="261.333" y="314.957"/>
			<point name=".hr02" x="259.333" y="319.667" type="curve"/>
			<point x="254.333" y="316"/>
			<point x="267" y="315"/>
			<point x="272.667" y="315" type="curve" smooth="yes"/>
			<point x="374" y="315"/>
			<point x="408.333" y="394"/>
			<point x="391.667" y="444.333" type="curve"/>
			<point x="389.667" y="489.667"/>
			<point x="359.667" y="555.333"/>
			<point x="238.333" y="553.333" type="curve"/>
			<point x="250.333" y="552.333"/>
			<point x="226.667" y="550.667"/>
			<point name=".hr03" x="202" y="521.667" type="curve"/>
			<point x="202" y="389.333" type="line"/>
			<point x="202" y="417"/>
			<point x="215" y="418"/>
			<point x="228.333" y="419" type="curve"/>
			<point x="233" y="421"/>
			<point x="233" y="428.667"/>
			<point x="228.333" y="430.667" type="curve"/>
			<point x="218" y="430.333"/>
			<point x="180" y="430"/>
			<point x="170.333" y="430" type="curve" smooth="yes"/>
			<point x="160.333" y="430"/>
			<point x="120.667" y="430.333"/>
			<point x="110.667" y="430.667" type="curve"/>
			<point x="106" y="428.667"/>
			<point x="106" y="421"/>
			<point x="110.667" y="419" type="curve"/>
			<point x="124" y="418"/>
			<point x="137" y="417"/>
		</contour>
		<contour>
			<point x="230.333" y="289" type="curve"/>
			<point x="237.333" y="314.002"/>
			<point x="253.667" y="461.989"/>
			<point x="260" y="482" type="curve"/>
			<point name=".hr04" x="295" y="482"/>
			<point x="348" y="475.667"/>
			<point x="360" y="435.667" type="curve"/>
			<point x="400" y="392.667"/>
			<point x="396" y="348.333"/>
			<point x="372" y="289.667" type="curve"/>
			<point name=".hr05" x="359.333" y="217"/>
			<point x="326.667" y="189"/>
			<point x="275.667" y="190" type="curve"/>
			<point x="253" y="214.215"/>
			<point x="237.667" y="280.467"/>
		</contour>
	</outline>
	<anchor name="m.uni0302" x="281" y="850"/>
</glyph>
<glyph name="aring" format="2">
	<unicode hex="00E5"/>
	<advance width="490"/>
	<outline>
		<contour>
			<point x="294.333" y="48.6667" type="line"/>
			<point x="300.667" y="12.3333"/>
			<point x="321.667" y="-7.66667"/>
			<point x="363" y="-9.66667" type="curve" smooth="yes"/>
			<point x="371.333" y="-10"/>
			<point x="379.333" y="-9.33333"/>
			<point x="387.333" y="-8.66667" type="curve" smooth="yes"/>
			<point x="427.333" y="-4.66667"/>
			<point x="460.667" y="13.6667"/>
			<point x="487.667" y="39.6667" type="curve"/>
			<point x="485.667" y="51.6667"/>
			<point x="481.667" y="60"/>
			<point x="470" y="67.3333" type="curve"/>
			<point x="459" y="58.6667"/>
			<point name=".hr01" x="446.667" y="52.6667"/>
			<point x="429.667" y="52.6667" type="curve" smooth="yes"/>
			<point x="405.333" y="52.6667"/>
			<point x="401" y="77.6667"/>
			<point x="401" y="125.667" type="curve"/>
			<point x="402.333" y="270.667" type="line"/>
			<point x="402.333" y="414"/>
			<point x="317" y="442.333"/>
			<point x="238" y="442.333" type="curve" smooth="yes"/>
			<point x="162" y="442.333"/>
			<point x="59.6667" y="396.333"/>
			<point x="59.6667" y="333.333" type="curve" smooth="yes"/>
			<point x="59.6667" y="310"/>
			<point x="69" y="293.333"/>
			<point x="94" y="289.333" type="curve"/>
			<point x="97.3333" y="288.667"/>
			<point x="101.333" y="288"/>
			<point x="105.333" y="288" type="curve" smooth="yes"/>
			<point x="135.667" y="288"/>
			<point x="157" y="305.667"/>
			<point x="161" y="323.333" type="curve"/>
			<point x="161.667" y="325.333"/>
			<point x="162.333" y="328"/>
			<point x="162.333" y="330" type="curve" smooth="yes"/>
			<point x="162.333" y="335.667"/>
			<point x="161.333" y="342"/>
			<point x="160" y="347.333" type="curve"/>
			<point x="159" y="353"/>
			<point x="157.333" y="359"/>
			<point x="157.333" y="367.333" type="curve" smooth="yes"/>
			<point x="157.333" y="370.667"/>
			<point x="157.667" y="374.333"/>
			<point x="158.667" y="377.667" type="curve"/>
			<point x="161.333" y="390.333"/>
			<point x="173.333" y="401.333"/>
			<point x="203" y="402.667" type="curve" smooth="yes"/>
			<point x="210.333" y="403"/>
			<point x="217.667" y="403.333"/>
			<point x="224" y="402.667" type="curve" smooth="yes"/>
			<point x="256" y="398.667"/>
			<point x="288.333" y="376.333"/>
			<point x="290.333" y="280.667" type="curve"/>
			<point x="291" y="273"/>
			<point x="290" y="265.667"/>
			<point x="289" y="259.333" type="curve"/>
			<point x="215.667" y="238.333" type="line" smooth="yes"/>
			<point x="113.667" y="208.333"/>
			<point name=".hr02" x="41.3333" y="171.333"/>
			<point x="41.3333" y="96" type="curve" smooth="yes"/>
			<point x="41.3333" y="24.6667"/>
			<point x="82.6667" y="-8.66667"/>
			<point x="161.667" y="-10" type="curve"/>
			<point x="165.333" y="-10"/>
			<point x="169" y="-10"/>
			<point x="173.333" y="-9.33333" type="curve"/>
			<point x="203" y="-6"/>
			<point x="241" y="12"/>
			<point x="275.667" y="37.3333" type="curve" smooth="yes"/>
			<point x="280.667" y="41"/>
			<point x="285.333" y="44.3333"/>
			<point x="289.667" y="48" type="curve"/>
		</contour>
		<contour>
			<point name=".hr03" x="132" y="582" type="curve" smooth="yes"/>
			<point x="132" y="536"/>
			<point x="172" y="498.333"/>
			<point x="218" y="498.333" type="curve" smooth="yes"/>
			<point x="265.333" y="498.333"/>
			<point x="304.667" y="537"/>
			<point x="304.667" y="582" type="curve" smooth="yes"/>
			<point x="304.667" y="629"/>
			<point x="263.333" y="665.667"/>
			<point x="218" y="665.667" type="curve" smooth="yes"/>
			<point x="171.333" y="665.667"/>
			<point x="132" y="628"/>
		</contour>
		<contour>
			<point x="291" y="223" type="line"/>
			<point name=".hr04" x="291" y="110.333" type="line"/>
			<point x="291" y="91" type="line"/>
			<point x="288.333" y="84.6667"/>
			<point x="283.667" y="79.6667"/>
			<point x="278.333" y="75.6667" type="curve" smooth="yes"/>
			<point x="255.667" y="58.6667"/>
			<point x="231" y="43.6667"/>
			<point x="211.667" y="43.6667" type="curve" smooth="yes"/>
			<point x="166.333" y="43.6667"/>
			<point x="149" y="76.3333"/>
			<point x="149" y="107.333" type="curve" smooth="yes"/>
			<point x="149" y="147"/>
			<point x="158" y="183"/>
			<point name=".hr05" x="230" y="204.667" type="curve" smooth="yes"/>
		</contour>
		<contour>
			<point x="218" y="632.333" type="curve" smooth="yes"/>
			<point x="246" y="632.333"/>
			<point x="266" y="611.667"/>
			<point name=".hr06" x="266" y="582" type="curve" smooth="yes"/>
			<point x="266" y="555.333"/>
			<point x="247.667" y="531.667"/>
			<point x="218" y="531.667" type="curve" smooth="yes"/>
			<point x="188.333" y="531.667"/>
			<point x="170.667" y="555.333"/>
			<point x="170.667" y="582" type="curve" smooth="yes"/>
			<point x="170.667" y="610.667"/>
			<point x="189" y="632.333"/>
		</contour>
	</outline>
	<anchor name="m.uni0302" x="224" y="837.333"/>
</glyph>
<glyph name="eth" format="2">
	<unicode hex="00F0"/>
	<advance width="535"/>
	<outline>
		<contour>
			<point x="34.6667" y="208.667" type="curve" smooth="yes"/>
			<point x="34.6667" y="104.667"/>
			<point x="123" y="-10"/>
			<point x="256.333" y="-10" type="curve" smooth="yes"/>
			<point x="317" y="-10"/>
			<point x="381.667" y="9.33333"/>
			<point x="426.333" y="51.3333" type="curve" smooth="yes"/>
			<point x="469" y="92.3333"/>
			<point x="493" y="155"/>
			<point x="493" y="238.333" type="curve" smooth="yes"/>
			<point x="493" y="322.667"/>
			<point x="471.333" y="397.667"/>
			<point x="432.667" y="460.333" type="curve" smooth="yes"/>
			<point x="403.333" y="508"/>
			<point x="361" y="550.667"/>
			<point x="322.667" y="586.333" type="curve"/>
			<point x="318" y="591"/>
			<point x="312.667" y="595.667"/>
			<point x="308" y="600.333" type="curve"/>
			<point x="406.333" y="666" type="line"/>
			<point x="383" y="700.667" type="line"/>
			<point x="350.667" y="678.667"/>
			<point x="307.333" y="651"/>
			<point x="273" y="627" type="curve"/>
			<point x="242" y="651.667"/>
			<point x="203.333" y="675"/>
			<point x="160.333" y="698" type="curve"/>
			<point x="138.333" y="668.333" type="line"/>
			<point x="161.667" y="652"/>
			<point x="185.333" y="630"/>
			<point x="207.667" y="608" type="curve" smooth="yes"/>
			<point x="212.667" y="603"/>
			<point x="218" y="598.333"/>
			<point x="222.333" y="593.333" type="curve"/>
			<point x="117.333" y="523" type="line"/>
			<point x="140.667" y="488.333" type="line"/>
			<point x="173.333" y="509.667"/>
			<point x="215.667" y="538"/>
			<point x="250.333" y="562" type="curve"/>
			<point x="283.333" y="526"/>
			<point x="312" y="482.667"/>
			<point x="332.667" y="434.333" type="curve"/>
			<point x="313" y="439.667"/>
			<point x="292.667" y="442.333"/>
			<point x="273.333" y="442.333" type="curve" smooth="yes"/>
			<point x="226.333" y="442.333"/>
			<point x="161.333" y="424.333"/>
			<point x="111.333" y="382" type="curve" smooth="yes"/>
			<point x="67.3333" y="345.333"/>
			<point x="34.6667" y="290"/>
		</contour>
		<contour>
			<point x="272.667" y="30" type="curve" smooth="yes"/>
			<point x="211" y="30"/>
			<point x="156.667" y="114.333"/>
			<point x="156.667" y="226.333" type="curve" smooth="yes"/>
			<point x="156.667" y="300.333"/>
			<point x="182.333" y="402.667"/>
			<point x="271.333" y="402.667" type="curve" smooth="yes"/>
			<point x="305" y="402.667"/>
			<point x="336.667" y="385"/>
			<point x="359" y="359.333" type="curve"/>
			<point x="367" y="317.667"/>
			<point x="371.667" y="270.333"/>
			<point x="371.667" y="224.333" type="curve" smooth="yes"/>
			<point x="371.667" y="65"/>
			<point x="313.667" y="30"/>
		</contour>
	</outline>
</glyph>
<glyph name="divide" format="2">
	<unicode hex="00F7"/>
	<advance width="543"/>
	<outline>
		<contour>
			<point x="478.667" y="263.667" type="curve"/>
			<point x="464" y="266.333"/>
			<point x="448" y="269.333"/>
			<point x="430" y="269.333" type="curve" smooth="yes"/>
			<point x="77.6667" y="269.333" type="line"/>
			<point x="71.6667" y="256"/>
			<point x="64.6667" y="236.333"/>
			<point x="62.6667" y="218" type="curve"/>
			<point x="77.3333" y="215.333"/>
			<point x="94" y="212.667"/>
			<point x="112.333" y="212.667" type="curve" smooth="yes"/>
			<point x="463" y="212.667" type="line"/>
			<point x="469.333" y="226"/>
			<point x="476.667" y="247"/>
		</contour>
		<contour>
			<point x="213.333" y="96.3333" type="curve" smooth="yes"/>
			<point x="213.333" y="67"/>
			<point x="238" y="43.6667"/>
			<point x="268" y="43.6667" type="curve" smooth="yes"/>
			<point x="299" y="43.6667"/>
			<point x="325" y="68.3333"/>
			<point x="325" y="97" type="curve" smooth="yes"/>
			<point x="325" y="127"/>
			<point x="300.333" y="150.333"/>
			<point x="269.333" y="150.333" type="curve" smooth="yes"/>
			<point x="239.333" y="150.333"/>
			<point x="213.333" y="125.667"/>
		</contour>
		<contour>
			<point x="213.333" y="385.667" type="curve" smooth="yes"/>
			<point x="213.333" y="356.333"/>
			<point x="238" y="333"/>
			<point x="268" y="333" type="curve" smooth="yes"/>
			<point x="299" y="333"/>
			<point x="325" y="357.667"/>
			<point x="325" y="386.333" type="curve" smooth="yes"/>
			<point x="325" y="416.333"/>
			<point x="300.333" y="439.667"/>
			<point x="269.333" y="439.667" type="curve" smooth="yes"/>
			<point x="239.333" y="439.667"/>
			<point x="213.333" y="415"/>
		</contour>
	</outline>
</glyph>
<glyph name="oslash" format="2">
	<unicode hex="00F8"/>
	<advance width="546"/>
	<outline>
		<contour>
			<point x="438" y="468" type="curve"/>
			<point x="393.333" y="413" type="line"/>
			<point x="359.667" y="431.333"/>
			<point x="319.667" y="442.333"/>
			<point x="271.667" y="442.333" type="curve" smooth="yes"/>
			<point x="194.333" y="442.333"/>
			<point x="135" y="414"/>
			<point x="96.6667" y="369.667" type="curve" smooth="yes"/>
			<point x="59.3333" y="326"/>
			<point x="41.6667" y="266.667"/>
			<point x="41.6667" y="206.333" type="curve" smooth="yes"/>
			<point x="41.6667" y="148.333"/>
			<point x="63" y="96.3333"/>
			<point x="100.333" y="57.3333" type="curve"/>
			<point x="51.3333" y="-2" type="line"/>
			<point name=".hr01" x="56.1693" y="-10.706"/>
			<point x="75.5918" y="-28.0816"/>
			<point x="85.3333" y="-32" type="curve"/>
			<point x="135" y="28.6667" type="line"/>
			<point x="171.333" y="4.33333"/>
			<point x="217.333" y="-10"/>
			<point x="270.333" y="-10" type="curve" smooth="yes"/>
			<point x="339" y="-10"/>
			<point x="394.667" y="11"/>
			<point x="433.333" y="46.6667" type="curve" smooth="yes"/>
			<point x="482.333" y="91.3333"/>
			<point x="500.333" y="157.667"/>
			<point x="500.333" y="215.333" type="curve" smooth="yes"/>
			<point x="500.333" y="282.667"/>
			<point x="476.333" y="345"/>
			<point x="429" y="387.333" type="curve"/>
			<point x="473" y="441" type="line"/>
			<point x="467.641" y="448.488"/>
			<point x="448.698" y="464.057"/>
		</contour>
		<contour>
			<point x="362" y="305.333" type="line"/>
			<point x="372.333" y="272.333"/>
			<point x="378.333" y="231.333"/>
			<point x="378.333" y="183.333" type="curve" smooth="yes"/>
			<point x="378.333" y="61.3333"/>
			<point x="325.333" y="29.6667"/>
			<point x="285.667" y="29.6667" type="curve" smooth="yes"/>
			<point x="241.667" y="29.6667"/>
			<point x="212.333" y="59.6667"/>
			<point x="192.333" y="99" type="curve"/>
		</contour>
		<contour>
			<point x="256" y="402.667" type="curve" smooth="yes"/>
			<point x="291" y="402.667"/>
			<point x="320.667" y="384.667"/>
			<point x="341.667" y="350.667" type="curve"/>
			<point x="174.667" y="148.333" type="line"/>
			<point x="167.333" y="175.667"/>
			<point x="163.667" y="204.667"/>
			<point x="163.667" y="228.667" type="curve" smooth="yes"/>
			<point x="163.667" y="319"/>
			<point x="181.333" y="402.667"/>
		</contour>
	</outline>
	<anchor name="m.uni0316_2" x="243" y="-110"/>
	<anchor name="b.uni0321_4" x="372" y="44"/>
</glyph>
<glyph name="thorn" format="2">
	<unicode hex="00FE"/>
	<advance width="559"/>
	<outline>
		<contour>
			<point x="209" y="-110" type="curve" smooth="yes"/>
			<point x="209" y="-10" type="line" smooth="yes"/>
			<point x="209" y="-2"/>
			<point name=".hr01" x="209.333" y="3"/>
			<point x="210.333" y="7.33333" type="curve"/>
			<point x="215" y="6"/>
			<point x="219.333" y="4"/>
			<point x="224" y="2" type="curve"/>
			<point x="226" y="1" type="line"/>
			<point x="244.333" y="-6.33333"/>
			<point x="262.667" y="-10"/>
			<point x="283.667" y="-10" type="curve" smooth="yes"/>
			<point x="344.667" y="-10"/>
			<point x="398" y="8.33333"/>
			<point x="439" y="43.3333" type="curve" smooth="yes"/>
			<point x="491.333" y="87"/>
			<point x="521.667" y="153.333"/>
			<point x="521.667" y="236.333" type="curve" smooth="yes"/>
			<point x="521.667" y="291.333"/>
			<point x="501.667" y="349.667"/>
			<point x="465.333" y="388" type="curve" smooth="yes"/>
			<point x="432" y="424"/>
			<point x="384.667" y="442.333"/>
			<point x="333.667" y="442.333" type="curve" smooth="yes"/>
			<point x="297.333" y="442.333"/>
			<point x="248.333" y="412.333"/>
			<point x="216.667" y="382.333" type="curve"/>
			<point x="211" y="376.667"/>
			<point x="209.667" y="376"/>
			<point x="209" y="382.667" type="curve"/>
			<point x="209" y="577.667" type="line" smooth="yes"/>
			<point x="209" y="632.667"/>
			<point x="213" y="683.333"/>
			<point x="213" y="683.333" type="curve"/>
			<point x="213" y="693"/>
			<point x="205.667" y="698"/>
			<point x="193.333" y="698" type="curve"/>
			<point x="166.333" y="687.333"/>
			<point x="87.3333" y="677.333"/>
			<point x="28" y="670.333" type="curve"/>
			<point x="26" y="663.667"/>
			<point x="28" y="643.667"/>
			<point x="31.3333" y="637.667" type="curve"/>
			<point x="38.3333" y="637"/>
			<point x="44.6667" y="636.333"/>
			<point x="50.3333" y="635.667" type="curve" smooth="yes"/>
			<point x="87.6667" y="631.333"/>
			<point x="96" y="623.333"/>
			<point x="96" y="565" type="curve" smooth="yes"/>
			<point x="96" y="-110" type="line" smooth="yes"/>
			<point x="96" y="-193"/>
			<point x="85" y="-196"/>
			<point x="24" y="-200.333" type="curve"/>
			<point x="18" y="-206.333"/>
			<point x="18" y="-228"/>
			<point x="24" y="-234" type="curve"/>
			<point x="66" y="-233"/>
			<point x="102.667" y="-232"/>
			<point x="152.667" y="-232" type="curve" smooth="yes"/>
			<point x="203.667" y="-232"/>
			<point x="241.333" y="-233"/>
			<point x="284.333" y="-234" type="curve"/>
			<point x="290.333" y="-228"/>
			<point x="290.333" y="-206.333"/>
			<point x="284.333" y="-200.333" type="curve"/>
			<point x="220" y="-196.333"/>
			<point x="209" y="-193"/>
		</contour>
		<contour>
			<point x="208.333" y="323.333" type="line"/>
			<point x="227.667" y="364.667"/>
			<point x="276.667" y="382.333"/>
			<point x="303.667" y="382.333" type="curve" smooth="yes"/>
			<point x="322.667" y="382.333"/>
			<point x="340.667" y="374"/>
			<point x="355.667" y="357.667" type="curve" smooth="yes"/>
			<point x="385.333" y="326"/>
			<point x="399.667" y="276"/>
			<point x="399.667" y="209.333" type="curve" smooth="yes"/>
			<point x="399.667" y="124.333"/>
			<point x="371.333" y="29.3333"/>
			<point x="278" y="29.3333" type="curve" smooth="yes"/>
			<point x="268" y="29.3333"/>
			<point x="248" y="31.6667"/>
			<point x="226.667" y="48.6667" type="curve" smooth="yes"/>
			<point x="222.667" y="52"/>
			<point x="218" y="55.3333"/>
			<point x="214" y="60" type="curve"/>
			<point x="210" y="73.3333"/>
			<point x="208.333" y="86"/>
			<point x="208.333" y="106.667" type="curve" smooth="yes"/>
		</contour>
	</outline>
	<anchor name="m.uni0302" x="278" y="646"/>
</glyph>
<glyph name="eogonek" format="2">
	<unicode hex="0119"/>
	<advance width="475"/>
	<outline>
		<contour>
			<point x="416" y="117" type="curve"/>
			<point x="376.333" y="76.3333"/>
			<point x="330.667" y="63.6667"/>
			<point x="286" y="63.6667" type="curve" smooth="yes"/>
			<point x="240.667" y="63.6667"/>
			<point x="201.333" y="83.3333"/>
			<point x="177.667" y="126.333" type="curve" smooth="yes"/>
			<point x="164.333" y="149.667"/>
			<point x="157" y="179.333"/>
			<point x="155.667" y="216.333" type="curve" smooth="yes"/>
			<point x="155.333" y="225"/>
			<point x="155.667" y="231.667"/>
			<point x="155.667" y="239.333" type="curve"/>
			<point x="399" y="238.667" type="line"/>
			<point x="405" y="238.667"/>
			<point x="410" y="239.333"/>
			<point x="414.333" y="240.667" type="curve" smooth="yes"/>
			<point x="423" y="243.333"/>
			<point x="428" y="249.333"/>
			<point x="429.333" y="257.667" type="curve"/>
			<point x="430" y="260.333"/>
			<point x="430" y="263"/>
			<point x="430" y="265" type="curve" smooth="yes"/>
			<point x="430" y="349.667"/>
			<point x="398" y="441.667"/>
			<point x="253.667" y="441.667" type="curve" smooth="yes"/>
			<point x="154.667" y="441.667"/>
			<point x="37" y="352"/>
			<point x="37" y="199.333" type="curve" smooth="yes"/>
			<point x="37" y="145.333"/>
			<point x="53" y="90.6667"/>
			<point x="88" y="52" type="curve"/>
			<point x="91" y="48"/>
			<point x="94.6667" y="45"/>
			<point x="98.6667" y="41" type="curve"/>
			<point x="132.333" y="9.33333"/>
			<point x="175.333" y="-7.33333"/>
			<point x="237" y="-9.33333" type="curve"/>
			<point x="243.667" y="-10"/>
			<point x="250.667" y="-10"/>
			<point x="257" y="-9.66667" type="curve"/>
			<point x="211" y="-46"/>
			<point x="174.333" y="-87"/>
			<point x="174.333" y="-130" type="curve" smooth="yes"/>
			<point x="174.333" y="-182.667"/>
			<point x="212.333" y="-210.333"/>
			<point x="259.667" y="-211.667" type="curve"/>
			<point x="264" y="-212"/>
			<point x="269" y="-212"/>
			<point x="273.667" y="-211.333" type="curve"/>
			<point x="312" y="-209.333"/>
			<point x="354" y="-190"/>
			<point x="379" y="-153.667" type="curve"/>
			<point x="377.667" y="-142"/>
			<point x="373" y="-132.667"/>
			<point x="362.667" y="-128" type="curve"/>
			<point x="345.333" y="-145.333"/>
			<point x="324" y="-152.667"/>
			<point x="303" y="-152.667" type="curve" smooth="yes"/>
			<point x="281.667" y="-152.667"/>
			<point x="265" y="-141"/>
			<point x="263.667" y="-117.333" type="curve"/>
			<point x="263.333" y="-115.667"/>
			<point x="263" y="-114"/>
			<point x="263" y="-112.333" type="curve" smooth="yes"/>
			<point x="263" y="-66"/>
			<point x="285" y="-36"/>
			<point x="325" y="1" type="curve"/>
			<point x="332.667" y="4.66667"/>
			<point x="339.667" y="8.66667"/>
			<point x="347" y="13.6667" type="curve"/>
			<point x="380" y="30"/>
			<point x="408.667" y="56.3333"/>
			<point x="433" y="91" type="curve"/>
			<point x="432" y="103"/>
			<point x="426.667" y="116.667"/>
		</contour>
		<contour>
			<point x="159.333" y="277.333" type="line"/>
			<point x="162.667" y="316.667"/>
			<point x="172" y="352"/>
			<point x="187.667" y="371" type="curve" smooth="yes"/>
			<point x="205.667" y="394"/>
			<point x="232" y="402.333"/>
			<point x="244.333" y="402.667" type="curve"/>
			<point x="246.333" y="402.667"/>
			<point x="249" y="402.667"/>
			<point x="251" y="402" type="curve"/>
			<point x="281" y="399.333"/>
			<point x="316.667" y="373.667"/>
			<point x="316.667" y="297" type="curve" smooth="yes"/>
			<point x="316.667" y="290"/>
			<point x="315.333" y="279.667"/>
			<point x="310.333" y="278.333" type="curve"/>
		</contour>
	</outline>
	<anchor name="m.uni0302" x="231" y="645"/>
	<anchor name="m.uni0316_2" x="70" y="-108"/>
</glyph>
<glyph name="uni0123" format="2">
	<unicode hex="0123"/>
	<advance width="514"/>
	<outline>
		<contour>
			<point x="459.333" y="391.667" type="curve" smooth="yes"/>
			<point x="484.333" y="391.667"/>
			<point x="501" y="405.667"/>
			<point x="501" y="437" type="curve" smooth="yes"/>
			<point x="501" y="454.667"/>
			<point x="482" y="476"/>
			<point x="453.667" y="480" type="curve" smooth="yes"/>
			<point x="449.333" y="480.667"/>
			<point x="444.667" y="481.333"/>
			<point x="440.333" y="481" type="curve"/>
			<point x="402" y="480"/>
			<point x="349.333" y="452.667"/>
			<point x="322.333" y="425" type="curve"/>
			<point x="306.333" y="434.333"/>
			<point name=".hr01" x="281.333" y="442.333"/>
			<point x="231.667" y="442.333" type="curve" smooth="yes"/>
			<point x="189.667" y="442.333"/>
			<point x="148.667" y="431.667"/>
			<point x="116.333" y="409.333" type="curve" smooth="yes"/>
			<point x="79.3333" y="384.667"/>
			<point x="54" y="348.333"/>
			<point x="51.3333" y="302.333" type="curve"/>
			<point x="50.6667" y="297.333"/>
			<point x="50.6667" y="293"/>
			<point x="51" y="288.333" type="curve"/>
			<point x="52" y="240.333"/>
			<point x="79" y="196"/>
			<point x="119.333" y="170.333" type="curve"/>
			<point x="91.3333" y="146.333"/>
			<point x="58" y="101.333"/>
			<point name=".hr02" x="52.6667" y="74.6667" type="curve" smooth="yes"/>
			<point x="52" y="71.3333"/>
			<point x="52" y="68.3333"/>
			<point x="52.3333" y="65.6667" type="curve"/>
			<point x="53" y="48.6667"/>
			<point x="56.3333" y="37"/>
			<point x="65" y="23.6667" type="curve" smooth="yes"/>
			<point x="74" y="10"/>
			<point x="85.6667" y="1.33333"/>
			<point x="103.333" y="-5" type="curve"/>
			<point x="58" y="-32.3333"/>
			<point x="19.3333" y="-84"/>
			<point name=".hr03" x="18" y="-108.667" type="curve"/>
			<point x="18" y="-112.333"/>
			<point x="18" y="-116.333"/>
			<point x="18" y="-120.667" type="curve"/>
			<point x="20" y="-155"/>
			<point x="33" y="-187.667"/>
			<point x="56.3333" y="-204.667" type="curve" smooth="yes"/>
			<point x="90.6667" y="-229.667"/>
			<point x="145.333" y="-237.333"/>
			<point x="191.667" y="-238" type="curve"/>
			<point x="195.667" y="-238"/>
			<point x="199.333" y="-238"/>
			<point x="203.333" y="-238" type="curve"/>
			<point x="339.667" y="-236.667"/>
			<point x="491.333" y="-166.667"/>
			<point x="491.333" y="-58.3333" type="curve" smooth="yes"/>
			<point x="491.333" y="-33.6667"/>
			<point x="479.667" y="3.33333"/>
			<point x="443.333" y="29.3333" type="curve" smooth="yes"/>
			<point x="414.333" y="50.6667"/>
			<point x="346.333" y="57"/>
			<point x="290.667" y="59.6667" type="curve" smooth="yes"/>
			<point x="264.667" y="61"/>
			<point x="237" y="61"/>
			<point x="212.333" y="60.6667" type="curve" smooth="yes"/>
			<point x="203.667" y="60.3333"/>
			<point x="195.667" y="60.3333"/>
			<point x="189.333" y="60" type="curve"/>
			<point x="188.333" y="60"/>
			<point x="187.667" y="60"/>
			<point x="187" y="60" type="curve"/>
			<point x="166.333" y="60"/>
			<point x="138.333" y="65"/>
			<point name=".hr04" x="136" y="102.667" type="curve"/>
			<point x="135.667" y="104"/>
			<point x="135.667" y="105.333"/>
			<point x="135.667" y="107" type="curve" smooth="yes"/>
			<point x="135.667" y="124.333"/>
			<point x="144.333" y="140.667"/>
			<point x="151.667" y="154.333" type="curve"/>
			<point x="173.667" y="143"/>
			<point x="197" y="140"/>
			<point x="230.667" y="140" type="curve" smooth="yes"/>
			<point x="279.333" y="140"/>
			<point x="324.667" y="153.333"/>
			<point x="358" y="182" type="curve" smooth="yes"/>
			<point x="385.667" y="206.333"/>
			<point x="405" y="239.333"/>
			<point name=".hr05" x="407" y="281.667" type="curve" smooth="yes"/>
			<point x="407.333" y="288"/>
			<point x="407.667" y="294"/>
			<point x="407" y="300.333" type="curve"/>
			<point name=".hr06" x="404.333" y="348"/>
			<point x="382.333" y="379"/>
			<point x="352" y="405.667" type="curve"/>
			<point x="359.667" y="415.667"/>
			<point x="388.333" y="432.333"/>
			<point x="399.333" y="432.333" type="curve" smooth="yes"/>
			<point name=".hr07" x="407" y="432.333"/>
			<point x="413" y="428"/>
			<point x="416.667" y="422.667" type="curve"/>
			<point x="418" y="420"/>
			<point x="419.333" y="417.333"/>
			<point x="421.333" y="414.333" type="curve"/>
			<point x="427.333" y="403.667"/>
			<point x="442.333" y="391.667"/>
		</contour>
		<contour>
			<point x="174" y="-21.6667" type="curve" smooth="yes"/>
			<point x="198.333" y="-21.6667"/>
			<point x="225.667" y="-20.6667"/>
			<point x="249" y="-22" type="curve" smooth="yes"/>
			<point x="291.667" y="-23.3333"/>
			<point x="332.333" y="-26.3333"/>
			<point x="361.333" y="-38.3333" type="curve" smooth="yes"/>
			<point x="389" y="-49.6667"/>
			<point x="404" y="-62"/>
			<point x="405.333" y="-80.3333" type="curve" smooth="yes"/>
			<point name=".hr08" x="405.667" y="-85"/>
			<point x="405.667" y="-89"/>
			<point x="405" y="-93.6667" type="curve"/>
			<point x="403" y="-127"/>
			<point x="383.667" y="-158.333"/>
			<point x="351.667" y="-175" type="curve" smooth="yes"/>
			<point x="318.333" y="-193.333"/>
			<point x="268" y="-197.667"/>
			<point x="227.667" y="-197.667" type="curve" smooth="yes"/>
			<point x="175.667" y="-197.667"/>
			<point x="119" y="-160.667"/>
			<point x="114.333" y="-107.333" type="curve"/>
			<point x="113.667" y="-102.333"/>
			<point x="113.667" y="-98"/>
			<point x="113.667" y="-94" type="curve"/>
			<point x="114" y="-62.3333"/>
			<point x="115.667" y="-39.3333"/>
			<point x="131.333" y="-16" type="curve"/>
			<point x="141.667" y="-19.6667"/>
			<point x="155.667" y="-21.6667"/>
		</contour>
		<contour>
			<point x="299.667" y="285" type="curve" smooth="yes"/>
			<point x="299.667" y="190"/>
			<point name=".hr09" x="265.333" y="175.667"/>
			<point x="235.667" y="175.667" type="curve" smooth="yes"/>
			<point x="166.333" y="175.667"/>
			<point x="158" y="248.667"/>
			<point x="158" y="304" type="curve" smooth="yes"/>
			<point x="158" y="376.667"/>
			<point x="178.333" y="406.667"/>
			<point x="222.667" y="406.667" type="curve" smooth="yes"/>
			<point x="275" y="406.667"/>
			<point x="299.667" y="365.333"/>
		</contour>
		<contour>
			<point x="230.667" y="509" type="curve" smooth="yes"/>
			<point x="256.333" y="509"/>
			<point x="280.333" y="529.667"/>
			<point x="281.333" y="546" type="curve"/>
			<point x="281.667" y="546.667"/>
			<point x="281.667" y="547.333"/>
			<point x="281.667" y="548" type="curve"/>
			<point x="281.667" y="569.667"/>
			<point x="271.667" y="586.667"/>
			<point x="247" y="591.333" type="curve"/>
			<point x="244" y="592.333"/>
			<point x="239" y="592.333"/>
			<point x="233.667" y="593.667" type="curve"/>
			<point x="230.333" y="594.333"/>
			<point x="226.667" y="595"/>
			<point x="224.333" y="596" type="curve"/>
			<point x="217" y="597.667"/>
			<point x="214" y="601"/>
			<point x="214" y="611.333" type="curve" smooth="yes"/>
			<point x="214" y="631"/>
			<point x="237.333" y="657.667"/>
			<point x="283" y="669" type="curve"/>
			<point x="285.667" y="679.333"/>
			<point x="285.333" y="689"/>
			<point x="277.333" y="694.333" type="curve"/>
			<point x="240" y="688"/>
			<point x="208.667" y="672.333"/>
			<point x="188.333" y="651.333" type="curve"/>
			<point x="171.667" y="632.667"/>
			<point x="162" y="610.667"/>
			<point x="162" y="585.333" type="curve" smooth="yes"/>
			<point x="162" y="531.333"/>
			<point x="196.333" y="509"/>
		</contour>
	</outline>
</glyph>
<glyph name="Hbar" format="2">
	<unicode hex="0126"/>
	<advance width="788"/>
	<outline>
		<contour>
			<point x="233.333" y="540" type="curve"/>
			<point x="236.333" y="607"/>
			<point x="261.667" y="610.333"/>
			<point x="317.333" y="613.333" type="curve"/>
			<point x="326" y="619.333"/>
			<point x="326" y="641"/>
			<point x="317.333" y="647" type="curve"/>
			<point x="279.333" y="646"/>
			<point x="219.333" y="645"/>
			<point x="178.333" y="645" type="curve" smooth="yes"/>
			<point x="164" y="645" type="line" smooth="yes"/>
			<point x="120" y="645"/>
			<point x="63.6667" y="646"/>
			<point x="27" y="647" type="curve"/>
			<point x="18.3333" y="641"/>
			<point x="18.3333" y="619.333"/>
			<point x="27" y="613.333" type="curve"/>
			<point x="82.6667" y="610.333"/>
			<point x="107.333" y="607"/>
			<point x="111" y="540.667" type="curve"/>
			<point x="76.6667" y="541.333"/>
			<point x="47.3333" y="541.333"/>
			<point x="31.6667" y="542" type="curve"/>
			<point x="25.6667" y="497.333" type="line"/>
			<point x="42.3333" y="498"/>
			<point x="74" y="498.667"/>
			<point x="111.333" y="498.667" type="curve"/>
			<point x="111.333" y="122" type="line" smooth="yes"/>
			<point x="111.333" y="39"/>
			<point x="87" y="34.6667"/>
			<point x="27" y="31.6667" type="curve"/>
			<point x="18.3333" y="25.6667"/>
			<point x="18.3333" y="4"/>
			<point x="27" y="-2" type="curve"/>
			<point x="65.6667" y="-1"/>
			<point x="124.333" y="0"/>
			<point x="164.333" y="0" type="curve" smooth="yes"/>
			<point x="177" y="0" type="line" smooth="yes"/>
			<point x="215.333" y="0"/>
			<point x="277.667" y="-1"/>
			<point x="317.333" y="-2" type="curve"/>
			<point x="326" y="4"/>
			<point x="326" y="25.6667"/>
			<point x="317.333" y="31.6667" type="curve"/>
			<point x="257.333" y="34.6667"/>
			<point x="233" y="39"/>
			<point x="233" y="122" type="curve" smooth="yes"/>
			<point x="233" y="319.667" type="line"/>
			<point x="553.667" y="319.667" type="line"/>
			<point x="553.667" y="122" type="line" smooth="yes"/>
			<point x="553.667" y="39"/>
			<point x="529.333" y="34.6667"/>
			<point x="469.333" y="31.6667" type="curve"/>
			<point x="460.667" y="25.6667"/>
			<point x="460.667" y="4"/>
			<point x="469.333" y="-2" type="curve"/>
			<point x="509.333" y="-1"/>
			<point x="572.667" y="0"/>
			<point x="611" y="0" type="curve" smooth="yes"/>
			<point x="624" y="0" type="line" smooth="yes"/>
			<point x="663.667" y="0"/>
			<point x="721" y="-1"/>
			<point x="759.667" y="-2" type="curve"/>
			<point x="768.333" y="4"/>
			<point x="768.333" y="25.6667"/>
			<point x="759.667" y="31.6667" type="curve"/>
			<point x="699.667" y="34.6667"/>
			<point x="675.333" y="39"/>
			<point x="675.333" y="122" type="curve" smooth="yes"/>
			<point x="675.333" y="498" type="line"/>
			<point x="692.333" y="498"/>
			<point x="707.667" y="498"/>
			<point x="718.667" y="497.333" type="curve"/>
			<point x="724.667" y="542" type="line"/>
			<point x="713" y="541.333"/>
			<point x="696" y="541.333"/>
			<point x="675.667" y="541.333" type="curve"/>
			<point x="679.333" y="607"/>
			<point x="704.667" y="610.333"/>
			<point x="759.667" y="613.333" type="curve"/>
			<point x="768.333" y="619.333"/>
			<point x="768.333" y="641"/>
			<point x="759.667" y="647" type="curve"/>
			<point x="722" y="646"/>
			<point x="663.667" y="645"/>
			<point x="623.667" y="645" type="curve" smooth="yes"/>
			<point x="610.667" y="645" type="line" smooth="yes"/>
			<point x="572.333" y="645"/>
			<point x="509" y="646"/>
			<point x="469.333" y="647" type="curve"/>
			<point x="460.667" y="641"/>
			<point x="460.667" y="619.333"/>
			<point x="469.333" y="613.333" type="curve"/>
			<point x="525" y="610.333"/>
			<point x="550.333" y="607"/>
			<point x="553.333" y="540" type="curve"/>
			<point x="484" y="539.333"/>
			<point x="416.667" y="539.333"/>
			<point x="379.667" y="539.333" type="curve" smooth="yes"/>
			<point x="348.333" y="539.333"/>
			<point x="293.333" y="539.333"/>
		</contour>
		<contour>
			<point x="553.667" y="499.333" type="curve"/>
			<point x="553.667" y="365.667" type="line"/>
			<point x="233" y="365.667" type="line"/>
			<point x="233" y="500" type="line"/>
			<point x="367.333" y="500" type="line" smooth="yes"/>
			<point x="407.333" y="500"/>
			<point x="481" y="500"/>
		</contour>
	</outline>
</glyph>
